<ttFont>
<head>
    <!-- Most of this table will be recalculated by the compiler -->
    <tableVersion value="1.0"/>
    <fontRevision value="1.0"/>
    <checkSumAdjustment value="0xd9d2ed97"/>
    <magicNumber value="0x5f0f3cf5"/>
    <flags value="00000000 00001011"/>
    <unitsPerEm value="1000"/>
    <created value="Wed May 26 09:43:56 2021"/>
    <modified value="Wed May 26 09:43:56 2021"/>
    <xMin value="0"/>
    <yMin value="-107"/>
    <xMax value="1000"/>
    <yMax value="830"/>
    <macStyle value="00000000 00000000"/>
    <lowestRecPPEM value="8"/>
    <fontDirectionHint value="2"/>
    <indexToLocFormat value="0"/>
    <glyphDataFormat value="0"/>
  </head>
    <TTGlyph name="uni2c" xMin="0" yMin="0" xMax="173" yMax="175">
      <contour>
        <pt x="85" y="79" on="1"/>
        <pt x="85" y="79" on="1"/>
        <pt x="85" y="90" on="0"/>
        <pt x="77" y="99" on="0"/>
        <pt x="69" y="103" on="0"/>
        <pt x="65" y="106" on="1"/>
        <pt x="65" y="106" on="1"/>
        <pt x="60" y="107" on="0"/>
        <pt x="60" y="112" on="1"/>
        <pt x="60" y="140" on="1"/>
        <pt x="60" y="164" on="0"/>
        <pt x="83" y="175" on="0"/>
        <pt x="105" y="175" on="1"/>
        <pt x="105" y="175" on="1"/>
        <pt x="114" y="175" on="0"/>
        <pt x="126" y="173" on="1"/>
        <pt x="126" y="173" on="1"/>
        <pt x="138" y="169" on="0"/>
        <pt x="158" y="157" on="0"/>
        <pt x="173" y="140" on="0"/>
        <pt x="173" y="128" on="1"/>
        <pt x="173" y="128" on="1"/>
        <pt x="173" y="114" on="0"/>
        <pt x="152" y="77" on="0"/>
        <pt x="122" y="45" on="0"/>
        <pt x="86" y="24" on="0"/>
        <pt x="71" y="24" on="1"/>
        <pt x="71" y="24" on="1"/>
        <pt x="70" y="24" on="0"/>
        <pt x="70" y="25" on="1"/>
        <pt x="70" y="26" on="1"/>
        <pt x="70" y="39" on="0"/>
        <pt x="85" y="65" on="0"/>
      </contour>
    </TTGlyph>
    <TTGlyph name="uni3002" xMin="0" yMin="0" xMax="222" yMax="143">
      <contour>
        <pt x="89" y="42" on="1"/>
        <pt x="89" y="56" on="1"/>
        <pt x="89" y="67" on="0"/>
        <pt x="92" y="98" on="0"/>
        <pt x="97" y="112" on="1"/>
        <pt x="97" y="112" on="1"/>
        <pt x="102" y="124" on="0"/>
        <pt x="122" y="143" on="0"/>
        <pt x="140" y="143" on="1"/>
        <pt x="140" y="143" on="1"/>
        <pt x="151" y="143" on="0"/>
        <pt x="179" y="131" on="0"/>
        <pt x="205" y="112" on="0"/>
        <pt x="222" y="88" on="0"/>
        <pt x="222" y="76" on="1"/>
        <pt x="222" y="76" on="1"/>
        <pt x="222" y="47" on="0"/>
        <pt x="183" y="11" on="0"/>
        <pt x="155" y="11" on="1"/>
        <pt x="137" y="11" on="1"/>
        <pt x="131" y="11" on="0"/>
        <pt x="121" y="16" on="1"/>
        <pt x="121" y="16" on="1"/>
        <pt x="114" y="17" on="0"/>
        <pt x="104" y="22" on="1"/>
        <pt x="93" y="25" on="1"/>
        <pt x="90" y="32" on="1"/>
      </contour>
      <contour>
        <pt x="130" y="52" on="1"/>
        <pt x="140" y="42" on="1"/>
        <pt x="142" y="42" on="1"/>
        <pt x="157" y="42" on="0"/>
        <pt x="181" y="64" on="0"/>
        <pt x="181" y="79" on="1"/>
        <pt x="181" y="79" on="1"/>
        <pt x="181" y="89" on="0"/>
        <pt x="174" y="109" on="0"/>
        <pt x="162" y="109" on="1"/>
        <pt x="162" y="109" on="1"/>
        <pt x="143" y="109" on="0"/>
        <pt x="130" y="85" on="0"/>
        <pt x="130" y="68" on="1"/>
      </contour>
    </TTGlyph>
    <TTGlyph name="uni4E86" xMin="0" yMin="0" xMax="644" yMax="707">
      <contour>
        <pt x="617" y="657" on="1"/>
        <pt x="517" y="707" on="1"/>
        <pt x="483" y="675" on="0"/>
        <pt x="389" y="633" on="0"/>
        <pt x="348" y="644" on="1"/>
        <pt x="348" y="644" on="1"/>
        <pt x="347" y="685" on="0"/>
        <pt x="310" y="643" on="0"/>
        <pt x="338" y="621" on="1"/>
        <pt x="338" y="621" on="1"/>
        <pt x="354" y="557" on="0"/>
        <pt x="450" y="586" on="0"/>
        <pt x="484" y="611" on="1"/>
        <pt x="484" y="611" on="1"/>
        <pt x="445" y="545" on="0"/>
        <pt x="437" y="389" on="0"/>
        <pt x="500" y="335" on="1"/>
        <pt x="500" y="335" on="1"/>
        <pt x="524" y="257" on="0"/>
        <pt x="487" y="89" on="0"/>
        <pt x="462" y="22" on="1"/>
        <pt x="462" y="22" on="1"/>
        <pt x="515" y="34" on="0"/>
        <pt x="558" y="96" on="1"/>
        <pt x="558" y="96" on="1"/>
        <pt x="607" y="178" on="0"/>
        <pt x="577" y="366" on="0"/>
        <pt x="491" y="419" on="1"/>
        <pt x="491" y="419" on="1"/>
        <pt x="501" y="486" on="0"/>
        <pt x="644" y="581" on="0"/>
        <pt x="617" y="657" on="1"/>
      </contour>
    </TTGlyph>
    <TTGlyph name="uni4EE5" xMin="0" yMin="0" xMax="851" yMax="616">
      <contour>
        <pt x="664" y="616" on="1"/>
        <pt x="664" y="616" on="1"/>
        <pt x="652" y="602" on="0"/>
        <pt x="638" y="604" on="1"/>
        <pt x="638" y="604" on="1"/>
        <pt x="626" y="590" on="0"/>
        <pt x="611" y="574" on="1"/>
        <pt x="611" y="574" on="1"/>
        <pt x="590" y="562" on="0"/>
        <pt x="580" y="513" on="0"/>
        <pt x="559" y="499" on="1"/>
        <pt x="559" y="499" on="1"/>
        <pt x="524" y="475" on="0"/>
        <pt x="471" y="398" on="0"/>
        <pt x="430" y="382" on="1"/>
        <pt x="430" y="382" on="1"/>
        <pt x="392" y="387" on="0"/>
        <pt x="359" y="382" on="1"/>
        <pt x="359" y="382" on="1"/>
        <pt x="320" y="373" on="0"/>
        <pt x="299" y="343" on="1"/>
        <pt x="299" y="343" on="1"/>
        <pt x="307" y="272" on="0"/>
        <pt x="254" y="225" on="1"/>
        <pt x="254" y="225" on="1"/>
        <pt x="238" y="211" on="0"/>
        <pt x="217" y="200" on="1"/>
        <pt x="217" y="200" on="1"/>
        <pt x="225" y="218" on="0"/>
        <pt x="230" y="242" on="1"/>
        <pt x="230" y="242" on="1"/>
        <pt x="238" y="260" on="0"/>
        <pt x="243" y="281" on="1"/>
        <pt x="243" y="281" on="1"/>
        <pt x="240" y="294" on="0"/>
        <pt x="243" y="311" on="1"/>
        <pt x="243" y="311" on="1"/>
        <pt x="249" y="350" on="0"/>
        <pt x="244" y="396" on="1"/>
        <pt x="244" y="396" on="1"/>
        <pt x="242" y="418" on="0"/>
        <pt x="227" y="439" on="1"/>
        <pt x="227" y="439" on="1"/>
        <pt x="201" y="464" on="0"/>
        <pt x="168" y="481" on="1"/>
        <pt x="168" y="481" on="1"/>
        <pt x="154" y="479" on="0"/>
        <pt x="145" y="503" on="0"/>
        <pt x="132" y="496" on="1"/>
        <pt x="132" y="496" on="1"/>
        <pt x="117" y="491" on="0"/>
        <pt x="129" y="461" on="0"/>
        <pt x="135" y="450" on="1"/>
        <pt x="135" y="450" on="1"/>
        <pt x="143" y="420" on="0"/>
        <pt x="158" y="394" on="1"/>
        <pt x="158" y="394" on="1"/>
        <pt x="160" y="326" on="0"/>
        <pt x="158" y="256" on="1"/>
        <pt x="158" y="256" on="1"/>
        <pt x="156" y="227" on="0"/>
        <pt x="129" y="212" on="1"/>
        <pt x="129" y="212" on="1"/>
        <pt x="130" y="177" on="0"/>
        <pt x="126" y="140" on="1"/>
        <pt x="126" y="140" on="1"/>
        <pt x="128" y="111" on="0"/>
        <pt x="156" y="122" on="1"/>
        <pt x="156" y="122" on="1"/>
        <pt x="175" y="99" on="0"/>
        <pt x="202" y="114" on="1"/>
        <pt x="202" y="114" on="1"/>
        <pt x="237" y="140" on="0"/>
        <pt x="270" y="166" on="1"/>
        <pt x="270" y="166" on="1"/>
        <pt x="317" y="209" on="0"/>
        <pt x="337" y="264" on="1"/>
        <pt x="337" y="264" on="1"/>
        <pt x="332" y="294" on="0"/>
        <pt x="329" y="326" on="1"/>
        <pt x="329" y="326" on="1"/>
        <pt x="326" y="339" on="0"/>
        <pt x="357" y="362" on="0"/>
        <pt x="368" y="345" on="1"/>
        <pt x="368" y="345" on="1"/>
        <pt x="395" y="315" on="0"/>
        <pt x="430" y="305" on="1"/>
        <pt x="430" y="305" on="1"/>
        <pt x="458" y="302" on="0"/>
        <pt x="483" y="318" on="1"/>
        <pt x="483" y="318" on="1"/>
        <pt x="503" y="349" on="0"/>
        <pt x="517" y="382" on="1"/>
        <pt x="517" y="382" on="1"/>
        <pt x="525" y="407" on="0"/>
        <pt x="532" y="439" on="1"/>
        <pt x="532" y="439" on="1"/>
        <pt x="530" y="473" on="0"/>
        <pt x="559" y="484" on="1"/>
        <pt x="559" y="484" on="1"/>
        <pt x="590" y="508" on="0"/>
        <pt x="599" y="545" on="1"/>
        <pt x="599" y="545" on="1"/>
        <pt x="604" y="558" on="0"/>
        <pt x="632" y="556" on="0"/>
        <pt x="644" y="563" on="1"/>
        <pt x="644" y="563" on="1"/>
        <pt x="655" y="531" on="0"/>
        <pt x="635" y="499" on="1"/>
        <pt x="635" y="499" on="1"/>
        <pt x="585" y="413" on="0"/>
        <pt x="539" y="326" on="1"/>
        <pt x="539" y="326" on="1"/>
        <pt x="522" y="298" on="0"/>
        <pt x="477" y="250" on="0"/>
        <pt x="439" y="255" on="1"/>
        <pt x="439" y="255" on="1"/>
        <pt x="423" y="251" on="0"/>
        <pt x="438" y="245" on="1"/>
        <pt x="438" y="245" on="1"/>
        <pt x="448" y="236" on="0"/>
        <pt x="448" y="196" on="0"/>
        <pt x="468" y="199" on="1"/>
        <pt x="468" y="199" on="1"/>
        <pt x="488" y="194" on="0"/>
        <pt x="503" y="206" on="1"/>
        <pt x="503" y="206" on="1"/>
        <pt x="540" y="219" on="0"/>
        <pt x="566" y="249" on="1"/>
        <pt x="566" y="249" on="1"/>
        <pt x="609" y="296" on="0"/>
        <pt x="641" y="347" on="1"/>
        <pt x="641" y="347" on="1"/>
        <pt x="667" y="385" on="0"/>
        <pt x="686" y="423" on="1"/>
        <pt x="686" y="423" on="1"/>
        <pt x="722" y="490" on="0"/>
        <pt x="743" y="566" on="1"/>
        <pt x="743" y="566" on="1"/>
        <pt x="730" y="597" on="0"/>
        <pt x="694" y="597" on="1"/>
        <pt x="694" y="597" on="1"/>
        <pt x="674" y="600" on="0"/>
      </contour>
      <contour>
        <pt x="651" y="286" on="1"/>
        <pt x="651" y="286" on="1"/>
        <pt x="632" y="286" on="0"/>
        <pt x="615" y="278" on="1"/>
        <pt x="615" y="278" on="1"/>
        <pt x="590" y="279" on="0"/>
        <pt x="615" y="270" on="1"/>
        <pt x="615" y="270" on="1"/>
        <pt x="646" y="256" on="0"/>
        <pt x="693" y="202" on="0"/>
        <pt x="723" y="184" on="1"/>
        <pt x="723" y="184" on="1"/>
        <pt x="757" y="162" on="0"/>
        <pt x="779" y="136" on="1"/>
        <pt x="779" y="136" on="1"/>
        <pt x="781" y="119" on="0"/>
        <pt x="794" y="107" on="1"/>
        <pt x="794" y="107" on="1"/>
        <pt x="811" y="126" on="0"/>
        <pt x="831" y="129" on="1"/>
        <pt x="831" y="129" on="1"/>
        <pt x="851" y="153" on="0"/>
        <pt x="846" y="184" on="1"/>
        <pt x="846" y="184" on="1"/>
        <pt x="849" y="197" on="0"/>
        <pt x="839" y="211" on="1"/>
        <pt x="839" y="211" on="1"/>
        <pt x="831" y="225" on="0"/>
        <pt x="813" y="238" on="1"/>
        <pt x="813" y="238" on="1"/>
        <pt x="769" y="266" on="0"/>
        <pt x="714" y="275" on="1"/>
        <pt x="714" y="275" on="1"/>
        <pt x="682" y="281" on="0"/>
      </contour>
    </TTGlyph>
    <TTGlyph name="uni4F53" xMin="0" yMin="-35" xMax="905" yMax="754">
      <contour>
        <pt x="494" y="754" on="1"/>
        <pt x="494" y="754" on="1"/>
        <pt x="480" y="709" on="1"/>
        <pt x="493" y="724" on="1"/>
        <pt x="500" y="733" on="0"/>
        <pt x="509" y="721" on="1"/>
        <pt x="509" y="721" on="1"/>
        <pt x="518" y="688" on="0"/>
        <pt x="517" y="650" on="1"/>
        <pt x="517" y="650" on="1"/>
        <pt x="519" y="622" on="0"/>
        <pt x="523" y="601" on="1"/>
        <pt x="523" y="601" on="1"/>
        <pt x="537" y="573" on="0"/>
        <pt x="530" y="545" on="1"/>
        <pt x="530" y="545" on="1"/>
        <pt x="534" y="526" on="0"/>
        <pt x="532" y="508" on="1"/>
        <pt x="532" y="508" on="1"/>
        <pt x="536" y="473" on="0"/>
        <pt x="527" y="446" on="1"/>
        <pt x="527" y="446" on="1"/>
        <pt x="439" y="398" on="0"/>
        <pt x="345" y="379" on="1"/>
        <pt x="345" y="379" on="1"/>
        <pt x="328" y="371" on="0"/>
        <pt x="310" y="379" on="1"/>
        <pt x="310" y="379" on="1"/>
        <pt x="313" y="366" on="0"/>
        <pt x="334" y="357" on="1"/>
        <pt x="334" y="357" on="1"/>
        <pt x="362" y="341" on="0"/>
        <pt x="391" y="353" on="1"/>
        <pt x="391" y="353" on="1"/>
        <pt x="419" y="344" on="0"/>
        <pt x="450" y="353" on="1"/>
        <pt x="450" y="353" on="1"/>
        <pt x="471" y="355" on="0"/>
        <pt x="494" y="369" on="1"/>
        <pt x="494" y="369" on="1"/>
        <pt x="501" y="372" on="0"/>
        <pt x="520" y="385" on="0"/>
        <pt x="523" y="374" on="1"/>
        <pt x="523" y="374" on="1"/>
        <pt x="515" y="352" on="0"/>
        <pt x="491" y="330" on="1"/>
        <pt x="378" y="218" on="1"/>
        <pt x="369" y="202" on="0"/>
        <pt x="349" y="199" on="1"/>
        <pt x="349" y="199" on="1"/>
        <pt x="343" y="202" on="0"/>
        <pt x="345" y="176" on="0"/>
        <pt x="348" y="170" on="1"/>
        <pt x="348" y="170" on="1"/>
        <pt x="359" y="152" on="0"/>
        <pt x="378" y="156" on="1"/>
        <pt x="378" y="156" on="1"/>
        <pt x="421" y="165" on="0"/>
        <pt x="485" y="229" on="0"/>
        <pt x="517" y="259" on="1"/>
        <pt x="517" y="259" on="1"/>
        <pt x="525" y="241" on="0"/>
        <pt x="523" y="222" on="1"/>
        <pt x="523" y="222" on="1"/>
        <pt x="520" y="210" on="0"/>
        <pt x="521" y="179" on="0"/>
        <pt x="503" y="178" on="1"/>
        <pt x="503" y="178" on="1"/>
        <pt x="451" y="160" on="0"/>
        <pt x="401" y="144" on="1"/>
        <pt x="401" y="144" on="1"/>
        <pt x="423" y="130" on="0"/>
        <pt x="447" y="120" on="1"/>
        <pt x="447" y="120" on="1"/>
        <pt x="462" y="123" on="0"/>
        <pt x="493" y="106" on="0"/>
        <pt x="509" y="113" on="1"/>
        <pt x="509" y="113" on="1"/>
        <pt x="508" y="86" on="0"/>
        <pt x="503" y="64" on="1"/>
        <pt x="503" y="64" on="1"/>
        <pt x="510" y="37" on="0"/>
        <pt x="525" y="15" on="1"/>
        <pt x="525" y="15" on="1"/>
        <pt x="524" y="-2" on="0"/>
        <pt x="542" y="-35" on="0"/>
        <pt x="559" y="-26" on="1"/>
        <pt x="559" y="-26" on="1"/>
        <pt x="559" y="-13" on="0"/>
        <pt x="582" y="-20" on="0"/>
        <pt x="584" y="-7" on="1"/>
        <pt x="584" y="-7" on="1"/>
        <pt x="587" y="45" on="0"/>
        <pt x="589" y="103" on="1"/>
        <pt x="589" y="103" on="1"/>
        <pt x="585" y="112" on="0"/>
        <pt x="587" y="140" on="0"/>
        <pt x="603" y="137" on="1"/>
        <pt x="603" y="137" on="1"/>
        <pt x="622" y="144" on="0"/>
        <pt x="635" y="140" on="1"/>
        <pt x="635" y="140" on="1"/>
        <pt x="648" y="156" on="0"/>
        <pt x="664" y="154" on="1"/>
        <pt x="664" y="154" on="1"/>
        <pt x="680" y="156" on="0"/>
        <pt x="681" y="170" on="1"/>
        <pt x="681" y="170" on="1"/>
        <pt x="674" y="191" on="0"/>
        <pt x="651" y="193" on="1"/>
        <pt x="651" y="193" on="1"/>
        <pt x="621" y="200" on="0"/>
        <pt x="596" y="199" on="1"/>
        <pt x="596" y="199" on="1"/>
        <pt x="579" y="192" on="0"/>
        <pt x="577" y="209" on="1"/>
        <pt x="573" y="238" on="1"/>
        <pt x="579" y="263" on="0"/>
        <pt x="576" y="298" on="1"/>
        <pt x="576" y="298" on="1"/>
        <pt x="600" y="292" on="0"/>
        <pt x="633" y="254" on="0"/>
        <pt x="655" y="245" on="1"/>
        <pt x="655" y="245" on="1"/>
        <pt x="735" y="214" on="0"/>
        <pt x="809" y="169" on="1"/>
        <pt x="809" y="169" on="1"/>
        <pt x="841" y="155" on="0"/>
        <pt x="880" y="154" on="1"/>
        <pt x="880" y="154" on="1"/>
        <pt x="885" y="162" on="0"/>
        <pt x="905" y="167" on="0"/>
        <pt x="899" y="176" on="1"/>
        <pt x="899" y="176" on="1"/>
        <pt x="898" y="206" on="0"/>
        <pt x="868" y="222" on="1"/>
        <pt x="868" y="222" on="1"/>
        <pt x="788" y="276" on="0"/>
        <pt x="689" y="283" on="1"/>
        <pt x="689" y="283" on="1"/>
        <pt x="637" y="302" on="0"/>
        <pt x="584" y="313" on="1"/>
        <pt x="584" y="313" on="1"/>
        <pt x="573" y="329" on="0"/>
        <pt x="592" y="350" on="1"/>
        <pt x="592" y="350" on="1"/>
        <pt x="612" y="367" on="0"/>
        <pt x="622" y="394" on="1"/>
        <pt x="622" y="394" on="1"/>
        <pt x="625" y="403" on="0"/>
        <pt x="616" y="425" on="0"/>
        <pt x="629" y="425" on="1"/>
        <pt x="629" y="425" on="1"/>
        <pt x="655" y="428" on="0"/>
        <pt x="678" y="435" on="1"/>
        <pt x="678" y="435" on="1"/>
        <pt x="719" y="435" on="0"/>
        <pt x="753" y="448" on="1"/>
        <pt x="753" y="448" on="1"/>
        <pt x="769" y="447" on="0"/>
        <pt x="779" y="465" on="1"/>
        <pt x="779" y="465" on="1"/>
        <pt x="756" y="495" on="0"/>
        <pt x="714" y="489" on="1"/>
        <pt x="714" y="489" on="1"/>
        <pt x="707" y="497" on="0"/>
        <pt x="698" y="486" on="0"/>
        <pt x="689" y="489" on="1"/>
        <pt x="689" y="489" on="1"/>
        <pt x="673" y="490" on="0"/>
        <pt x="646" y="498" on="0"/>
        <pt x="638" y="481" on="1"/>
        <pt x="638" y="481" on="1"/>
        <pt x="606" y="472" on="0"/>
        <pt x="573" y="462" on="1"/>
        <pt x="573" y="462" on="1"/>
        <pt x="571" y="514" on="0"/>
        <pt x="592" y="563" on="1"/>
        <pt x="592" y="563" on="1"/>
        <pt x="596" y="601" on="0"/>
        <pt x="589" y="649" on="1"/>
        <pt x="589" y="649" on="1"/>
        <pt x="596" y="675" on="0"/>
        <pt x="581" y="702" on="1"/>
        <pt x="581" y="702" on="1"/>
        <pt x="558" y="750" on="0"/>
        <pt x="503" y="754" on="1"/>
        <pt x="503" y="754" on="1"/>
        <pt x="499" y="746" on="0"/>
      </contour>
      <contour>
        <pt x="251" y="646" on="1"/>
        <pt x="247" y="649" on="1"/>
        <pt x="243" y="639" on="0"/>
        <pt x="219" y="628" on="0"/>
        <pt x="224" y="616" on="1"/>
        <pt x="224" y="616" on="1"/>
        <pt x="248" y="583" on="0"/>
        <pt x="230" y="548" on="1"/>
        <pt x="230" y="548" on="1"/>
        <pt x="218" y="504" on="0"/>
        <pt x="191" y="474" on="1"/>
        <pt x="191" y="474" on="1"/>
        <pt x="159" y="396" on="0"/>
        <pt x="119" y="323" on="1"/>
        <pt x="66" y="215" on="1"/>
        <pt x="58" y="191" on="0"/>
        <pt x="72" y="170" on="1"/>
        <pt x="72" y="170" on="1"/>
        <pt x="77" y="165" on="0"/>
        <pt x="74" y="149" on="0"/>
        <pt x="80" y="159" on="1"/>
        <pt x="80" y="159" on="1"/>
        <pt x="89" y="142" on="0"/>
        <pt x="109" y="147" on="1"/>
        <pt x="109" y="147" on="1"/>
        <pt x="139" y="153" on="0"/>
        <pt x="165" y="204" on="0"/>
        <pt x="179" y="226" on="1"/>
        <pt x="187" y="244" on="1"/>
        <pt x="192" y="254" on="0"/>
        <pt x="195" y="242" on="1"/>
        <pt x="195" y="242" on="1"/>
        <pt x="191" y="203" on="0"/>
        <pt x="188" y="162" on="1"/>
        <pt x="188" y="162" on="1"/>
        <pt x="185" y="135" on="0"/>
        <pt x="184" y="117" on="1"/>
        <pt x="184" y="117" on="1"/>
        <pt x="185" y="85" on="0"/>
        <pt x="200" y="61" on="1"/>
        <pt x="200" y="61" on="1"/>
        <pt x="216" y="35" on="0"/>
        <pt x="243" y="44" on="1"/>
        <pt x="243" y="44" on="1"/>
        <pt x="266" y="38" on="0"/>
        <pt x="270" y="71" on="1"/>
        <pt x="270" y="71" on="1"/>
        <pt x="269" y="124" on="0"/>
        <pt x="273" y="173" on="1"/>
        <pt x="273" y="173" on="1"/>
        <pt x="271" y="218" on="0"/>
        <pt x="276" y="267" on="1"/>
        <pt x="276" y="267" on="1"/>
        <pt x="280" y="322" on="0"/>
        <pt x="286" y="369" on="1"/>
        <pt x="286" y="369" on="1"/>
        <pt x="288" y="401" on="0"/>
        <pt x="284" y="428" on="1"/>
        <pt x="284" y="428" on="1"/>
        <pt x="308" y="470" on="0"/>
        <pt x="325" y="515" on="1"/>
        <pt x="325" y="515" on="1"/>
        <pt x="348" y="538" on="0"/>
        <pt x="349" y="567" on="1"/>
        <pt x="349" y="567" on="1"/>
        <pt x="345" y="581" on="0"/>
        <pt x="317" y="590" on="0"/>
        <pt x="310" y="604" on="1"/>
        <pt x="310" y="604" on="1"/>
        <pt x="295" y="614" on="0"/>
        <pt x="281" y="609" on="1"/>
        <pt x="281" y="609" on="1"/>
        <pt x="254" y="620" on="0"/>
        <pt x="251" y="646" on="1"/>
      </contour>
    </TTGlyph>
    <TTGlyph name="uni53EF" xMin="0" yMin="-44" xMax="826" yMax="759">
      <contour>
        <pt x="720" y="759" on="1"/>
        <pt x="717" y="759" on="1"/>
        <pt x="694" y="752" on="0"/>
        <pt x="675" y="737" on="1"/>
        <pt x="675" y="737" on="1"/>
        <pt x="663" y="729" on="0"/>
        <pt x="641" y="727" on="1"/>
        <pt x="641" y="727" on="1"/>
        <pt x="563" y="716" on="0"/>
        <pt x="491" y="699" on="1"/>
        <pt x="491" y="699" on="1"/>
        <pt x="439" y="687" on="0"/>
        <pt x="389" y="672" on="1"/>
        <pt x="389" y="672" on="1"/>
        <pt x="381" y="670" on="0"/>
        <pt x="369" y="672" on="1"/>
        <pt x="369" y="672" on="1"/>
        <pt x="346" y="662" on="0"/>
        <pt x="325" y="662" on="1"/>
        <pt x="325" y="662" on="1"/>
        <pt x="271" y="648" on="0"/>
        <pt x="213" y="636" on="1"/>
        <pt x="213" y="636" on="1"/>
        <pt x="203" y="639" on="0"/>
        <pt x="225" y="650" on="0"/>
        <pt x="237" y="661" on="0"/>
        <pt x="261" y="673" on="0"/>
        <pt x="247" y="669" on="1"/>
        <pt x="247" y="669" on="1"/>
        <pt x="213" y="652" on="0"/>
        <pt x="179" y="652" on="1"/>
        <pt x="179" y="652" on="1"/>
        <pt x="155" y="655" on="0"/>
        <pt x="145" y="635" on="1"/>
        <pt x="145" y="635" on="1"/>
        <pt x="146" y="620" on="0"/>
        <pt x="148" y="603" on="1"/>
        <pt x="148" y="603" on="1"/>
        <pt x="152" y="576" on="0"/>
        <pt x="167" y="560" on="1"/>
        <pt x="167" y="560" on="1"/>
        <pt x="181" y="547" on="0"/>
        <pt x="213" y="570" on="0"/>
        <pt x="227" y="567" on="1"/>
        <pt x="227" y="567" on="1"/>
        <pt x="239" y="565" on="0"/>
        <pt x="223" y="561" on="1"/>
        <pt x="223" y="561" on="1"/>
        <pt x="231" y="562" on="0"/>
        <pt x="254" y="567" on="1"/>
        <pt x="254" y="567" on="1"/>
        <pt x="279" y="566" on="0"/>
        <pt x="291" y="581" on="1"/>
        <pt x="291" y="581" on="1"/>
        <pt x="335" y="587" on="0"/>
        <pt x="371" y="603" on="1"/>
        <pt x="371" y="603" on="1"/>
        <pt x="388" y="602" on="0"/>
        <pt x="408" y="606" on="1"/>
        <pt x="408" y="606" on="1"/>
        <pt x="427" y="612" on="0"/>
        <pt x="445" y="616" on="1"/>
        <pt x="445" y="616" on="1"/>
        <pt x="470" y="625" on="0"/>
        <pt x="452" y="609" on="1"/>
        <pt x="452" y="609" on="1"/>
        <pt x="422" y="597" on="0"/>
        <pt x="396" y="574" on="1"/>
        <pt x="396" y="574" on="1"/>
        <pt x="359" y="555" on="0"/>
        <pt x="329" y="522" on="1"/>
        <pt x="329" y="522" on="1"/>
        <pt x="314" y="517" on="0"/>
        <pt x="303" y="496" on="1"/>
        <pt x="303" y="496" on="1"/>
        <pt x="297" y="481" on="0"/>
        <pt x="266" y="475" on="0"/>
        <pt x="257" y="462" on="1"/>
        <pt x="257" y="462" on="1"/>
        <pt x="252" y="449" on="0"/>
        <pt x="261" y="440" on="1"/>
        <pt x="261" y="440" on="1"/>
        <pt x="273" y="413" on="0"/>
        <pt x="276" y="387" on="1"/>
        <pt x="276" y="387" on="1"/>
        <pt x="282" y="340" on="0"/>
        <pt x="322" y="345" on="1"/>
        <pt x="322" y="345" on="1"/>
        <pt x="354" y="386" on="0"/>
        <pt x="401" y="409" on="1"/>
        <pt x="401" y="409" on="1"/>
        <pt x="402" y="398" on="0"/>
        <pt x="404" y="387" on="1"/>
        <pt x="404" y="387" on="1"/>
        <pt x="404" y="362" on="0"/>
        <pt x="411" y="333" on="1"/>
        <pt x="411" y="333" on="1"/>
        <pt x="417" y="321" on="0"/>
        <pt x="415" y="294" on="0"/>
        <pt x="430" y="289" on="1"/>
        <pt x="430" y="289" on="1"/>
        <pt x="451" y="283" on="0"/>
        <pt x="466" y="321" on="0"/>
        <pt x="481" y="333" on="1"/>
        <pt x="481" y="333" on="1"/>
        <pt x="521" y="366" on="0"/>
        <pt x="555" y="403" on="1"/>
        <pt x="555" y="403" on="1"/>
        <pt x="559" y="420" on="0"/>
        <pt x="530" y="429" on="0"/>
        <pt x="517" y="435" on="1"/>
        <pt x="517" y="435" on="1"/>
        <pt x="520" y="468" on="0"/>
        <pt x="469" y="495" on="0"/>
        <pt x="442" y="507" on="1"/>
        <pt x="442" y="507" on="1"/>
        <pt x="408" y="499" on="0"/>
        <pt x="371" y="492" on="1"/>
        <pt x="371" y="492" on="1"/>
        <pt x="356" y="487" on="0"/>
        <pt x="340" y="489" on="1"/>
        <pt x="340" y="489" on="1"/>
        <pt x="369" y="534" on="0"/>
        <pt x="420" y="557" on="1"/>
        <pt x="420" y="557" on="1"/>
        <pt x="458" y="579" on="0"/>
        <pt x="498" y="596" on="1"/>
        <pt x="559" y="625" on="1"/>
        <pt x="602" y="645" on="0"/>
        <pt x="645" y="650" on="1"/>
        <pt x="645" y="650" on="1"/>
        <pt x="686" y="655" on="0"/>
        <pt x="737" y="652" on="1"/>
        <pt x="737" y="652" on="1"/>
        <pt x="766" y="637" on="0"/>
        <pt x="788" y="659" on="1"/>
        <pt x="788" y="659" on="1"/>
        <pt x="808" y="644" on="0"/>
        <pt x="806" y="665" on="1"/>
        <pt x="806" y="665" on="1"/>
        <pt x="823" y="667" on="0"/>
        <pt x="818" y="678" on="1"/>
        <pt x="818" y="678" on="1"/>
        <pt x="826" y="690" on="0"/>
        <pt x="802" y="712" on="0"/>
        <pt x="792" y="715" on="1"/>
        <pt x="792" y="715" on="1"/>
        <pt x="755" y="724" on="0"/>
        <pt x="740" y="755" on="1"/>
        <pt x="740" y="755" on="1"/>
        <pt x="728" y="749" on="0"/>
        <pt x="720" y="759" on="1"/>
      </contour>
      <contour>
        <pt x="618" y="567" on="1"/>
        <pt x="618" y="567" on="1"/>
        <pt x="611" y="553" on="0"/>
        <pt x="599" y="557" on="1"/>
        <pt x="599" y="557" on="1"/>
        <pt x="576" y="546" on="0"/>
        <pt x="562" y="525" on="1"/>
        <pt x="562" y="525" on="1"/>
        <pt x="561" y="515" on="0"/>
        <pt x="569" y="533" on="1"/>
        <pt x="569" y="533" on="1"/>
        <pt x="593" y="542" on="0"/>
        <pt x="615" y="541" on="1"/>
        <pt x="615" y="541" on="1"/>
        <pt x="633" y="538" on="0"/>
        <pt x="642" y="515" on="1"/>
        <pt x="642" y="515" on="1"/>
        <pt x="650" y="437" on="0"/>
        <pt x="648" y="354" on="1"/>
        <pt x="648" y="354" on="1"/>
        <pt x="649" y="322" on="0"/>
        <pt x="648" y="298" on="1"/>
        <pt x="648" y="298" on="1"/>
        <pt x="648" y="286" on="0"/>
        <pt x="649" y="271" on="1"/>
        <pt x="649" y="271" on="1"/>
        <pt x="647" y="249" on="0"/>
        <pt x="648" y="228" on="1"/>
        <pt x="648" y="228" on="1"/>
        <pt x="643" y="144" on="0"/>
        <pt x="648" y="70" on="1"/>
        <pt x="648" y="70" on="1"/>
        <pt x="646" y="47" on="0"/>
        <pt x="649" y="25" on="1"/>
        <pt x="649" y="25" on="1"/>
        <pt x="644" y="16" on="0"/>
        <pt x="634" y="14" on="1"/>
        <pt x="634" y="14" on="1"/>
        <pt x="644" y="-1" on="0"/>
        <pt x="655" y="-12" on="1"/>
        <pt x="655" y="-12" on="1"/>
        <pt x="653" y="-23" on="0"/>
        <pt x="661" y="-20" on="1"/>
        <pt x="661" y="-20" on="1"/>
        <pt x="674" y="-44" on="0"/>
        <pt x="686" y="-26" on="1"/>
        <pt x="686" y="-26" on="1"/>
        <pt x="718" y="20" on="0"/>
        <pt x="713" y="74" on="1"/>
        <pt x="713" y="74" on="1"/>
        <pt x="712" y="122" on="0"/>
        <pt x="713" y="165" on="1"/>
        <pt x="713" y="165" on="1"/>
        <pt x="708" y="195" on="0"/>
        <pt x="703" y="229" on="1"/>
        <pt x="703" y="229" on="1"/>
        <pt x="701" y="250" on="0"/>
        <pt x="701" y="271" on="1"/>
        <pt x="701" y="271" on="1"/>
        <pt x="698" y="302" on="0"/>
        <pt x="691" y="326" on="1"/>
        <pt x="691" y="326" on="1"/>
        <pt x="690" y="338" on="0"/>
        <pt x="691" y="353" on="1"/>
        <pt x="691" y="353" on="1"/>
        <pt x="683" y="401" on="0"/>
        <pt x="683" y="458" on="1"/>
        <pt x="683" y="458" on="1"/>
        <pt x="696" y="475" on="0"/>
        <pt x="681" y="493" on="1"/>
        <pt x="681" y="493" on="1"/>
        <pt x="668" y="515" on="0"/>
        <pt x="664" y="541" on="1"/>
        <pt x="664" y="541" on="1"/>
        <pt x="644" y="560" on="0"/>
      </contour>
    </TTGlyph>
    <TTGlyph name="uni540E" xMin="0" yMin="0" xMax="774" yMax="708">
      <contour>
        <pt x="461" y="708" on="1"/>
        <pt x="461" y="708" on="1"/>
        <pt x="463" y="698" on="0"/>
        <pt x="450" y="696" on="1"/>
        <pt x="450" y="696" on="1"/>
        <pt x="449" y="677" on="0"/>
        <pt x="470" y="645" on="0"/>
        <pt x="452" y="630" on="1"/>
        <pt x="362" y="542" on="1"/>
        <pt x="335" y="515" on="0"/>
        <pt x="303" y="504" on="1"/>
        <pt x="303" y="504" on="1"/>
        <pt x="344" y="497" on="0"/>
        <pt x="377" y="515" on="1"/>
        <pt x="377" y="515" on="1"/>
        <pt x="451" y="547" on="0"/>
        <pt x="523" y="586" on="1"/>
        <pt x="523" y="586" on="1"/>
        <pt x="540" y="604" on="0"/>
        <pt x="562" y="610" on="1"/>
        <pt x="562" y="610" on="1"/>
        <pt x="576" y="632" on="0"/>
        <pt x="545" y="665" on="0"/>
        <pt x="523" y="669" on="1"/>
        <pt x="523" y="669" on="1"/>
        <pt x="511" y="672" on="0"/>
        <pt x="491" y="693" on="0"/>
        <pt x="479" y="684" on="1"/>
        <pt x="479" y="684" on="1"/>
        <pt x="464" y="692" on="0"/>
      </contour>
      <contour>
        <pt x="645" y="504" on="1"/>
        <pt x="645" y="504" on="1"/>
        <pt x="631" y="481" on="0"/>
        <pt x="608" y="477" on="1"/>
        <pt x="608" y="477" on="1"/>
        <pt x="506" y="444" on="0"/>
        <pt x="412" y="391" on="1"/>
        <pt x="412" y="391" on="1"/>
        <pt x="388" y="389" on="0"/>
        <pt x="369" y="382" on="1"/>
        <pt x="369" y="382" on="1"/>
        <pt x="358" y="409" on="0"/>
        <pt x="333" y="416" on="1"/>
        <pt x="333" y="416" on="1"/>
        <pt x="316" y="417" on="0"/>
        <pt x="299" y="423" on="1"/>
        <pt x="299" y="423" on="1"/>
        <pt x="288" y="427" on="0"/>
        <pt x="260" y="416" on="0"/>
        <pt x="253" y="428" on="1"/>
        <pt x="253" y="428" on="1"/>
        <pt x="242" y="422" on="0"/>
        <pt x="254" y="403" on="1"/>
        <pt x="254" y="403" on="1"/>
        <pt x="267" y="378" on="0"/>
        <pt x="291" y="379" on="1"/>
        <pt x="291" y="379" on="1"/>
        <pt x="294" y="351" on="0"/>
        <pt x="287" y="323" on="1"/>
        <pt x="287" y="323" on="1"/>
        <pt x="256" y="222" on="0"/>
        <pt x="218" y="123" on="1"/>
        <pt x="218" y="123" on="1"/>
        <pt x="201" y="87" on="0"/>
        <pt x="192" y="52" on="1"/>
        <pt x="192" y="52" on="1"/>
        <pt x="192" y="25" on="0"/>
        <pt x="213" y="18" on="1"/>
        <pt x="213" y="18" on="1"/>
        <pt x="218" y="13" on="0"/>
        <pt x="234" y="33" on="0"/>
        <pt x="245" y="31" on="1"/>
        <pt x="245" y="31" on="1"/>
        <pt x="289" y="71" on="0"/>
        <pt x="303" y="133" on="1"/>
        <pt x="303" y="133" on="1"/>
        <pt x="333" y="209" on="0"/>
        <pt x="350" y="292" on="1"/>
        <pt x="350" y="292" on="1"/>
        <pt x="356" y="337" on="0"/>
        <pt x="358" y="387" on="1"/>
        <pt x="358" y="387" on="1"/>
        <pt x="362" y="382" on="0"/>
        <pt x="377" y="374" on="1"/>
        <pt x="377" y="374" on="1"/>
        <pt x="395" y="374" on="0"/>
        <pt x="415" y="376" on="1"/>
        <pt x="415" y="376" on="1"/>
        <pt x="439" y="376" on="0"/>
        <pt x="461" y="372" on="1"/>
        <pt x="461" y="372" on="1"/>
        <pt x="485" y="377" on="0"/>
        <pt x="503" y="374" on="1"/>
        <pt x="503" y="374" on="1"/>
        <pt x="531" y="377" on="0"/>
        <pt x="513" y="354" on="1"/>
        <pt x="513" y="354" on="1"/>
        <pt x="452" y="284" on="0"/>
        <pt x="408" y="206" on="1"/>
        <pt x="408" y="206" on="1"/>
        <pt x="384" y="179" on="0"/>
        <pt x="381" y="143" on="1"/>
        <pt x="381" y="143" on="1"/>
        <pt x="378" y="97" on="0"/>
        <pt x="411" y="63" on="1"/>
        <pt x="411" y="63" on="1"/>
        <pt x="426" y="51" on="0"/>
        <pt x="442" y="60" on="1"/>
        <pt x="442" y="60" on="1"/>
        <pt x="465" y="85" on="0"/>
        <pt x="496" y="97" on="1"/>
        <pt x="496" y="97" on="1"/>
        <pt x="537" y="147" on="0"/>
        <pt x="596" y="173" on="1"/>
        <pt x="596" y="173" on="1"/>
        <pt x="603" y="166" on="0"/>
        <pt x="588" y="156" on="0"/>
        <pt x="593" y="147" on="1"/>
        <pt x="593" y="147" on="1"/>
        <pt x="583" y="138" on="0"/>
        <pt x="599" y="130" on="1"/>
        <pt x="599" y="130" on="1"/>
        <pt x="629" y="95" on="0"/>
        <pt x="668" y="64" on="1"/>
        <pt x="668" y="64" on="1"/>
        <pt x="721" y="73" on="0"/>
        <pt x="710" y="123" on="1"/>
        <pt x="710" y="123" on="1"/>
        <pt x="708" y="145" on="0"/>
        <pt x="683" y="138" on="1"/>
        <pt x="683" y="138" on="1"/>
        <pt x="672" y="139" on="0"/>
        <pt x="651" y="150" on="0"/>
        <pt x="664" y="160" on="1"/>
        <pt x="664" y="160" on="1"/>
        <pt x="683" y="171" on="0"/>
        <pt x="705" y="187" on="1"/>
        <pt x="705" y="187" on="1"/>
        <pt x="735" y="201" on="0"/>
        <pt x="757" y="225" on="1"/>
        <pt x="757" y="225" on="1"/>
        <pt x="774" y="243" on="0"/>
        <pt x="765" y="292" on="0"/>
        <pt x="737" y="292" on="1"/>
        <pt x="713" y="294" on="1"/>
        <pt x="698" y="294" on="0"/>
        <pt x="678" y="298" on="1"/>
        <pt x="678" y="298" on="1"/>
        <pt x="667" y="287" on="0"/>
        <pt x="652" y="278" on="1"/>
        <pt x="652" y="278" on="1"/>
        <pt x="552" y="223" on="0"/>
        <pt x="468" y="146" on="1"/>
        <pt x="468" y="146" on="1"/>
        <pt x="474" y="166" on="0"/>
        <pt x="491" y="189" on="1"/>
        <pt x="491" y="189" on="1"/>
        <pt x="523" y="234" on="0"/>
        <pt x="557" y="277" on="1"/>
        <pt x="671" y="399" on="1"/>
        <pt x="684" y="408" on="0"/>
        <pt x="709" y="435" on="0"/>
        <pt x="724" y="429" on="1"/>
        <pt x="724" y="429" on="1"/>
        <pt x="741" y="444" on="0"/>
        <pt x="754" y="458" on="1"/>
        <pt x="754" y="458" on="1"/>
        <pt x="745" y="471" on="0"/>
        <pt x="734" y="485" on="1"/>
        <pt x="734" y="485" on="1"/>
        <pt x="713" y="493" on="0"/>
        <pt x="663" y="486" on="0"/>
      </contour>
      <contour>
        <pt x="520" y="376" on="1"/>
        <pt x="520" y="376" on="1"/>
        <pt x="528" y="382" on="0"/>
        <pt x="523" y="368" on="0"/>
      </contour>
      <contour>
        <pt x="615" y="189" on="1"/>
        <pt x="615" y="189" on="1"/>
        <pt x="627" y="193" on="0"/>
        <pt x="617" y="174" on="0"/>
        <pt x="608" y="173" on="1"/>
        <pt x="608" y="173" on="1"/>
        <pt x="602" y="182" on="0"/>
      </contour>
    </TTGlyph>
    <TTGlyph name="uni590D" xMin="0" yMin="-90" xMax="807" yMax="818">
      <contour>
        <pt x="509" y="803" on="1"/>
        <pt x="498" y="810" on="1"/>
        <pt x="494" y="789" on="0"/>
        <pt x="474" y="795" on="1"/>
        <pt x="474" y="795" on="1"/>
        <pt x="460" y="802" on="0"/>
        <pt x="450" y="777" on="0"/>
        <pt x="438" y="775" on="1"/>
        <pt x="438" y="775" on="1"/>
        <pt x="410" y="753" on="0"/>
        <pt x="378" y="734" on="1"/>
        <pt x="378" y="734" on="1"/>
        <pt x="356" y="715" on="0"/>
        <pt x="333" y="714" on="1"/>
        <pt x="333" y="714" on="1"/>
        <pt x="338" y="744" on="0"/>
        <pt x="312" y="751" on="1"/>
        <pt x="312" y="751" on="1"/>
        <pt x="292" y="749" on="0"/>
        <pt x="270" y="758" on="1"/>
        <pt x="270" y="758" on="1"/>
        <pt x="264" y="749" on="0"/>
        <pt x="240" y="756" on="0"/>
        <pt x="232" y="748" on="1"/>
        <pt x="232" y="748" on="1"/>
        <pt x="232" y="741" on="0"/>
        <pt x="222" y="743" on="0"/>
        <pt x="230" y="735" on="1"/>
        <pt x="230" y="735" on="1"/>
        <pt x="241" y="724" on="0"/>
        <pt x="254" y="728" on="1"/>
        <pt x="254" y="728" on="1"/>
        <pt x="273" y="700" on="0"/>
        <pt x="261" y="663" on="1"/>
        <pt x="261" y="663" on="1"/>
        <pt x="250" y="654" on="0"/>
        <pt x="257" y="625" on="0"/>
        <pt x="251" y="611" on="1"/>
        <pt x="251" y="611" on="1"/>
        <pt x="247" y="594" on="0"/>
        <pt x="232" y="560" on="0"/>
        <pt x="248" y="545" on="1"/>
        <pt x="248" y="545" on="1"/>
        <pt x="252" y="533" on="0"/>
        <pt x="278" y="544" on="0"/>
        <pt x="281" y="555" on="1"/>
        <pt x="281" y="555" on="1"/>
        <pt x="305" y="617" on="0"/>
        <pt x="322" y="679" on="1"/>
        <pt x="322" y="679" on="1"/>
        <pt x="339" y="701" on="0"/>
        <pt x="359" y="689" on="1"/>
        <pt x="359" y="689" on="1"/>
        <pt x="382" y="678" on="0"/>
        <pt x="401" y="695" on="1"/>
        <pt x="401" y="695" on="1"/>
        <pt x="408" y="698" on="0"/>
        <pt x="433" y="695" on="0"/>
        <pt x="424" y="682" on="1"/>
        <pt x="424" y="682" on="1"/>
        <pt x="361" y="603" on="0"/>
        <pt x="359" y="499" on="1"/>
        <pt x="359" y="499" on="1"/>
        <pt x="358" y="481" on="0"/>
        <pt x="362" y="459" on="1"/>
        <pt x="362" y="459" on="1"/>
        <pt x="349" y="463" on="0"/>
        <pt x="352" y="450" on="1"/>
        <pt x="352" y="450" on="1"/>
        <pt x="351" y="420" on="0"/>
        <pt x="363" y="394" on="1"/>
        <pt x="363" y="394" on="1"/>
        <pt x="372" y="377" on="0"/>
        <pt x="386" y="369" on="1"/>
        <pt x="386" y="369" on="1"/>
        <pt x="394" y="372" on="0"/>
        <pt x="414" y="363" on="0"/>
        <pt x="418" y="374" on="1"/>
        <pt x="418" y="374" on="1"/>
        <pt x="412" y="384" on="0"/>
        <pt x="426" y="402" on="0"/>
        <pt x="420" y="410" on="1"/>
        <pt x="420" y="410" on="1"/>
        <pt x="418" y="427" on="0"/>
        <pt x="418" y="440" on="1"/>
        <pt x="418" y="440" on="1"/>
        <pt x="415" y="471" on="0"/>
        <pt x="418" y="496" on="1"/>
        <pt x="418" y="496" on="1"/>
        <pt x="437" y="500" on="0"/>
        <pt x="430" y="481" on="1"/>
        <pt x="430" y="481" on="1"/>
        <pt x="442" y="460" on="0"/>
        <pt x="464" y="466" on="1"/>
        <pt x="486" y="469" on="1"/>
        <pt x="499" y="471" on="0"/>
        <pt x="496" y="455" on="1"/>
        <pt x="496" y="455" on="1"/>
        <pt x="496" y="421" on="0"/>
        <pt x="488" y="394" on="1"/>
        <pt x="488" y="394" on="1"/>
        <pt x="474" y="388" on="0"/>
        <pt x="468" y="372" on="1"/>
        <pt x="468" y="372" on="1"/>
        <pt x="407" y="355" on="0"/>
        <pt x="342" y="340" on="1"/>
        <pt x="342" y="340" on="1"/>
        <pt x="265" y="314" on="0"/>
        <pt x="188" y="289" on="1"/>
        <pt x="188" y="289" on="1"/>
        <pt x="179" y="294" on="0"/>
        <pt x="195" y="314" on="0"/>
        <pt x="191" y="323" on="1"/>
        <pt x="191" y="323" on="1"/>
        <pt x="178" y="329" on="0"/>
        <pt x="175" y="305" on="0"/>
        <pt x="165" y="304" on="1"/>
        <pt x="165" y="304" on="1"/>
        <pt x="160" y="297" on="0"/>
        <pt x="174" y="285" on="0"/>
        <pt x="168" y="278" on="1"/>
        <pt x="175" y="248" on="1"/>
        <pt x="178" y="232" on="0"/>
        <pt x="198" y="235" on="1"/>
        <pt x="198" y="235" on="1"/>
        <pt x="215" y="234" on="0"/>
        <pt x="235" y="238" on="1"/>
        <pt x="235" y="238" on="1"/>
        <pt x="273" y="254" on="0"/>
        <pt x="312" y="267" on="1"/>
        <pt x="398" y="304" on="1"/>
        <pt x="417" y="319" on="0"/>
        <pt x="435" y="313" on="1"/>
        <pt x="315" y="193" on="1"/>
        <pt x="292" y="208" on="0"/>
        <pt x="296" y="184" on="1"/>
        <pt x="296" y="184" on="1"/>
        <pt x="288" y="164" on="0"/>
        <pt x="270" y="152" on="1"/>
        <pt x="270" y="152" on="1"/>
        <pt x="271" y="129" on="0"/>
        <pt x="256" y="114" on="1"/>
        <pt x="256" y="114" on="1"/>
        <pt x="263" y="118" on="0"/>
        <pt x="273" y="110" on="1"/>
        <pt x="273" y="110" on="1"/>
        <pt x="302" y="129" on="0"/>
        <pt x="333" y="113" on="1"/>
        <pt x="333" y="113" on="1"/>
        <pt x="357" y="101" on="0"/>
        <pt x="383" y="87" on="1"/>
        <pt x="383" y="87" on="1"/>
        <pt x="370" y="62" on="0"/>
        <pt x="345" y="57" on="1"/>
        <pt x="345" y="57" on="1"/>
        <pt x="327" y="65" on="0"/>
        <pt x="286" y="65" on="0"/>
        <pt x="270" y="81" on="1"/>
        <pt x="270" y="81" on="1"/>
        <pt x="268" y="88" on="0"/>
        <pt x="269" y="68" on="0"/>
        <pt x="261" y="68" on="1"/>
        <pt x="261" y="68" on="1"/>
        <pt x="268" y="62" on="0"/>
        <pt x="286" y="57" on="1"/>
        <pt x="286" y="57" on="1"/>
        <pt x="309" y="47" on="0"/>
        <pt x="300" y="27" on="1"/>
        <pt x="300" y="27" on="1"/>
        <pt x="295" y="-10" on="0"/>
        <pt x="325" y="-7" on="1"/>
        <pt x="325" y="-7" on="1"/>
        <pt x="357" y="3" on="0"/>
        <pt x="389" y="17" on="1"/>
        <pt x="389" y="17" on="1"/>
        <pt x="422" y="43" on="0"/>
        <pt x="460" y="61" on="1"/>
        <pt x="460" y="61" on="1"/>
        <pt x="538" y="42" on="0"/>
        <pt x="609" y="1" on="1"/>
        <pt x="748" y="-81" on="1"/>
        <pt x="769" y="-90" on="0"/>
        <pt x="789" y="-85" on="1"/>
        <pt x="789" y="-85" on="1"/>
        <pt x="807" y="-89" on="0"/>
        <pt x="805" y="-77" on="1"/>
        <pt x="805" y="-77" on="1"/>
        <pt x="779" y="-32" on="0"/>
        <pt x="750" y="5" on="1"/>
        <pt x="750" y="5" on="1"/>
        <pt x="732" y="13" on="0"/>
        <pt x="723" y="31" on="1"/>
        <pt x="723" y="31" on="1"/>
        <pt x="641" y="87" on="0"/>
        <pt x="544" y="110" on="1"/>
        <pt x="544" y="110" on="1"/>
        <pt x="545" y="125" on="0"/>
        <pt x="569" y="136" on="1"/>
        <pt x="618" y="166" on="1"/>
        <pt x="636" y="172" on="0"/>
        <pt x="651" y="192" on="1"/>
        <pt x="684" y="242" on="1"/>
        <pt x="678" y="256" on="0"/>
        <pt x="662" y="262" on="1"/>
        <pt x="662" y="262" on="1"/>
        <pt x="671" y="274" on="0"/>
        <pt x="642" y="286" on="0"/>
        <pt x="629" y="286" on="1"/>
        <pt x="629" y="286" on="1"/>
        <pt x="543" y="272" on="0"/>
        <pt x="468" y="232" on="1"/>
        <pt x="468" y="232" on="1"/>
        <pt x="441" y="217" on="0"/>
        <pt x="411" y="206" on="1"/>
        <pt x="411" y="206" on="1"/>
        <pt x="411" y="223" on="0"/>
        <pt x="435" y="232" on="1"/>
        <pt x="435" y="232" on="1"/>
        <pt x="468" y="264" on="0"/>
        <pt x="503" y="291" on="1"/>
        <pt x="503" y="291" on="1"/>
        <pt x="513" y="294" on="0"/>
        <pt x="528" y="270" on="0"/>
        <pt x="539" y="283" on="1"/>
        <pt x="539" y="283" on="1"/>
        <pt x="545" y="300" on="0"/>
        <pt x="549" y="340" on="0"/>
        <pt x="569" y="345" on="1"/>
        <pt x="588" y="365" on="1"/>
        <pt x="598" y="376" on="0"/>
        <pt x="584" y="387" on="1"/>
        <pt x="584" y="387" on="1"/>
        <pt x="555" y="384" on="0"/>
        <pt x="555" y="409" on="1"/>
        <pt x="555" y="409" on="1"/>
        <pt x="555" y="436" on="0"/>
        <pt x="552" y="462" on="1"/>
        <pt x="552" y="462" on="1"/>
        <pt x="555" y="485" on="0"/>
        <pt x="550" y="507" on="1"/>
        <pt x="552" y="560" on="1"/>
        <pt x="564" y="589" on="0"/>
        <pt x="566" y="616" on="1"/>
        <pt x="566" y="616" on="1"/>
        <pt x="573" y="640" on="0"/>
        <pt x="573" y="665" on="1"/>
        <pt x="573" y="665" on="1"/>
        <pt x="572" y="688" on="0"/>
        <pt x="550" y="691" on="1"/>
        <pt x="550" y="691" on="1"/>
        <pt x="530" y="692" on="0"/>
        <pt x="513" y="698" on="1"/>
        <pt x="513" y="698" on="1"/>
        <pt x="502" y="682" on="0"/>
        <pt x="494" y="691" on="1"/>
        <pt x="494" y="691" on="1"/>
        <pt x="534" y="740" on="0"/>
        <pt x="592" y="768" on="1"/>
        <pt x="592" y="768" on="1"/>
        <pt x="619" y="770" on="0"/>
        <pt x="606" y="787" on="1"/>
        <pt x="606" y="787" on="1"/>
        <pt x="593" y="799" on="0"/>
        <pt x="576" y="798" on="1"/>
        <pt x="576" y="798" on="1"/>
        <pt x="542" y="818" on="0"/>
        <pt x="509" y="803" on="1"/>
      </contour>
      <contour>
        <pt x="488" y="656" on="1"/>
        <pt x="488" y="656" on="1"/>
        <pt x="505" y="651" on="0"/>
        <pt x="506" y="626" on="1"/>
        <pt x="506" y="626" on="1"/>
        <pt x="504" y="580" on="0"/>
        <pt x="498" y="530" on="1"/>
        <pt x="498" y="530" on="1"/>
        <pt x="468" y="538" on="0"/>
        <pt x="431" y="533" on="1"/>
        <pt x="431" y="533" on="1"/>
        <pt x="416" y="523" on="0"/>
        <pt x="415" y="555" on="0"/>
        <pt x="411" y="566" on="1"/>
        <pt x="427" y="607" on="1"/>
        <pt x="448" y="619" on="0"/>
        <pt x="467" y="640" on="1"/>
        <pt x="467" y="640" on="1"/>
        <pt x="476" y="650" on="0"/>
      </contour>
      <contour>
        <pt x="450" y="649" on="1"/>
        <pt x="450" y="649" on="1"/>
        <pt x="459" y="651" on="0"/>
        <pt x="445" y="632" on="0"/>
        <pt x="442" y="626" on="1"/>
        <pt x="442" y="626" on="1"/>
        <pt x="427" y="609" on="0"/>
        <pt x="438" y="627" on="1"/>
        <pt x="438" y="627" on="1"/>
        <pt x="440" y="640" on="0"/>
      </contour>
      <contour>
        <pt x="544" y="211" on="1"/>
        <pt x="544" y="211" on="1"/>
        <pt x="565" y="212" on="0"/>
        <pt x="544" y="196" on="1"/>
        <pt x="544" y="196" on="1"/>
        <pt x="493" y="151" on="0"/>
        <pt x="438" y="117" on="1"/>
        <pt x="438" y="117" on="1"/>
        <pt x="411" y="118" on="0"/>
        <pt x="383" y="127" on="1"/>
        <pt x="383" y="127" on="1"/>
        <pt x="376" y="125" on="0"/>
        <pt x="353" y="135" on="0"/>
        <pt x="366" y="140" on="1"/>
        <pt x="366" y="140" on="1"/>
        <pt x="382" y="153" on="0"/>
        <pt x="386" y="137" on="1"/>
        <pt x="386" y="137" on="1"/>
        <pt x="393" y="156" on="0"/>
        <pt x="412" y="163" on="1"/>
        <pt x="412" y="163" on="1"/>
        <pt x="474" y="205" on="0"/>
      </contour>
    </TTGlyph>
    <TTGlyph name="uni5B57" xMin="0" yMin="-65" xMax="809" yMax="780">
      <contour>
        <pt x="375" y="780" on="1"/>
        <pt x="375" y="780" on="1"/>
        <pt x="318" y="764" on="0"/>
        <pt x="365" y="737" on="1"/>
        <pt x="365" y="737" on="1"/>
        <pt x="402" y="709" on="0"/>
        <pt x="453" y="643" on="0"/>
        <pt x="488" y="620" on="1"/>
        <pt x="488" y="620" on="1"/>
        <pt x="492" y="610" on="0"/>
        <pt x="431" y="591" on="0"/>
        <pt x="412" y="579" on="1"/>
        <pt x="412" y="579" on="1"/>
        <pt x="376" y="565" on="0"/>
        <pt x="300" y="519" on="0"/>
        <pt x="269" y="521" on="1"/>
        <pt x="269" y="521" on="1"/>
        <pt x="269" y="551" on="0"/>
        <pt x="284" y="632" on="0"/>
        <pt x="251" y="605" on="1"/>
        <pt x="251" y="605" on="1"/>
        <pt x="202" y="567" on="0"/>
        <pt x="133" y="478" on="0"/>
        <pt x="148" y="412" on="1"/>
        <pt x="148" y="412" on="1"/>
        <pt x="175" y="384" on="0"/>
        <pt x="263" y="439" on="0"/>
        <pt x="296" y="459" on="1"/>
        <pt x="296" y="459" on="1"/>
        <pt x="466" y="585" on="0"/>
        <pt x="668" y="612" on="1"/>
        <pt x="668" y="612" on="1"/>
        <pt x="627" y="565" on="0"/>
        <pt x="513" y="513" on="0"/>
        <pt x="467" y="488" on="1"/>
        <pt x="467" y="488" on="1"/>
        <pt x="470" y="484" on="0"/>
        <pt x="407" y="425" on="0"/>
        <pt x="400" y="441" on="1"/>
        <pt x="400" y="441" on="1"/>
        <pt x="378" y="405" on="0"/>
        <pt x="448" y="387" on="0"/>
        <pt x="481" y="408" on="1"/>
        <pt x="481" y="408" on="1"/>
        <pt x="508" y="414" on="0"/>
        <pt x="553" y="426" on="0"/>
        <pt x="536" y="389" on="1"/>
        <pt x="536" y="389" on="1"/>
        <pt x="523" y="353" on="0"/>
        <pt x="513" y="277" on="0"/>
        <pt x="464" y="277" on="1"/>
        <pt x="464" y="277" on="1"/>
        <pt x="410" y="261" on="0"/>
        <pt x="306" y="199" on="0"/>
        <pt x="251" y="203" on="1"/>
        <pt x="251" y="203" on="1"/>
        <pt x="234" y="212" on="0"/>
        <pt x="285" y="158" on="0"/>
        <pt x="306" y="153" on="1"/>
        <pt x="306" y="153" on="1"/>
        <pt x="368" y="152" on="0"/>
        <pt x="497" y="202" on="0"/>
        <pt x="555" y="214" on="1"/>
        <pt x="555" y="214" on="1"/>
        <pt x="571" y="130" on="0"/>
        <pt x="486" y="-12" on="0"/>
        <pt x="400" y="13" on="1"/>
        <pt x="400" y="13" on="1"/>
        <pt x="444" y="-65" on="0"/>
        <pt x="593" y="-40" on="0"/>
        <pt x="599" y="57" on="1"/>
        <pt x="599" y="57" on="1"/>
        <pt x="613" y="102" on="0"/>
        <pt x="609" y="199" on="0"/>
        <pt x="626" y="240" on="1"/>
        <pt x="626" y="240" on="1"/>
        <pt x="665" y="243" on="0"/>
        <pt x="761" y="234" on="0"/>
        <pt x="729" y="283" on="1"/>
        <pt x="729" y="283" on="1"/>
        <pt x="653" y="357" on="0"/>
        <pt x="558" y="314" on="1"/>
        <pt x="558" y="314" on="1"/>
        <pt x="548" y="332" on="0"/>
        <pt x="591" y="382" on="0"/>
        <pt x="612" y="401" on="1"/>
        <pt x="612" y="401" on="1"/>
        <pt x="646" y="437" on="0"/>
        <pt x="618" y="506" on="0"/>
        <pt x="580" y="518" on="1"/>
        <pt x="580" y="518" on="1"/>
        <pt x="701" y="544" on="0"/>
        <pt x="809" y="588" on="1"/>
        <pt x="809" y="588" on="1"/>
        <pt x="794" y="640" on="0"/>
        <pt x="697" y="681" on="0"/>
        <pt x="646" y="663" on="1"/>
        <pt x="580" y="648" on="1"/>
        <pt x="548" y="640" on="0"/>
        <pt x="539" y="682" on="1"/>
        <pt x="539" y="682" on="1"/>
        <pt x="479" y="771" on="0"/>
      </contour>
      <contour>
        <pt x="394" y="424" on="1"/>
        <pt x="394" y="424" on="1"/>
        <pt x="397" y="424" on="1"/>
        <pt x="405" y="425" on="0"/>
        <pt x="395" y="412" on="0"/>
      </contour>
    </TTGlyph>
    <TTGlyph name="uni6211" xMin="0" yMin="-85" xMax="877" yMax="815">
      <contour>
        <pt x="364" y="814" on="1"/>
        <pt x="364" y="814" on="1"/>
        <pt x="335" y="804" on="0"/>
        <pt x="408" y="786" on="0"/>
        <pt x="401" y="749" on="1"/>
        <pt x="459" y="477" on="1"/>
        <pt x="408" y="450" on="0"/>
        <pt x="303" y="406" on="0"/>
        <pt x="243" y="431" on="1"/>
        <pt x="243" y="431" on="1"/>
        <pt x="221" y="413" on="0"/>
        <pt x="165" y="398" on="0"/>
        <pt x="207" y="386" on="1"/>
        <pt x="207" y="386" on="1"/>
        <pt x="241" y="374" on="0"/>
        <pt x="169" y="344" on="0"/>
        <pt x="145" y="338" on="1"/>
        <pt x="145" y="338" on="1"/>
        <pt x="107" y="327" on="0"/>
        <pt x="90" y="390" on="0"/>
        <pt x="94" y="412" on="1"/>
        <pt x="94" y="412" on="1"/>
        <pt x="61" y="343" on="0"/>
        <pt x="177" y="263" on="0"/>
        <pt x="233" y="318" on="1"/>
        <pt x="233" y="318" on="1"/>
        <pt x="274" y="338" on="0"/>
        <pt x="254" y="261" on="0"/>
        <pt x="219" y="251" on="1"/>
        <pt x="130" y="180" on="1"/>
        <pt x="82" y="141" on="0"/>
        <pt x="106" y="87" on="1"/>
        <pt x="106" y="87" on="1"/>
        <pt x="143" y="95" on="0"/>
        <pt x="223" y="87" on="0"/>
        <pt x="248" y="50" on="1"/>
        <pt x="248" y="50" on="1"/>
        <pt x="259" y="30" on="0"/>
        <pt x="306" y="27" on="0"/>
        <pt x="313" y="57" on="1"/>
        <pt x="313" y="57" on="1"/>
        <pt x="319" y="139" on="0"/>
        <pt x="313" y="289" on="0"/>
        <pt x="375" y="350" on="1"/>
        <pt x="375" y="350" on="1"/>
        <pt x="376" y="353" on="0"/>
        <pt x="316" y="320" on="0"/>
        <pt x="327" y="360" on="1"/>
        <pt x="327" y="360" on="1"/>
        <pt x="368" y="371" on="0"/>
        <pt x="457" y="401" on="0"/>
        <pt x="496" y="396" on="1"/>
        <pt x="496" y="396" on="1"/>
        <pt x="515" y="344" on="0"/>
        <pt x="557" y="239" on="0"/>
        <pt x="499" y="199" on="1"/>
        <pt x="499" y="199" on="1"/>
        <pt x="489" y="171" on="0"/>
        <pt x="450" y="170" on="0"/>
        <pt x="448" y="186" on="1"/>
        <pt x="448" y="186" on="1"/>
        <pt x="434" y="153" on="0"/>
        <pt x="447" y="83" on="0"/>
        <pt x="493" y="115" on="1"/>
        <pt x="493" y="115" on="1"/>
        <pt x="518" y="122" on="0"/>
        <pt x="570" y="185" on="0"/>
        <pt x="590" y="171" on="1"/>
        <pt x="590" y="171" on="1"/>
        <pt x="629" y="89" on="0"/>
        <pt x="747" y="-69" on="0"/>
        <pt x="842" y="-85" on="1"/>
        <pt x="842" y="-85" on="1"/>
        <pt x="877" y="-78" on="0"/>
        <pt x="854" y="5" on="0"/>
        <pt x="839" y="29" on="1"/>
        <pt x="839" y="29" on="1"/>
        <pt x="803" y="105" on="0"/>
        <pt x="770" y="276" on="0"/>
        <pt x="726" y="340" on="1"/>
        <pt x="726" y="340" on="1"/>
        <pt x="747" y="278" on="0"/>
        <pt x="756" y="127" on="0"/>
        <pt x="732" y="66" on="1"/>
        <pt x="732" y="66" on="1"/>
        <pt x="650" y="153" on="0"/>
        <pt x="623" y="254" on="1"/>
        <pt x="623" y="254" on="1"/>
        <pt x="652" y="302" on="0"/>
        <pt x="738" y="407" on="0"/>
        <pt x="671" y="441" on="1"/>
        <pt x="671" y="441" on="1"/>
        <pt x="634" y="434" on="0"/>
        <pt x="625" y="348" on="0"/>
        <pt x="594" y="321" on="1"/>
        <pt x="594" y="321" on="1"/>
        <pt x="580" y="325" on="0"/>
        <pt x="543" y="406" on="0"/>
        <pt x="575" y="415" on="1"/>
        <pt x="575" y="415" on="1"/>
        <pt x="558" y="447" on="0"/>
        <pt x="500" y="494" on="0"/>
        <pt x="499" y="537" on="1"/>
        <pt x="499" y="537" on="1"/>
        <pt x="459" y="650" on="0"/>
        <pt x="459" y="763" on="1"/>
        <pt x="459" y="763" on="1"/>
        <pt x="424" y="815" on="0"/>
      </contour>
      <contour>
        <pt x="284" y="693" on="1"/>
        <pt x="284" y="693" on="1"/>
        <pt x="288" y="658" on="0"/>
        <pt x="286" y="602" on="0"/>
        <pt x="246" y="583" on="1"/>
        <pt x="246" y="583" on="1"/>
        <pt x="225" y="567" on="0"/>
        <pt x="179" y="538" on="0"/>
        <pt x="217" y="528" on="1"/>
        <pt x="217" y="528" on="1"/>
        <pt x="259" y="532" on="0"/>
        <pt x="355" y="562" on="0"/>
        <pt x="397" y="564" on="1"/>
        <pt x="397" y="564" on="1"/>
        <pt x="410" y="606" on="0"/>
        <pt x="346" y="672" on="0"/>
        <pt x="316" y="675" on="1"/>
        <pt x="316" y="675" on="1"/>
        <pt x="296" y="667" on="0"/>
      </contour>
      <contour>
        <pt x="562" y="663" on="1"/>
        <pt x="562" y="663" on="1"/>
        <pt x="516" y="654" on="1"/>
        <pt x="498" y="650" on="0"/>
        <pt x="536" y="635" on="1"/>
        <pt x="536" y="635" on="1"/>
        <pt x="574" y="602" on="0"/>
        <pt x="659" y="541" on="0"/>
        <pt x="703" y="564" on="1"/>
        <pt x="703" y="564" on="1"/>
        <pt x="709" y="624" on="0"/>
        <pt x="619" y="670" on="0"/>
      </contour>
      <contour>
        <pt x="254" y="206" on="1"/>
        <pt x="254" y="206" on="1"/>
        <pt x="265" y="183" on="0"/>
        <pt x="250" y="103" on="0"/>
        <pt x="210" y="128" on="1"/>
        <pt x="210" y="128" on="1"/>
        <pt x="189" y="142" on="0"/>
        <pt x="242" y="188" on="0"/>
      </contour>
      <contour>
        <pt x="291" y="87" on="1"/>
        <pt x="291" y="87" on="1"/>
        <pt x="293" y="87" on="1"/>
        <pt x="299" y="89" on="0"/>
        <pt x="292" y="77" on="0"/>
      </contour>
    </TTGlyph>
    <TTGlyph name="uni662F" xMin="0" yMin="-73" xMax="836" yMax="795">
      <contour>
        <pt x="457" y="791" on="1"/>
        <pt x="457" y="791" on="1"/>
        <pt x="432" y="786" on="0"/>
        <pt x="412" y="777" on="1"/>
        <pt x="412" y="777" on="1"/>
        <pt x="372" y="756" on="0"/>
        <pt x="334" y="728" on="1"/>
        <pt x="334" y="728" on="1"/>
        <pt x="334" y="719" on="0"/>
        <pt x="349" y="714" on="1"/>
        <pt x="349" y="714" on="1"/>
        <pt x="364" y="716" on="0"/>
        <pt x="354" y="691" on="0"/>
        <pt x="356" y="686" on="1"/>
        <pt x="356" y="686" on="1"/>
        <pt x="362" y="719" on="0"/>
        <pt x="391" y="709" on="1"/>
        <pt x="391" y="709" on="1"/>
        <pt x="421" y="712" on="0"/>
        <pt x="447" y="728" on="1"/>
        <pt x="447" y="728" on="1"/>
        <pt x="447" y="676" on="0"/>
        <pt x="438" y="623" on="1"/>
        <pt x="438" y="623" on="1"/>
        <pt x="433" y="600" on="0"/>
        <pt x="415" y="611" on="1"/>
        <pt x="349" y="616" on="1"/>
        <pt x="349" y="607" on="0"/>
        <pt x="332" y="615" on="0"/>
        <pt x="326" y="609" on="1"/>
        <pt x="326" y="609" on="1"/>
        <pt x="310" y="622" on="0"/>
        <pt x="293" y="609" on="1"/>
        <pt x="293" y="609" on="1"/>
        <pt x="284" y="608" on="0"/>
        <pt x="263" y="593" on="0"/>
        <pt x="276" y="589" on="1"/>
        <pt x="276" y="589" on="1"/>
        <pt x="314" y="573" on="0"/>
        <pt x="310" y="537" on="1"/>
        <pt x="310" y="537" on="1"/>
        <pt x="303" y="492" on="0"/>
        <pt x="322" y="455" on="1"/>
        <pt x="322" y="455" on="1"/>
        <pt x="332" y="434" on="0"/>
        <pt x="319" y="432" on="1"/>
        <pt x="352" y="402" on="1"/>
        <pt x="299" y="338" on="0"/>
        <pt x="244" y="281" on="1"/>
        <pt x="244" y="281" on="1"/>
        <pt x="208" y="249" on="0"/>
        <pt x="179" y="208" on="1"/>
        <pt x="179" y="208" on="1"/>
        <pt x="189" y="199" on="0"/>
        <pt x="185" y="166" on="0"/>
        <pt x="200" y="170" on="1"/>
        <pt x="200" y="170" on="1"/>
        <pt x="211" y="162" on="0"/>
        <pt x="233" y="178" on="0"/>
        <pt x="244" y="176" on="1"/>
        <pt x="244" y="176" on="1"/>
        <pt x="272" y="186" on="0"/>
        <pt x="299" y="203" on="1"/>
        <pt x="299" y="203" on="1"/>
        <pt x="301" y="192" on="0"/>
        <pt x="275" y="183" on="0"/>
        <pt x="269" y="173" on="1"/>
        <pt x="269" y="173" on="1"/>
        <pt x="240" y="156" on="0"/>
        <pt x="210" y="140" on="1"/>
        <pt x="210" y="140" on="1"/>
        <pt x="172" y="113" on="0"/>
        <pt x="136" y="81" on="1"/>
        <pt x="136" y="81" on="1"/>
        <pt x="139" y="58" on="0"/>
        <pt x="139" y="39" on="1"/>
        <pt x="139" y="39" on="1"/>
        <pt x="141" y="36" on="0"/>
        <pt x="142" y="24" on="1"/>
        <pt x="142" y="24" on="1"/>
        <pt x="132" y="2" on="0"/>
        <pt x="154" y="8" on="1"/>
        <pt x="154" y="8" on="1"/>
        <pt x="172" y="23" on="0"/>
        <pt x="195" y="35" on="1"/>
        <pt x="195" y="35" on="1"/>
        <pt x="230" y="55" on="0"/>
        <pt x="254" y="88" on="1"/>
        <pt x="254" y="88" on="1"/>
        <pt x="275" y="106" on="0"/>
        <pt x="326" y="94" on="0"/>
        <pt x="349" y="88" on="1"/>
        <pt x="349" y="88" on="1"/>
        <pt x="394" y="71" on="0"/>
        <pt x="435" y="44" on="1"/>
        <pt x="435" y="44" on="1"/>
        <pt x="520" y="1" on="0"/>
        <pt x="603" y="-44" on="1"/>
        <pt x="603" y="-44" on="1"/>
        <pt x="650" y="-66" on="0"/>
        <pt x="704" y="-69" on="1"/>
        <pt x="704" y="-69" on="1"/>
        <pt x="731" y="-72" on="0"/>
        <pt x="763" y="-66" on="1"/>
        <pt x="763" y="-66" on="1"/>
        <pt x="774" y="-73" on="0"/>
        <pt x="778" y="-57" on="0"/>
        <pt x="789" y="-58" on="1"/>
        <pt x="789" y="-58" on="1"/>
        <pt x="809" y="-58" on="0"/>
        <pt x="813" y="-51" on="1"/>
        <pt x="813" y="-51" on="1"/>
        <pt x="823" y="-49" on="0"/>
        <pt x="821" y="-40" on="1"/>
        <pt x="821" y="-40" on="1"/>
        <pt x="836" y="-40" on="0"/>
        <pt x="813" y="-27" on="0"/>
        <pt x="805" y="-25" on="1"/>
        <pt x="805" y="-25" on="1"/>
        <pt x="752" y="2" on="0"/>
        <pt x="707" y="27" on="1"/>
        <pt x="707" y="27" on="1"/>
        <pt x="639" y="51" on="0"/>
        <pt x="565" y="65" on="1"/>
        <pt x="565" y="65" on="1"/>
        <pt x="508" y="82" on="0"/>
        <pt x="452" y="103" on="1"/>
        <pt x="452" y="103" on="1"/>
        <pt x="461" y="119" on="0"/>
        <pt x="460" y="137" on="1"/>
        <pt x="460" y="137" on="1"/>
        <pt x="469" y="160" on="0"/>
        <pt x="461" y="181" on="1"/>
        <pt x="461" y="181" on="1"/>
        <pt x="487" y="203" on="0"/>
        <pt x="525" y="193" on="1"/>
        <pt x="525" y="193" on="1"/>
        <pt x="548" y="190" on="0"/>
        <pt x="573" y="192" on="1"/>
        <pt x="573" y="192" on="1"/>
        <pt x="606" y="184" on="0"/>
        <pt x="675" y="188" on="0"/>
        <pt x="692" y="219" on="1"/>
        <pt x="692" y="219" on="1"/>
        <pt x="698" y="232" on="0"/>
        <pt x="697" y="245" on="1"/>
        <pt x="697" y="245" on="1"/>
        <pt x="683" y="268" on="0"/>
        <pt x="634" y="256" on="0"/>
        <pt x="611" y="270" on="1"/>
        <pt x="611" y="270" on="1"/>
        <pt x="594" y="285" on="0"/>
        <pt x="569" y="286" on="1"/>
        <pt x="569" y="286" on="1"/>
        <pt x="538" y="283" on="0"/>
        <pt x="503" y="278" on="1"/>
        <pt x="503" y="278" on="1"/>
        <pt x="482" y="274" on="0"/>
        <pt x="464" y="274" on="1"/>
        <pt x="464" y="274" on="1"/>
        <pt x="459" y="304" on="0"/>
        <pt x="508" y="337" on="0"/>
        <pt x="523" y="364" on="1"/>
        <pt x="523" y="364" on="1"/>
        <pt x="523" y="377" on="0"/>
        <pt x="510" y="376" on="1"/>
        <pt x="510" y="376" on="1"/>
        <pt x="506" y="384" on="0"/>
        <pt x="491" y="376" on="0"/>
        <pt x="488" y="387" on="1"/>
        <pt x="488" y="387" on="1"/>
        <pt x="480" y="399" on="0"/>
        <pt x="474" y="410" on="1"/>
        <pt x="474" y="410" on="1"/>
        <pt x="486" y="454" on="0"/>
        <pt x="491" y="499" on="1"/>
        <pt x="491" y="499" on="1"/>
        <pt x="496" y="547" on="0"/>
        <pt x="509" y="594" on="1"/>
        <pt x="509" y="594" on="1"/>
        <pt x="517" y="632" on="0"/>
        <pt x="539" y="663" on="1"/>
        <pt x="539" y="663" on="1"/>
        <pt x="541" y="692" on="0"/>
        <pt x="555" y="719" on="1"/>
        <pt x="555" y="719" on="1"/>
        <pt x="558" y="761" on="0"/>
        <pt x="525" y="777" on="1"/>
        <pt x="525" y="777" on="1"/>
        <pt x="503" y="795" on="0"/>
        <pt x="471" y="791" on="1"/>
        <pt x="471" y="791" on="1"/>
        <pt x="463" y="790" on="0"/>
      </contour>
      <contour>
        <pt x="383" y="537" on="1"/>
        <pt x="383" y="537" on="1"/>
        <pt x="394" y="541" on="0"/>
        <pt x="408" y="517" on="0"/>
        <pt x="418" y="514" on="1"/>
        <pt x="418" y="514" on="1"/>
        <pt x="410" y="486" on="0"/>
        <pt x="411" y="458" on="1"/>
        <pt x="411" y="458" on="1"/>
        <pt x="404" y="447" on="0"/>
        <pt x="396" y="466" on="0"/>
        <pt x="398" y="459" on="1"/>
        <pt x="398" y="459" on="1"/>
        <pt x="395" y="445" on="0"/>
        <pt x="378" y="446" on="1"/>
        <pt x="378" y="446" on="1"/>
        <pt x="365" y="447" on="0"/>
        <pt x="373" y="475" on="0"/>
        <pt x="375" y="484" on="1"/>
        <pt x="375" y="484" on="1"/>
        <pt x="381" y="511" on="0"/>
      </contour>
      <contour>
        <pt x="401" y="379" on="1"/>
        <pt x="401" y="379" on="1"/>
        <pt x="415" y="386" on="0"/>
        <pt x="415" y="372" on="1"/>
        <pt x="415" y="372" on="1"/>
        <pt x="423" y="357" on="0"/>
        <pt x="424" y="340" on="1"/>
        <pt x="424" y="340" on="1"/>
        <pt x="334" y="274" on="0"/>
        <pt x="237" y="219" on="1"/>
        <pt x="237" y="219" on="1"/>
        <pt x="243" y="246" on="0"/>
        <pt x="269" y="267" on="1"/>
        <pt x="269" y="267" on="1"/>
        <pt x="306" y="311" on="0"/>
        <pt x="349" y="343" on="1"/>
        <pt x="349" y="343" on="1"/>
        <pt x="373" y="362" on="0"/>
      </contour>
      <contour>
        <pt x="398" y="259" on="1"/>
        <pt x="398" y="259" on="1"/>
        <pt x="413" y="250" on="0"/>
        <pt x="391" y="242" on="1"/>
        <pt x="391" y="242" on="1"/>
        <pt x="366" y="229" on="0"/>
        <pt x="340" y="218" on="1"/>
        <pt x="340" y="218" on="1"/>
        <pt x="317" y="204" on="0"/>
        <pt x="326" y="219" on="1"/>
        <pt x="326" y="219" on="1"/>
        <pt x="364" y="238" on="0"/>
      </contour>
      <contour>
        <pt x="476" y="245" on="1"/>
        <pt x="496" y="249" on="1"/>
        <pt x="525" y="253" on="0"/>
        <pt x="552" y="252" on="1"/>
        <pt x="552" y="252" on="1"/>
        <pt x="573" y="246" on="0"/>
        <pt x="559" y="241" on="1"/>
        <pt x="559" y="241" on="1"/>
        <pt x="510" y="219" on="0"/>
        <pt x="461" y="199" on="1"/>
        <pt x="461" y="199" on="1"/>
        <pt x="458" y="211" on="0"/>
        <pt x="459" y="245" on="0"/>
        <pt x="476" y="245" on="1"/>
      </contour>
      <contour>
        <pt x="310" y="211" on="1"/>
        <pt x="310" y="211" on="1"/>
        <pt x="328" y="214" on="0"/>
        <pt x="312" y="203" on="1"/>
        <pt x="312" y="203" on="1"/>
        <pt x="293" y="195" on="0"/>
      </contour>
      <contour>
        <pt x="393" y="211" on="1"/>
        <pt x="393" y="211" on="1"/>
        <pt x="402" y="203" on="0"/>
        <pt x="398" y="178" on="1"/>
        <pt x="398" y="178" on="1"/>
        <pt x="404" y="147" on="0"/>
        <pt x="420" y="117" on="1"/>
        <pt x="420" y="117" on="1"/>
        <pt x="420" y="106" on="0"/>
        <pt x="396" y="115" on="0"/>
        <pt x="386" y="114" on="1"/>
        <pt x="386" y="114" on="1"/>
        <pt x="344" y="126" on="0"/>
        <pt x="300" y="136" on="1"/>
        <pt x="300" y="136" on="1"/>
        <pt x="326" y="176" on="0"/>
        <pt x="371" y="200" on="1"/>
        <pt x="371" y="200" on="1"/>
        <pt x="382" y="207" on="0"/>
      </contour>
    </TTGlyph>
    <TTGlyph name="uni7684" xMin="0" yMin="0" xMax="770" yMax="678">
      <contour>
        <pt x="576" y="678" on="1"/>
        <pt x="569" y="678" on="1"/>
        <pt x="518" y="651" on="0"/>
        <pt x="503" y="601" on="1"/>
        <pt x="503" y="601" on="1"/>
        <pt x="463" y="499" on="0"/>
        <pt x="401" y="406" on="1"/>
        <pt x="401" y="406" on="1"/>
        <pt x="384" y="406" on="0"/>
        <pt x="369" y="410" on="1"/>
        <pt x="369" y="410" on="1"/>
        <pt x="338" y="397" on="0"/>
        <pt x="303" y="389" on="1"/>
        <pt x="303" y="389" on="1"/>
        <pt x="313" y="373" on="0"/>
        <pt x="325" y="360" on="1"/>
        <pt x="325" y="360" on="1"/>
        <pt x="350" y="346" on="0"/>
        <pt x="371" y="357" on="1"/>
        <pt x="371" y="357" on="1"/>
        <pt x="373" y="348" on="0"/>
        <pt x="366" y="334" on="1"/>
        <pt x="366" y="334" on="1"/>
        <pt x="326" y="270" on="0"/>
        <pt x="310" y="192" on="1"/>
        <pt x="310" y="192" on="1"/>
        <pt x="306" y="170" on="0"/>
        <pt x="325" y="179" on="1"/>
        <pt x="325" y="179" on="1"/>
        <pt x="346" y="169" on="0"/>
        <pt x="366" y="162" on="1"/>
        <pt x="366" y="162" on="1"/>
        <pt x="376" y="153" on="0"/>
        <pt x="396" y="129" on="0"/>
        <pt x="408" y="146" on="1"/>
        <pt x="408" y="146" on="1"/>
        <pt x="429" y="171" on="0"/>
        <pt x="434" y="209" on="1"/>
        <pt x="434" y="294" on="1"/>
        <pt x="441" y="325" on="0"/>
        <pt x="441" y="357" on="1"/>
        <pt x="441" y="357" on="1"/>
        <pt x="445" y="378" on="0"/>
        <pt x="427" y="394" on="1"/>
        <pt x="454" y="469" on="1"/>
        <pt x="471" y="506" on="0"/>
        <pt x="483" y="545" on="1"/>
        <pt x="483" y="545" on="1"/>
        <pt x="503" y="597" on="0"/>
        <pt x="532" y="644" on="1"/>
        <pt x="532" y="644" on="1"/>
        <pt x="544" y="654" on="0"/>
        <pt x="570" y="671" on="0"/>
        <pt x="581" y="655" on="1"/>
        <pt x="581" y="655" on="1"/>
        <pt x="595" y="618" on="0"/>
        <pt x="585" y="579" on="1"/>
        <pt x="585" y="579" on="1"/>
        <pt x="577" y="510" on="0"/>
        <pt x="562" y="445" on="1"/>
        <pt x="562" y="445" on="1"/>
        <pt x="550" y="373" on="0"/>
        <pt x="565" y="305" on="1"/>
        <pt x="565" y="305" on="1"/>
        <pt x="583" y="318" on="0"/>
        <pt x="589" y="343" on="1"/>
        <pt x="589" y="343" on="1"/>
        <pt x="626" y="359" on="0"/>
        <pt x="664" y="367" on="1"/>
        <pt x="664" y="367" on="1"/>
        <pt x="689" y="382" on="0"/>
        <pt x="716" y="372" on="1"/>
        <pt x="716" y="372" on="1"/>
        <pt x="719" y="295" on="0"/>
        <pt x="710" y="213" on="1"/>
        <pt x="710" y="213" on="1"/>
        <pt x="705" y="198" on="0"/>
        <pt x="703" y="158" on="0"/>
        <pt x="683" y="153" on="1"/>
        <pt x="683" y="153" on="1"/>
        <pt x="652" y="143" on="0"/>
        <pt x="618" y="140" on="1"/>
        <pt x="618" y="140" on="1"/>
        <pt x="572" y="168" on="0"/>
        <pt x="576" y="218" on="1"/>
        <pt x="576" y="218" on="1"/>
        <pt x="565" y="241" on="0"/>
        <pt x="578" y="256" on="1"/>
        <pt x="578" y="256" on="1"/>
        <pt x="607" y="223" on="0"/>
        <pt x="641" y="196" on="1"/>
        <pt x="641" y="196" on="1"/>
        <pt x="670" y="208" on="0"/>
        <pt x="667" y="241" on="1"/>
        <pt x="667" y="241" on="1"/>
        <pt x="666" y="276" on="0"/>
        <pt x="634" y="285" on="1"/>
        <pt x="634" y="285" on="1"/>
        <pt x="605" y="294" on="0"/>
        <pt x="569" y="297" on="1"/>
        <pt x="569" y="297" on="1"/>
        <pt x="545" y="268" on="0"/>
        <pt x="547" y="232" on="1"/>
        <pt x="540" y="187" on="1"/>
        <pt x="540" y="157" on="0"/>
        <pt x="552" y="136" on="1"/>
        <pt x="552" y="136" on="1"/>
        <pt x="545" y="118" on="0"/>
        <pt x="561" y="84" on="0"/>
        <pt x="557" y="64" on="1"/>
        <pt x="557" y="64" on="1"/>
        <pt x="570" y="66" on="0"/>
        <pt x="584" y="57" on="1"/>
        <pt x="648" y="48" on="1"/>
        <pt x="669" y="39" on="0"/>
        <pt x="701" y="45" on="1"/>
        <pt x="701" y="45" on="1"/>
        <pt x="724" y="45" on="0"/>
        <pt x="732" y="64" on="1"/>
        <pt x="732" y="64" on="1"/>
        <pt x="755" y="90" on="0"/>
        <pt x="751" y="126" on="1"/>
        <pt x="751" y="126" on="1"/>
        <pt x="762" y="144" on="0"/>
        <pt x="752" y="191" on="0"/>
        <pt x="764" y="209" on="1"/>
        <pt x="764" y="209" on="1"/>
        <pt x="769" y="223" on="0"/>
        <pt x="758" y="253" on="0"/>
        <pt x="766" y="267" on="1"/>
        <pt x="766" y="267" on="1"/>
        <pt x="766" y="294" on="0"/>
        <pt x="769" y="323" on="1"/>
        <pt x="769" y="323" on="1"/>
        <pt x="770" y="334" on="0"/>
        <pt x="769" y="350" on="1"/>
        <pt x="769" y="350" on="1"/>
        <pt x="770" y="408" on="0"/>
        <pt x="713" y="413" on="1"/>
        <pt x="713" y="413" on="1"/>
        <pt x="684" y="420" on="0"/>
        <pt x="657" y="402" on="1"/>
        <pt x="657" y="402" on="1"/>
        <pt x="633" y="384" on="0"/>
        <pt x="608" y="382" on="1"/>
        <pt x="608" y="382" on="1"/>
        <pt x="624" y="424" on="0"/>
        <pt x="632" y="469" on="1"/>
        <pt x="632" y="469" on="1"/>
        <pt x="642" y="487" on="0"/>
        <pt x="642" y="512" on="1"/>
        <pt x="642" y="512" on="1"/>
        <pt x="650" y="561" on="0"/>
        <pt x="649" y="616" on="1"/>
        <pt x="649" y="616" on="1"/>
        <pt x="644" y="634" on="0"/>
        <pt x="625" y="644" on="1"/>
        <pt x="625" y="644" on="1"/>
        <pt x="601" y="665" on="0"/>
        <pt x="576" y="678" on="1"/>
      </contour>
      <contour>
        <pt x="316" y="589" on="1"/>
        <pt x="289" y="591" on="1"/>
        <pt x="282" y="578" on="0"/>
        <pt x="302" y="560" on="0"/>
        <pt x="299" y="545" on="1"/>
        <pt x="299" y="545" on="1"/>
        <pt x="303" y="499" on="0"/>
        <pt x="281" y="467" on="1"/>
        <pt x="235" y="402" on="1"/>
        <pt x="221" y="378" on="0"/>
        <pt x="204" y="364" on="1"/>
        <pt x="204" y="364" on="1"/>
        <pt x="188" y="352" on="0"/>
        <pt x="197" y="338" on="1"/>
        <pt x="197" y="338" on="1"/>
        <pt x="200" y="308" on="0"/>
        <pt x="198" y="278" on="1"/>
        <pt x="198" y="278" on="1"/>
        <pt x="200" y="263" on="0"/>
        <pt x="211" y="252" on="1"/>
        <pt x="211" y="252" on="1"/>
        <pt x="218" y="226" on="0"/>
        <pt x="217" y="167" on="0"/>
        <pt x="243" y="147" on="1"/>
        <pt x="243" y="147" on="1"/>
        <pt x="264" y="145" on="0"/>
        <pt x="272" y="162" on="1"/>
        <pt x="272" y="162" on="1"/>
        <pt x="279" y="174" on="0"/>
        <pt x="289" y="203" on="0"/>
        <pt x="287" y="218" on="1"/>
        <pt x="287" y="218" on="1"/>
        <pt x="274" y="282" on="0"/>
        <pt x="227" y="330" on="1"/>
        <pt x="227" y="330" on="1"/>
        <pt x="228" y="356" on="0"/>
        <pt x="240" y="382" on="1"/>
        <pt x="240" y="382" on="1"/>
        <pt x="281" y="421" on="0"/>
        <pt x="325" y="458" on="1"/>
        <pt x="325" y="458" on="1"/>
        <pt x="369" y="469" on="0"/>
        <pt x="371" y="511" on="1"/>
        <pt x="371" y="511" on="1"/>
        <pt x="378" y="534" on="0"/>
        <pt x="363" y="554" on="1"/>
        <pt x="363" y="554" on="1"/>
        <pt x="342" y="573" on="0"/>
        <pt x="316" y="589" on="1"/>
      </contour>
      <contour>
        <pt x="371" y="271" on="1"/>
        <pt x="371" y="271" on="1"/>
        <pt x="381" y="269" on="0"/>
        <pt x="377" y="243" on="1"/>
        <pt x="377" y="243" on="1"/>
        <pt x="381" y="229" on="0"/>
        <pt x="357" y="211" on="0"/>
        <pt x="358" y="228" on="1"/>
        <pt x="358" y="228" on="1"/>
        <pt x="359" y="251" on="0"/>
      </contour>
    </TTGlyph>
    <TTGlyph name="uni76D6" xMin="0" yMin="-83" xMax="796" yMax="804">
      <contour>
        <pt x="581" y="804" on="1"/>
        <pt x="581" y="804" on="1"/>
        <pt x="558" y="781" on="0"/>
        <pt x="525" y="771" on="1"/>
        <pt x="525" y="771" on="1"/>
        <pt x="466" y="732" on="0"/>
        <pt x="404" y="703" on="1"/>
        <pt x="404" y="703" on="1"/>
        <pt x="395" y="703" on="0"/>
        <pt x="370" y="700" on="0"/>
        <pt x="369" y="715" on="1"/>
        <pt x="369" y="715" on="1"/>
        <pt x="361" y="746" on="0"/>
        <pt x="369" y="771" on="1"/>
        <pt x="369" y="771" on="1"/>
        <pt x="352" y="749" on="0"/>
        <pt x="325" y="727" on="1"/>
        <pt x="325" y="727" on="1"/>
        <pt x="306" y="691" on="0"/>
        <pt x="325" y="662" on="1"/>
        <pt x="325" y="662" on="1"/>
        <pt x="334" y="612" on="0"/>
        <pt x="381" y="620" on="1"/>
        <pt x="381" y="620" on="1"/>
        <pt x="400" y="633" on="0"/>
        <pt x="405" y="657" on="1"/>
        <pt x="405" y="657" on="1"/>
        <pt x="421" y="667" on="0"/>
        <pt x="438" y="676" on="1"/>
        <pt x="565" y="768" on="1"/>
        <pt x="578" y="767" on="0"/>
        <pt x="565" y="743" on="0"/>
        <pt x="562" y="734" on="1"/>
        <pt x="562" y="734" on="1"/>
        <pt x="533" y="691" on="0"/>
        <pt x="496" y="655" on="1"/>
        <pt x="496" y="655" on="1"/>
        <pt x="472" y="647" on="0"/>
        <pt x="457" y="625" on="1"/>
        <pt x="457" y="625" on="1"/>
        <pt x="428" y="595" on="0"/>
        <pt x="404" y="560" on="1"/>
        <pt x="404" y="560" on="1"/>
        <pt x="382" y="552" on="0"/>
        <pt x="366" y="530" on="1"/>
        <pt x="366" y="530" on="1"/>
        <pt x="363" y="525" on="0"/>
        <pt x="362" y="512" on="1"/>
        <pt x="362" y="512" on="1"/>
        <pt x="372" y="502" on="0"/>
        <pt x="397" y="511" on="0"/>
        <pt x="405" y="499" on="1"/>
        <pt x="405" y="499" on="1"/>
        <pt x="452" y="504" on="0"/>
        <pt x="474" y="550" on="1"/>
        <pt x="474" y="550" on="1"/>
        <pt x="480" y="542" on="0"/>
        <pt x="474" y="520" on="1"/>
        <pt x="474" y="520" on="1"/>
        <pt x="472" y="491" on="0"/>
        <pt x="464" y="465" on="1"/>
        <pt x="464" y="465" on="1"/>
        <pt x="428" y="454" on="0"/>
        <pt x="393" y="452" on="1"/>
        <pt x="393" y="452" on="1"/>
        <pt x="373" y="445" on="0"/>
        <pt x="352" y="450" on="1"/>
        <pt x="352" y="450" on="1"/>
        <pt x="376" y="424" on="0"/>
        <pt x="412" y="410" on="1"/>
        <pt x="412" y="410" on="1"/>
        <pt x="444" y="407" on="0"/>
        <pt x="461" y="387" on="1"/>
        <pt x="461" y="387" on="1"/>
        <pt x="470" y="358" on="0"/>
        <pt x="448" y="337" on="1"/>
        <pt x="405" y="298" on="1"/>
        <pt x="378" y="290" on="0"/>
        <pt x="371" y="259" on="1"/>
        <pt x="371" y="259" on="1"/>
        <pt x="367" y="249" on="0"/>
        <pt x="377" y="241" on="1"/>
        <pt x="377" y="241" on="1"/>
        <pt x="394" y="212" on="0"/>
        <pt x="422" y="232" on="1"/>
        <pt x="422" y="232" on="1"/>
        <pt x="443" y="236" on="0"/>
        <pt x="430" y="225" on="1"/>
        <pt x="430" y="225" on="1"/>
        <pt x="372" y="182" on="0"/>
        <pt x="318" y="136" on="1"/>
        <pt x="318" y="136" on="1"/>
        <pt x="294" y="122" on="0"/>
        <pt x="284" y="97" on="1"/>
        <pt x="284" y="97" on="1"/>
        <pt x="276" y="52" on="0"/>
        <pt x="306" y="21" on="1"/>
        <pt x="306" y="21" on="1"/>
        <pt x="333" y="8" on="0"/>
        <pt x="352" y="-12" on="1"/>
        <pt x="352" y="-12" on="1"/>
        <pt x="329" y="-28" on="0"/>
        <pt x="299" y="-34" on="1"/>
        <pt x="299" y="-34" on="1"/>
        <pt x="266" y="-37" on="0"/>
        <pt x="199" y="-53" on="0"/>
        <pt x="170" y="-35" on="1"/>
        <pt x="170" y="-35" on="1"/>
        <pt x="163" y="-31" on="0"/>
        <pt x="174" y="-47" on="1"/>
        <pt x="174" y="-47" on="1"/>
        <pt x="200" y="-70" on="0"/>
        <pt x="231" y="-83" on="1"/>
        <pt x="231" y="-83" on="1"/>
        <pt x="256" y="-76" on="0"/>
        <pt x="281" y="-67" on="1"/>
        <pt x="281" y="-67" on="1"/>
        <pt x="334" y="-74" on="0"/>
        <pt x="381" y="-60" on="1"/>
        <pt x="381" y="-60" on="1"/>
        <pt x="407" y="-56" on="0"/>
        <pt x="435" y="-61" on="1"/>
        <pt x="435" y="-61" on="1"/>
        <pt x="458" y="-52" on="0"/>
        <pt x="483" y="-57" on="1"/>
        <pt x="483" y="-57" on="1"/>
        <pt x="507" y="-50" on="0"/>
        <pt x="532" y="-45" on="1"/>
        <pt x="532" y="-45" on="1"/>
        <pt x="567" y="-45" on="0"/>
        <pt x="603" y="-41" on="1"/>
        <pt x="603" y="-41" on="1"/>
        <pt x="644" y="-37" on="0"/>
        <pt x="689" y="-41" on="1"/>
        <pt x="689" y="-41" on="1"/>
        <pt x="704" y="-44" on="0"/>
        <pt x="732" y="-45" on="1"/>
        <pt x="732" y="-45" on="1"/>
        <pt x="770" y="-54" on="0"/>
        <pt x="796" y="-28" on="1"/>
        <pt x="796" y="-28" on="1"/>
        <pt x="794" y="-6" on="0"/>
        <pt x="796" y="14" on="1"/>
        <pt x="796" y="14" on="1"/>
        <pt x="774" y="33" on="0"/>
        <pt x="744" y="38" on="1"/>
        <pt x="744" y="38" on="1"/>
        <pt x="737" y="47" on="0"/>
        <pt x="730" y="48" on="1"/>
        <pt x="730" y="48" on="1"/>
        <pt x="722" y="41" on="0"/>
        <pt x="703" y="54" on="0"/>
        <pt x="694" y="49" on="1"/>
        <pt x="694" y="49" on="1"/>
        <pt x="675" y="54" on="0"/>
        <pt x="661" y="48" on="1"/>
        <pt x="661" y="48" on="1"/>
        <pt x="637" y="40" on="0"/>
        <pt x="611" y="45" on="1"/>
        <pt x="611" y="45" on="1"/>
        <pt x="655" y="69" on="0"/>
        <pt x="698" y="87" on="1"/>
        <pt x="698" y="87" on="1"/>
        <pt x="725" y="108" on="0"/>
        <pt x="747" y="130" on="1"/>
        <pt x="747" y="130" on="1"/>
        <pt x="746" y="139" on="0"/>
        <pt x="762" y="146" on="0"/>
        <pt x="757" y="154" on="1"/>
        <pt x="757" y="154" on="1"/>
        <pt x="758" y="182" on="0"/>
        <pt x="734" y="199" on="1"/>
        <pt x="734" y="199" on="1"/>
        <pt x="711" y="212" on="0"/>
        <pt x="689" y="213" on="1"/>
        <pt x="689" y="213" on="1"/>
        <pt x="659" y="218" on="0"/>
        <pt x="625" y="211" on="1"/>
        <pt x="625" y="211" on="1"/>
        <pt x="532" y="192" on="0"/>
        <pt x="447" y="153" on="1"/>
        <pt x="399" y="140" on="1"/>
        <pt x="405" y="132" on="0"/>
        <pt x="430" y="133" on="0"/>
        <pt x="434" y="120" on="1"/>
        <pt x="434" y="120" on="1"/>
        <pt x="444" y="95" on="0"/>
        <pt x="455" y="37" on="0"/>
        <pt x="476" y="18" on="1"/>
        <pt x="476" y="18" on="1"/>
        <pt x="505" y="39" on="0"/>
        <pt x="491" y="78" on="1"/>
        <pt x="491" y="78" on="1"/>
        <pt x="491" y="114" on="0"/>
        <pt x="460" y="127" on="1"/>
        <pt x="460" y="127" on="1"/>
        <pt x="476" y="128" on="0"/>
        <pt x="496" y="130" on="1"/>
        <pt x="496" y="130" on="1"/>
        <pt x="507" y="126" on="0"/>
        <pt x="537" y="123" on="0"/>
        <pt x="530" y="108" on="1"/>
        <pt x="530" y="108" on="1"/>
        <pt x="526" y="77" on="0"/>
        <pt x="498" y="15" on="0"/>
        <pt x="464" y="8" on="1"/>
        <pt x="464" y="8" on="1"/>
        <pt x="438" y="-6" on="0"/>
        <pt x="430" y="14" on="1"/>
        <pt x="430" y="14" on="1"/>
        <pt x="391" y="50" on="0"/>
        <pt x="352" y="85" on="1"/>
        <pt x="352" y="85" on="1"/>
        <pt x="326" y="86" on="0"/>
        <pt x="340" y="106" on="1"/>
        <pt x="340" y="106" on="1"/>
        <pt x="353" y="133" on="0"/>
        <pt x="378" y="147" on="1"/>
        <pt x="378" y="147" on="1"/>
        <pt x="402" y="156" on="0"/>
        <pt x="422" y="169" on="1"/>
        <pt x="422" y="169" on="1"/>
        <pt x="480" y="207" on="0"/>
        <pt x="540" y="229" on="1"/>
        <pt x="540" y="229" on="1"/>
        <pt x="563" y="237" on="0"/>
        <pt x="589" y="243" on="1"/>
        <pt x="589" y="243" on="1"/>
        <pt x="610" y="254" on="0"/>
        <pt x="627" y="270" on="1"/>
        <pt x="627" y="270" on="1"/>
        <pt x="630" y="294" on="0"/>
        <pt x="608" y="298" on="1"/>
        <pt x="608" y="298" on="1"/>
        <pt x="583" y="302" on="0"/>
        <pt x="559" y="301" on="1"/>
        <pt x="559" y="301" on="1"/>
        <pt x="550" y="306" on="0"/>
        <pt x="520" y="305" on="0"/>
        <pt x="523" y="323" on="1"/>
        <pt x="523" y="323" on="1"/>
        <pt x="539" y="360" on="0"/>
        <pt x="573" y="387" on="1"/>
        <pt x="600" y="413" on="1"/>
        <pt x="609" y="432" on="0"/>
        <pt x="589" y="440" on="1"/>
        <pt x="589" y="440" on="1"/>
        <pt x="572" y="450" on="0"/>
        <pt x="552" y="452" on="1"/>
        <pt x="552" y="452" on="1"/>
        <pt x="529" y="464" on="0"/>
        <pt x="532" y="492" on="1"/>
        <pt x="532" y="492" on="1"/>
        <pt x="540" y="537" on="0"/>
        <pt x="559" y="576" on="1"/>
        <pt x="559" y="576" on="1"/>
        <pt x="567" y="590" on="0"/>
        <pt x="569" y="609" on="1"/>
        <pt x="569" y="609" on="1"/>
        <pt x="568" y="631" on="0"/>
        <pt x="557" y="657" on="1"/>
        <pt x="557" y="657" on="1"/>
        <pt x="631" y="697" on="0"/>
        <pt x="668" y="767" on="1"/>
        <pt x="668" y="767" on="1"/>
        <pt x="655" y="789" on="0"/>
        <pt x="632" y="788" on="1"/>
        <pt x="632" y="788" on="1"/>
        <pt x="624" y="796" on="0"/>
        <pt x="603" y="790" on="0"/>
        <pt x="599" y="804" on="1"/>
        <pt x="599" y="804" on="1"/>
        <pt x="591" y="799" on="0"/>
      </contour>
      <contour>
        <pt x="369" y="530" on="1"/>
        <pt x="369" y="530" on="1"/>
        <pt x="390" y="537" on="0"/>
        <pt x="381" y="520" on="1"/>
        <pt x="381" y="520" on="1"/>
        <pt x="366" y="514" on="0"/>
      </contour>
      <contour>
        <pt x="467" y="294" on="1"/>
        <pt x="467" y="294" on="1"/>
        <pt x="477" y="301" on="0"/>
        <pt x="477" y="280" on="0"/>
        <pt x="467" y="281" on="1"/>
        <pt x="467" y="281" on="1"/>
        <pt x="449" y="271" on="0"/>
        <pt x="442" y="278" on="1"/>
        <pt x="442" y="278" on="1"/>
        <pt x="453" y="292" on="0"/>
      </contour>
      <contour>
        <pt x="649" y="187" on="1"/>
        <pt x="649" y="187" on="1"/>
        <pt x="685" y="195" on="0"/>
        <pt x="681" y="162" on="1"/>
        <pt x="681" y="162" on="1"/>
        <pt x="660" y="128" on="0"/>
        <pt x="625" y="104" on="1"/>
        <pt x="625" y="104" on="1"/>
        <pt x="605" y="87" on="0"/>
        <pt x="584" y="77" on="1"/>
        <pt x="584" y="77" on="1"/>
        <pt x="586" y="96" on="0"/>
        <pt x="592" y="119" on="1"/>
        <pt x="592" y="119" on="1"/>
        <pt x="608" y="143" on="0"/>
        <pt x="593" y="165" on="1"/>
        <pt x="593" y="165" on="1"/>
        <pt x="615" y="186" on="0"/>
      </contour>
      <contour>
        <pt x="562" y="36" on="1"/>
        <pt x="565" y="36" on="1"/>
        <pt x="572" y="41" on="0"/>
        <pt x="581" y="30" on="0"/>
        <pt x="569" y="31" on="1"/>
        <pt x="569" y="31" on="1"/>
        <pt x="545" y="25" on="0"/>
        <pt x="562" y="36" on="1"/>
      </contour>
    </TTGlyph>
    <TTGlyph name="uni78" xMin="0" yMin="0" xMax="408" yMax="457">
      <contour>
        <pt x="261" y="170" on="1"/>
        <pt x="227" y="203" on="1"/>
        <pt x="158" y="117" on="1"/>
        <pt x="139" y="105" on="1"/>
        <pt x="130" y="97" on="0"/>
        <pt x="122" y="88" on="1"/>
        <pt x="122" y="88" on="1"/>
        <pt x="113" y="77" on="0"/>
        <pt x="99" y="56" on="0"/>
        <pt x="98" y="47" on="1"/>
        <pt x="57" y="47" on="1"/>
        <pt x="56" y="50" on="0"/>
        <pt x="55" y="60" on="1"/>
        <pt x="53" y="74" on="1"/>
        <pt x="53" y="75" on="0"/>
        <pt x="52" y="77" on="1"/>
        <pt x="49" y="83" on="1"/>
        <pt x="49" y="85" on="1"/>
        <pt x="53" y="90" on="1"/>
        <pt x="56" y="93" on="0"/>
        <pt x="60" y="96" on="1"/>
        <pt x="60" y="96" on="1"/>
        <pt x="60" y="98" on="0"/>
        <pt x="62" y="101" on="1"/>
        <pt x="64" y="106" on="1"/>
        <pt x="65" y="108" on="0"/>
        <pt x="70" y="110" on="1"/>
        <pt x="70" y="110" on="1"/>
        <pt x="71" y="110" on="0"/>
        <pt x="76" y="107" on="1"/>
        <pt x="76" y="111" on="1"/>
        <pt x="76" y="112" on="0"/>
        <pt x="78" y="117" on="1"/>
        <pt x="78" y="117" on="1"/>
        <pt x="82" y="120" on="0"/>
        <pt x="89" y="131" on="0"/>
        <pt x="94" y="137" on="1"/>
        <pt x="101" y="146" on="1"/>
        <pt x="101" y="147" on="0"/>
        <pt x="105" y="151" on="0"/>
        <pt x="111" y="154" on="1"/>
        <pt x="111" y="154" on="1"/>
        <pt x="128" y="176" on="0"/>
        <pt x="147" y="202" on="1"/>
        <pt x="182" y="251" on="1"/>
        <pt x="185" y="255" on="0"/>
        <pt x="185" y="259" on="1"/>
        <pt x="185" y="262" on="1"/>
        <pt x="149" y="319" on="1"/>
        <pt x="111" y="376" on="1"/>
        <pt x="100" y="375" on="0"/>
        <pt x="97" y="383" on="1"/>
        <pt x="97" y="383" on="1"/>
        <pt x="94" y="389" on="0"/>
        <pt x="94" y="396" on="1"/>
        <pt x="94" y="396" on="1"/>
        <pt x="94" y="401" on="0"/>
        <pt x="100" y="424" on="0"/>
        <pt x="120" y="424" on="0"/>
        <pt x="141" y="409" on="0"/>
        <pt x="147" y="400" on="1"/>
        <pt x="147" y="400" on="1"/>
        <pt x="165" y="378" on="0"/>
        <pt x="203" y="328" on="0"/>
        <pt x="222" y="306" on="1"/>
        <pt x="224" y="308" on="1"/>
        <pt x="261" y="360" on="1"/>
        <pt x="281" y="386" on="0"/>
        <pt x="298" y="412" on="1"/>
        <pt x="298" y="412" on="1"/>
        <pt x="301" y="417" on="0"/>
        <pt x="303" y="429" on="1"/>
        <pt x="303" y="429" on="1"/>
        <pt x="303" y="439" on="0"/>
        <pt x="309" y="455" on="0"/>
        <pt x="320" y="457" on="1"/>
        <pt x="320" y="457" on="1"/>
        <pt x="325" y="457" on="0"/>
        <pt x="339" y="454" on="0"/>
        <pt x="353" y="448" on="0"/>
        <pt x="363" y="437" on="0"/>
        <pt x="363" y="429" on="1"/>
        <pt x="353" y="399" on="1"/>
        <pt x="351" y="394" on="0"/>
        <pt x="350" y="393" on="1"/>
        <pt x="350" y="393" on="1"/>
        <pt x="349" y="389" on="0"/>
        <pt x="345" y="381" on="1"/>
        <pt x="335" y="362" on="1"/>
        <pt x="330" y="352" on="0"/>
        <pt x="325" y="344" on="1"/>
        <pt x="325" y="344" on="1"/>
        <pt x="320" y="334" on="0"/>
        <pt x="318" y="331" on="1"/>
        <pt x="309" y="319" on="1"/>
        <pt x="303" y="310" on="0"/>
        <pt x="296" y="302" on="1"/>
        <pt x="296" y="302" on="1"/>
        <pt x="292" y="297" on="0"/>
        <pt x="288" y="293" on="1"/>
        <pt x="288" y="293" on="1"/>
        <pt x="286" y="287" on="0"/>
        <pt x="285" y="286" on="1"/>
        <pt x="265" y="255" on="1"/>
        <pt x="265" y="250" on="1"/>
        <pt x="370" y="128" on="1"/>
        <pt x="375" y="122" on="0"/>
        <pt x="388" y="102" on="0"/>
        <pt x="400" y="80" on="0"/>
        <pt x="408" y="57" on="0"/>
        <pt x="408" y="48" on="1"/>
        <pt x="408" y="48" on="1"/>
        <pt x="408" y="41" on="0"/>
        <pt x="405" y="26" on="0"/>
        <pt x="397" y="22" on="1"/>
        <pt x="397" y="22" on="1"/>
        <pt x="388" y="23" on="0"/>
        <pt x="371" y="33" on="0"/>
        <pt x="355" y="46" on="0"/>
        <pt x="343" y="59" on="0"/>
        <pt x="341" y="62" on="1"/>
      </contour>
    </TTGlyph>
    <TTGlyph name="uni7B80" xMin="0" yMin="-74" xMax="817" yMax="801">
      <contour>
        <pt x="566" y="800" on="1"/>
        <pt x="566" y="800" on="1"/>
        <pt x="554" y="789" on="0"/>
        <pt x="518" y="783" on="0"/>
        <pt x="510" y="768" on="1"/>
        <pt x="510" y="768" on="1"/>
        <pt x="486" y="728" on="0"/>
        <pt x="467" y="686" on="1"/>
        <pt x="467" y="686" on="1"/>
        <pt x="452" y="649" on="0"/>
        <pt x="393" y="582" on="0"/>
        <pt x="349" y="579" on="1"/>
        <pt x="349" y="579" on="1"/>
        <pt x="311" y="568" on="0"/>
        <pt x="270" y="574" on="1"/>
        <pt x="270" y="574" on="1"/>
        <pt x="291" y="624" on="0"/>
        <pt x="300" y="675" on="1"/>
        <pt x="300" y="675" on="1"/>
        <pt x="310" y="699" on="0"/>
        <pt x="296" y="682" on="1"/>
        <pt x="296" y="682" on="1"/>
        <pt x="242" y="657" on="0"/>
        <pt x="202" y="607" on="1"/>
        <pt x="202" y="607" on="1"/>
        <pt x="182" y="577" on="0"/>
        <pt x="158" y="555" on="1"/>
        <pt x="158" y="555" on="1"/>
        <pt x="164" y="535" on="0"/>
        <pt x="165" y="515" on="1"/>
        <pt x="165" y="515" on="1"/>
        <pt x="161" y="503" on="0"/>
        <pt x="172" y="499" on="1"/>
        <pt x="172" y="499" on="1"/>
        <pt x="183" y="462" on="0"/>
        <pt x="207" y="489" on="1"/>
        <pt x="207" y="489" on="1"/>
        <pt x="226" y="499" on="0"/>
        <pt x="240" y="515" on="1"/>
        <pt x="240" y="515" on="1"/>
        <pt x="301" y="520" on="0"/>
        <pt x="366" y="514" on="1"/>
        <pt x="366" y="514" on="1"/>
        <pt x="359" y="502" on="0"/>
        <pt x="371" y="508" on="1"/>
        <pt x="371" y="508" on="1"/>
        <pt x="415" y="512" on="0"/>
        <pt x="439" y="466" on="1"/>
        <pt x="439" y="466" on="1"/>
        <pt x="437" y="458" on="0"/>
        <pt x="422" y="446" on="0"/>
        <pt x="438" y="446" on="1"/>
        <pt x="438" y="446" on="1"/>
        <pt x="450" y="444" on="0"/>
        <pt x="468" y="424" on="0"/>
        <pt x="480" y="431" on="1"/>
        <pt x="480" y="431" on="1"/>
        <pt x="487" y="427" on="0"/>
        <pt x="466" y="416" on="0"/>
        <pt x="464" y="409" on="1"/>
        <pt x="464" y="409" on="1"/>
        <pt x="471" y="409" on="0"/>
        <pt x="491" y="420" on="1"/>
        <pt x="491" y="420" on="1"/>
        <pt x="516" y="420" on="0"/>
        <pt x="543" y="425" on="1"/>
        <pt x="543" y="425" on="1"/>
        <pt x="579" y="463" on="0"/>
        <pt x="628" y="466" on="1"/>
        <pt x="628" y="466" on="1"/>
        <pt x="652" y="460" on="0"/>
        <pt x="664" y="439" on="1"/>
        <pt x="664" y="439" on="1"/>
        <pt x="676" y="404" on="0"/>
        <pt x="671" y="364" on="1"/>
        <pt x="671" y="364" on="1"/>
        <pt x="671" y="316" on="0"/>
        <pt x="674" y="259" on="1"/>
        <pt x="674" y="259" on="1"/>
        <pt x="674" y="158" on="0"/>
        <pt x="681" y="61" on="1"/>
        <pt x="681" y="61" on="1"/>
        <pt x="663" y="48" on="0"/>
        <pt x="648" y="64" on="1"/>
        <pt x="648" y="64" on="1"/>
        <pt x="605" y="92" on="0"/>
        <pt x="614" y="129" on="1"/>
        <pt x="614" y="129" on="1"/>
        <pt x="616" y="179" on="0"/>
        <pt x="600" y="273" on="0"/>
        <pt x="606" y="323" on="1"/>
        <pt x="598" y="358" on="1"/>
        <pt x="593" y="376" on="0"/>
        <pt x="573" y="379" on="1"/>
        <pt x="573" y="379" on="1"/>
        <pt x="557" y="383" on="0"/>
        <pt x="539" y="372" on="1"/>
        <pt x="539" y="372" on="1"/>
        <pt x="507" y="362" on="0"/>
        <pt x="483" y="343" on="1"/>
        <pt x="483" y="343" on="1"/>
        <pt x="458" y="329" on="0"/>
        <pt x="452" y="304" on="1"/>
        <pt x="452" y="304" on="1"/>
        <pt x="448" y="284" on="0"/>
        <pt x="431" y="289" on="1"/>
        <pt x="431" y="289" on="1"/>
        <pt x="426" y="285" on="0"/>
        <pt x="417" y="303" on="0"/>
        <pt x="415" y="294" on="1"/>
        <pt x="415" y="294" on="1"/>
        <pt x="401" y="259" on="0"/>
        <pt x="411" y="225" on="1"/>
        <pt x="411" y="225" on="1"/>
        <pt x="412" y="176" on="0"/>
        <pt x="454" y="162" on="1"/>
        <pt x="454" y="162" on="1"/>
        <pt x="464" y="171" on="0"/>
        <pt x="468" y="186" on="1"/>
        <pt x="468" y="186" on="1"/>
        <pt x="481" y="204" on="0"/>
        <pt x="491" y="184" on="1"/>
        <pt x="491" y="184" on="1"/>
        <pt x="503" y="158" on="0"/>
        <pt x="501" y="137" on="1"/>
        <pt x="501" y="137" on="1"/>
        <pt x="487" y="111" on="0"/>
        <pt x="510" y="113" on="1"/>
        <pt x="510" y="113" on="1"/>
        <pt x="522" y="119" on="0"/>
        <pt x="551" y="137" on="0"/>
        <pt x="565" y="124" on="1"/>
        <pt x="565" y="124" on="1"/>
        <pt x="589" y="112" on="0"/>
        <pt x="603" y="95" on="1"/>
        <pt x="603" y="95" on="1"/>
        <pt x="606" y="72" on="0"/>
        <pt x="606" y="49" on="1"/>
        <pt x="606" y="49" on="1"/>
        <pt x="594" y="44" on="0"/>
        <pt x="595" y="32" on="1"/>
        <pt x="595" y="32" on="1"/>
        <pt x="577" y="19" on="0"/>
        <pt x="573" y="-2" on="1"/>
        <pt x="573" y="-2" on="1"/>
        <pt x="558" y="-9" on="0"/>
        <pt x="566" y="-21" on="1"/>
        <pt x="566" y="-21" on="1"/>
        <pt x="612" y="-37" on="0"/>
        <pt x="697" y="-71" on="0"/>
        <pt x="741" y="-74" on="1"/>
        <pt x="764" y="-26" on="1"/>
        <pt x="765" y="13" on="0"/>
        <pt x="753" y="51" on="1"/>
        <pt x="753" y="51" on="1"/>
        <pt x="728" y="151" on="0"/>
        <pt x="727" y="262" on="1"/>
        <pt x="727" y="320" on="1"/>
        <pt x="737" y="375" on="0"/>
        <pt x="726" y="425" on="1"/>
        <pt x="726" y="425" on="1"/>
        <pt x="712" y="440" on="0"/>
        <pt x="711" y="459" on="1"/>
        <pt x="711" y="459" on="1"/>
        <pt x="697" y="486" on="0"/>
        <pt x="670" y="496" on="1"/>
        <pt x="670" y="496" on="1"/>
        <pt x="640" y="515" on="0"/>
        <pt x="606" y="508" on="1"/>
        <pt x="606" y="508" on="1"/>
        <pt x="559" y="491" on="0"/>
        <pt x="517" y="458" on="1"/>
        <pt x="517" y="458" on="1"/>
        <pt x="521" y="475" on="0"/>
        <pt x="510" y="495" on="1"/>
        <pt x="510" y="495" on="1"/>
        <pt x="494" y="521" on="0"/>
        <pt x="461" y="528" on="1"/>
        <pt x="461" y="528" on="1"/>
        <pt x="504" y="546" on="0"/>
        <pt x="555" y="541" on="1"/>
        <pt x="555" y="541" on="1"/>
        <pt x="577" y="553" on="0"/>
        <pt x="600" y="545" on="1"/>
        <pt x="600" y="545" on="1"/>
        <pt x="644" y="562" on="0"/>
        <pt x="684" y="586" on="1"/>
        <pt x="684" y="586" on="1"/>
        <pt x="719" y="601" on="0"/>
        <pt x="750" y="619" on="1"/>
        <pt x="750" y="619" on="1"/>
        <pt x="774" y="642" on="0"/>
        <pt x="797" y="663" on="1"/>
        <pt x="797" y="663" on="1"/>
        <pt x="817" y="668" on="0"/>
        <pt x="797" y="707" on="0"/>
        <pt x="779" y="712" on="1"/>
        <pt x="779" y="712" on="1"/>
        <pt x="755" y="712" on="0"/>
        <pt x="734" y="727" on="1"/>
        <pt x="734" y="727" on="1"/>
        <pt x="729" y="720" on="0"/>
        <pt x="714" y="732" on="0"/>
        <pt x="707" y="724" on="1"/>
        <pt x="707" y="724" on="1"/>
        <pt x="684" y="713" on="0"/>
        <pt x="659" y="719" on="1"/>
        <pt x="659" y="719" on="1"/>
        <pt x="660" y="740" on="0"/>
        <pt x="660" y="787" on="0"/>
        <pt x="635" y="791" on="1"/>
        <pt x="635" y="791" on="1"/>
        <pt x="604" y="801" on="0"/>
      </contour>
      <contour>
        <pt x="573" y="768" on="1"/>
        <pt x="573" y="768" on="1"/>
        <pt x="595" y="766" on="0"/>
        <pt x="596" y="741" on="1"/>
        <pt x="596" y="741" on="1"/>
        <pt x="599" y="688" on="0"/>
        <pt x="644" y="657" on="1"/>
        <pt x="644" y="657" on="1"/>
        <pt x="653" y="642" on="0"/>
        <pt x="664" y="657" on="1"/>
        <pt x="664" y="657" on="1"/>
        <pt x="690" y="665" on="0"/>
        <pt x="677" y="650" on="1"/>
        <pt x="677" y="650" on="1"/>
        <pt x="631" y="616" on="0"/>
        <pt x="581" y="581" on="1"/>
        <pt x="581" y="581" on="1"/>
        <pt x="516" y="553" on="0"/>
        <pt x="445" y="530" on="1"/>
        <pt x="445" y="530" on="1"/>
        <pt x="466" y="530" on="0"/>
        <pt x="447" y="525" on="1"/>
        <pt x="428" y="527" on="1"/>
        <pt x="416" y="528" on="0"/>
        <pt x="427" y="537" on="1"/>
        <pt x="427" y="537" on="1"/>
        <pt x="471" y="562" on="0"/>
        <pt x="483" y="609" on="1"/>
        <pt x="501" y="665" on="1"/>
        <pt x="506" y="707" on="0"/>
        <pt x="523" y="744" on="1"/>
        <pt x="523" y="744" on="1"/>
        <pt x="538" y="769" on="0"/>
      </contour>
      <contour>
        <pt x="544" y="340" on="1"/>
        <pt x="544" y="340" on="1"/>
        <pt x="562" y="335" on="0"/>
        <pt x="557" y="308" on="1"/>
        <pt x="557" y="308" on="1"/>
        <pt x="562" y="279" on="0"/>
        <pt x="557" y="249" on="1"/>
        <pt x="557" y="249" on="1"/>
        <pt x="547" y="269" on="0"/>
        <pt x="505" y="272" on="0"/>
        <pt x="487" y="278" on="1"/>
        <pt x="487" y="278" on="1"/>
        <pt x="460" y="275" on="0"/>
        <pt x="468" y="298" on="1"/>
        <pt x="468" y="298" on="1"/>
        <pt x="469" y="327" on="0"/>
        <pt x="496" y="326" on="1"/>
        <pt x="496" y="326" on="1"/>
        <pt x="519" y="314" on="0"/>
      </contour>
      <contour>
        <pt x="281" y="331" on="1"/>
        <pt x="281" y="331" on="1"/>
        <pt x="258" y="330" on="0"/>
        <pt x="270" y="315" on="1"/>
        <pt x="270" y="315" on="1"/>
        <pt x="284" y="275" on="0"/>
        <pt x="273" y="226" on="1"/>
        <pt x="273" y="226" on="1"/>
        <pt x="267" y="178" on="0"/>
        <pt x="254" y="129" on="1"/>
        <pt x="266" y="76" on="1"/>
        <pt x="273" y="45" on="0"/>
        <pt x="296" y="35" on="1"/>
        <pt x="296" y="35" on="1"/>
        <pt x="301" y="24" on="0"/>
        <pt x="309" y="34" on="1"/>
        <pt x="322" y="51" on="1"/>
        <pt x="340" y="79" on="0"/>
        <pt x="340" y="151" on="0"/>
        <pt x="345" y="181" on="1"/>
        <pt x="345" y="181" on="1"/>
        <pt x="344" y="208" on="0"/>
        <pt x="345" y="242" on="1"/>
        <pt x="345" y="242" on="1"/>
        <pt x="348" y="264" on="0"/>
        <pt x="345" y="312" on="0"/>
        <pt x="319" y="315" on="1"/>
        <pt x="319" y="315" on="1"/>
        <pt x="308" y="316" on="0"/>
        <pt x="299" y="323" on="1"/>
        <pt x="299" y="323" on="1"/>
        <pt x="292" y="332" on="0"/>
      </contour>
      <contour>
        <pt x="487" y="245" on="1"/>
        <pt x="487" y="245" on="1"/>
        <pt x="502" y="239" on="0"/>
        <pt x="513" y="222" on="1"/>
        <pt x="513" y="222" on="1"/>
        <pt x="533" y="206" on="0"/>
        <pt x="562" y="208" on="1"/>
        <pt x="562" y="208" on="1"/>
        <pt x="540" y="179" on="0"/>
        <pt x="513" y="193" on="1"/>
        <pt x="513" y="193" on="1"/>
        <pt x="482" y="210" on="0"/>
      </contour>
    </TTGlyph>
    <TTGlyph name="uni7CBE" xMin="0" yMin="-59" xMax="875" yMax="778">
      <contour>
        <pt x="618" y="778" on="1"/>
        <pt x="618" y="778" on="1"/>
        <pt x="603" y="765" on="0"/>
        <pt x="593" y="767" on="1"/>
        <pt x="593" y="767" on="1"/>
        <pt x="623" y="756" on="0"/>
        <pt x="622" y="722" on="1"/>
        <pt x="622" y="722" on="1"/>
        <pt x="622" y="693" on="0"/>
        <pt x="618" y="665" on="1"/>
        <pt x="618" y="665" on="1"/>
        <pt x="575" y="643" on="0"/>
        <pt x="532" y="623" on="1"/>
        <pt x="532" y="623" on="1"/>
        <pt x="523" y="619" on="0"/>
        <pt x="556" y="616" on="0"/>
        <pt x="565" y="613" on="1"/>
        <pt x="565" y="613" on="1"/>
        <pt x="589" y="608" on="0"/>
        <pt x="614" y="598" on="1"/>
        <pt x="614" y="598" on="1"/>
        <pt x="622" y="577" on="0"/>
        <pt x="615" y="557" on="1"/>
        <pt x="615" y="557" on="1"/>
        <pt x="569" y="551" on="0"/>
        <pt x="536" y="568" on="1"/>
        <pt x="536" y="568" on="1"/>
        <pt x="545" y="530" on="0"/>
        <pt x="585" y="520" on="1"/>
        <pt x="585" y="520" on="1"/>
        <pt x="612" y="520" on="0"/>
        <pt x="627" y="507" on="1"/>
        <pt x="627" y="507" on="1"/>
        <pt x="626" y="480" on="0"/>
        <pt x="596" y="469" on="1"/>
        <pt x="596" y="469" on="1"/>
        <pt x="516" y="401" on="0"/>
        <pt x="430" y="343" on="1"/>
        <pt x="430" y="343" on="1"/>
        <pt x="434" y="361" on="0"/>
        <pt x="442" y="383" on="1"/>
        <pt x="442" y="383" on="1"/>
        <pt x="453" y="404" on="0"/>
        <pt x="454" y="418" on="1"/>
        <pt x="461" y="458" on="1"/>
        <pt x="467" y="485" on="0"/>
        <pt x="487" y="504" on="1"/>
        <pt x="487" y="504" on="1"/>
        <pt x="494" y="514" on="0"/>
        <pt x="516" y="538" on="0"/>
        <pt x="498" y="545" on="1"/>
        <pt x="498" y="545" on="1"/>
        <pt x="485" y="558" on="0"/>
        <pt x="468" y="557" on="1"/>
        <pt x="468" y="557" on="1"/>
        <pt x="463" y="569" on="0"/>
        <pt x="447" y="568" on="1"/>
        <pt x="447" y="568" on="1"/>
        <pt x="437" y="573" on="0"/>
        <pt x="418" y="556" on="0"/>
        <pt x="405" y="560" on="1"/>
        <pt x="405" y="560" on="1"/>
        <pt x="381" y="555" on="0"/>
        <pt x="359" y="542" on="1"/>
        <pt x="359" y="542" on="1"/>
        <pt x="355" y="554" on="0"/>
        <pt x="377" y="564" on="0"/>
        <pt x="374" y="576" on="1"/>
        <pt x="374" y="576" on="1"/>
        <pt x="385" y="594" on="0"/>
        <pt x="377" y="613" on="1"/>
        <pt x="377" y="613" on="1"/>
        <pt x="390" y="624" on="0"/>
        <pt x="385" y="636" on="1"/>
        <pt x="385" y="636" on="1"/>
        <pt x="347" y="643" on="0"/>
        <pt x="310" y="657" on="1"/>
        <pt x="310" y="657" on="1"/>
        <pt x="298" y="641" on="0"/>
        <pt x="279" y="647" on="1"/>
        <pt x="279" y="647" on="1"/>
        <pt x="272" y="651" on="0"/>
        <pt x="287" y="634" on="0"/>
        <pt x="287" y="632" on="1"/>
        <pt x="287" y="632" on="1"/>
        <pt x="314" y="627" on="0"/>
        <pt x="316" y="603" on="1"/>
        <pt x="316" y="603" on="1"/>
        <pt x="313" y="559" on="0"/>
        <pt x="306" y="518" on="1"/>
        <pt x="227" y="485" on="1"/>
        <pt x="214" y="508" on="0"/>
        <pt x="215" y="533" on="1"/>
        <pt x="215" y="533" on="1"/>
        <pt x="192" y="512" on="0"/>
        <pt x="177" y="484" on="1"/>
        <pt x="177" y="484" on="1"/>
        <pt x="168" y="481" on="0"/>
        <pt x="167" y="474" on="1"/>
        <pt x="167" y="474" on="1"/>
        <pt x="179" y="457" on="0"/>
        <pt x="179" y="413" on="0"/>
        <pt x="201" y="403" on="1"/>
        <pt x="201" y="403" on="1"/>
        <pt x="218" y="401" on="0"/>
        <pt x="234" y="413" on="1"/>
        <pt x="261" y="443" on="1"/>
        <pt x="279" y="465" on="0"/>
        <pt x="302" y="478" on="1"/>
        <pt x="302" y="478" on="1"/>
        <pt x="301" y="449" on="0"/>
        <pt x="302" y="416" on="1"/>
        <pt x="302" y="416" on="1"/>
        <pt x="293" y="397" on="0"/>
        <pt x="274" y="382" on="1"/>
        <pt x="274" y="382" on="1"/>
        <pt x="217" y="327" on="0"/>
        <pt x="156" y="278" on="1"/>
        <pt x="156" y="278" on="1"/>
        <pt x="144" y="272" on="0"/>
        <pt x="125" y="259" on="1"/>
        <pt x="125" y="259" on="1"/>
        <pt x="113" y="247" on="0"/>
        <pt x="96" y="245" on="1"/>
        <pt x="96" y="245" on="1"/>
        <pt x="85" y="233" on="0"/>
        <pt x="95" y="222" on="1"/>
        <pt x="95" y="222" on="1"/>
        <pt x="85" y="202" on="0"/>
        <pt x="92" y="173" on="1"/>
        <pt x="92" y="173" on="1"/>
        <pt x="112" y="163" on="0"/>
        <pt x="122" y="184" on="1"/>
        <pt x="122" y="184" on="1"/>
        <pt x="177" y="236" on="0"/>
        <pt x="240" y="277" on="1"/>
        <pt x="240" y="277" on="1"/>
        <pt x="266" y="296" on="0"/>
        <pt x="291" y="301" on="1"/>
        <pt x="291" y="301" on="1"/>
        <pt x="291" y="273" on="0"/>
        <pt x="272" y="252" on="1"/>
        <pt x="272" y="252" on="1"/>
        <pt x="246" y="200" on="0"/>
        <pt x="204" y="167" on="1"/>
        <pt x="204" y="167" on="1"/>
        <pt x="192" y="158" on="0"/>
        <pt x="204" y="150" on="1"/>
        <pt x="204" y="150" on="1"/>
        <pt x="191" y="117" on="0"/>
        <pt x="198" y="91" on="1"/>
        <pt x="198" y="91" on="1"/>
        <pt x="225" y="98" on="0"/>
        <pt x="243" y="127" on="1"/>
        <pt x="243" y="127" on="1"/>
        <pt x="256" y="147" on="0"/>
        <pt x="274" y="162" on="1"/>
        <pt x="274" y="162" on="1"/>
        <pt x="279" y="152" on="0"/>
        <pt x="269" y="134" on="0"/>
        <pt x="279" y="126" on="1"/>
        <pt x="279" y="126" on="1"/>
        <pt x="286" y="89" on="0"/>
        <pt x="318" y="71" on="1"/>
        <pt x="318" y="71" on="1"/>
        <pt x="325" y="74" on="0"/>
        <pt x="345" y="70" on="0"/>
        <pt x="343" y="85" on="1"/>
        <pt x="340" y="192" on="1"/>
        <pt x="337" y="223" on="0"/>
        <pt x="359" y="248" on="1"/>
        <pt x="404" y="305" on="1"/>
        <pt x="405" y="296" on="0"/>
        <pt x="399" y="272" on="0"/>
        <pt x="415" y="271" on="1"/>
        <pt x="415" y="271" on="1"/>
        <pt x="472" y="312" on="0"/>
        <pt x="532" y="343" on="1"/>
        <pt x="532" y="343" on="1"/>
        <pt x="588" y="373" on="0"/>
        <pt x="648" y="394" on="1"/>
        <pt x="648" y="394" on="1"/>
        <pt x="637" y="378" on="0"/>
        <pt x="622" y="360" on="1"/>
        <pt x="622" y="360" on="1"/>
        <pt x="582" y="292" on="0"/>
        <pt x="562" y="218" on="1"/>
        <pt x="562" y="218" on="1"/>
        <pt x="551" y="183" on="0"/>
        <pt x="548" y="102" on="0"/>
        <pt x="573" y="74" on="1"/>
        <pt x="573" y="74" on="1"/>
        <pt x="600" y="69" on="0"/>
        <pt x="600" y="101" on="1"/>
        <pt x="600" y="101" on="1"/>
        <pt x="612" y="160" on="0"/>
        <pt x="608" y="222" on="1"/>
        <pt x="608" y="222" on="1"/>
        <pt x="606" y="244" on="0"/>
        <pt x="615" y="264" on="1"/>
        <pt x="615" y="264" on="1"/>
        <pt x="631" y="262" on="0"/>
        <pt x="648" y="255" on="1"/>
        <pt x="648" y="255" on="1"/>
        <pt x="654" y="240" on="0"/>
        <pt x="641" y="221" on="1"/>
        <pt x="641" y="221" on="1"/>
        <pt x="624" y="189" on="0"/>
        <pt x="618" y="153" on="1"/>
        <pt x="618" y="153" on="1"/>
        <pt x="633" y="125" on="0"/>
        <pt x="638" y="90" on="1"/>
        <pt x="638" y="90" on="1"/>
        <pt x="648" y="61" on="0"/>
        <pt x="642" y="36" on="1"/>
        <pt x="642" y="36" on="1"/>
        <pt x="634" y="20" on="0"/>
        <pt x="660" y="-6" on="0"/>
        <pt x="657" y="-26" on="1"/>
        <pt x="657" y="-26" on="1"/>
        <pt x="664" y="-46" on="0"/>
        <pt x="689" y="-50" on="1"/>
        <pt x="689" y="-50" on="1"/>
        <pt x="719" y="-57" on="0"/>
        <pt x="751" y="-57" on="1"/>
        <pt x="751" y="-57" on="1"/>
        <pt x="777" y="-59" on="0"/>
        <pt x="800" y="-54" on="1"/>
        <pt x="800" y="-54" on="1"/>
        <pt x="816" y="-30" on="0"/>
        <pt x="810" y="-1" on="1"/>
        <pt x="810" y="-1" on="1"/>
        <pt x="813" y="16" on="0"/>
        <pt x="812" y="53" on="0"/>
        <pt x="813" y="77" on="1"/>
        <pt x="813" y="77" on="1"/>
        <pt x="799" y="161" on="0"/>
        <pt x="810" y="236" on="1"/>
        <pt x="810" y="236" on="1"/>
        <pt x="818" y="261" on="0"/>
        <pt x="825" y="289" on="1"/>
        <pt x="825" y="289" on="1"/>
        <pt x="825" y="302" on="0"/>
        <pt x="821" y="315" on="1"/>
        <pt x="821" y="315" on="1"/>
        <pt x="820" y="345" on="0"/>
        <pt x="800" y="361" on="1"/>
        <pt x="800" y="361" on="1"/>
        <pt x="755" y="376" on="0"/>
        <pt x="710" y="361" on="1"/>
        <pt x="710" y="361" on="1"/>
        <pt x="683" y="346" on="0"/>
        <pt x="640" y="292" on="0"/>
        <pt x="615" y="274" on="1"/>
        <pt x="615" y="274" on="1"/>
        <pt x="612" y="300" on="0"/>
        <pt x="615" y="326" on="1"/>
        <pt x="615" y="326" on="1"/>
        <pt x="633" y="364" on="0"/>
        <pt x="668" y="387" on="1"/>
        <pt x="668" y="387" on="1"/>
        <pt x="688" y="413" on="0"/>
        <pt x="716" y="420" on="1"/>
        <pt x="716" y="420" on="1"/>
        <pt x="774" y="442" on="0"/>
        <pt x="832" y="458" on="1"/>
        <pt x="832" y="458" on="1"/>
        <pt x="864" y="450" on="0"/>
        <pt x="875" y="474" on="1"/>
        <pt x="875" y="474" on="1"/>
        <pt x="856" y="480" on="0"/>
        <pt x="842" y="485" on="1"/>
        <pt x="842" y="485" on="1"/>
        <pt x="836" y="482" on="0"/>
        <pt x="820" y="495" on="0"/>
        <pt x="815" y="485" on="1"/>
        <pt x="815" y="485" on="1"/>
        <pt x="796" y="494" on="0"/>
        <pt x="788" y="499" on="1"/>
        <pt x="788" y="499" on="1"/>
        <pt x="785" y="472" on="0"/>
        <pt x="759" y="471" on="1"/>
        <pt x="759" y="471" on="1"/>
        <pt x="680" y="442" on="0"/>
        <pt x="603" y="409" on="1"/>
        <pt x="603" y="409" on="1"/>
        <pt x="579" y="397" on="0"/>
        <pt x="596" y="416" on="1"/>
        <pt x="596" y="416" on="1"/>
        <pt x="621" y="442" on="0"/>
        <pt x="649" y="448" on="1"/>
        <pt x="649" y="448" on="1"/>
        <pt x="674" y="453" on="0"/>
        <pt x="668" y="477" on="1"/>
        <pt x="668" y="477" on="1"/>
        <pt x="701" y="507" on="0"/>
        <pt x="724" y="542" on="1"/>
        <pt x="724" y="542" on="1"/>
        <pt x="703" y="552" on="0"/>
        <pt x="678" y="554" on="1"/>
        <pt x="678" y="554" on="1"/>
        <pt x="684" y="587" on="0"/>
        <pt x="703" y="610" on="1"/>
        <pt x="703" y="610" on="1"/>
        <pt x="707" y="619" on="0"/>
        <pt x="727" y="613" on="0"/>
        <pt x="732" y="623" on="1"/>
        <pt x="732" y="623" on="1"/>
        <pt x="748" y="620" on="0"/>
        <pt x="761" y="646" on="0"/>
        <pt x="744" y="652" on="1"/>
        <pt x="744" y="652" on="1"/>
        <pt x="717" y="661" on="0"/>
        <pt x="686" y="666" on="1"/>
        <pt x="686" y="666" on="1"/>
        <pt x="683" y="686" on="0"/>
        <pt x="697" y="699" on="1"/>
        <pt x="697" y="699" on="1"/>
        <pt x="695" y="710" on="0"/>
        <pt x="707" y="727" on="0"/>
        <pt x="698" y="737" on="1"/>
        <pt x="698" y="737" on="1"/>
        <pt x="698" y="754" on="0"/>
        <pt x="666" y="760" on="0"/>
        <pt x="655" y="767" on="1"/>
        <pt x="655" y="767" on="1"/>
        <pt x="633" y="761" on="0"/>
      </contour>
      <contour>
        <pt x="401" y="554" on="1"/>
        <pt x="401" y="554" on="1"/>
        <pt x="412" y="560" on="0"/>
        <pt x="442" y="550" on="0"/>
        <pt x="427" y="537" on="1"/>
        <pt x="427" y="537" on="1"/>
        <pt x="396" y="495" on="0"/>
        <pt x="358" y="462" on="1"/>
        <pt x="358" y="462" on="1"/>
        <pt x="352" y="455" on="0"/>
        <pt x="351" y="480" on="0"/>
        <pt x="355" y="485" on="1"/>
        <pt x="355" y="485" on="1"/>
        <pt x="354" y="501" on="0"/>
        <pt x="355" y="518" on="1"/>
        <pt x="355" y="518" on="1"/>
        <pt x="371" y="546" on="0"/>
      </contour>
      <contour>
        <pt x="393" y="420" on="1"/>
        <pt x="454" y="481" on="1"/>
        <pt x="462" y="481" on="0"/>
        <pt x="447" y="462" on="0"/>
        <pt x="447" y="455" on="1"/>
        <pt x="447" y="455" on="1"/>
        <pt x="430" y="410" on="0"/>
        <pt x="386" y="409" on="1"/>
        <pt x="386" y="409" on="1"/>
        <pt x="378" y="411" on="0"/>
        <pt x="393" y="420" on="1"/>
      </contour>
      <contour>
        <pt x="386" y="372" on="1"/>
        <pt x="389" y="374" on="1"/>
        <pt x="398" y="376" on="0"/>
        <pt x="381" y="357" on="0"/>
        <pt x="376" y="343" on="0"/>
        <pt x="359" y="324" on="0"/>
        <pt x="359" y="338" on="1"/>
        <pt x="359" y="338" on="1"/>
        <pt x="347" y="350" on="0"/>
        <pt x="377" y="364" on="0"/>
        <pt x="386" y="372" on="1"/>
      </contour>
      <contour>
        <pt x="713" y="315" on="1"/>
        <pt x="740" y="333" on="1"/>
        <pt x="756" y="327" on="0"/>
        <pt x="754" y="304" on="1"/>
        <pt x="754" y="304" on="1"/>
        <pt x="756" y="248" on="0"/>
        <pt x="751" y="196" on="1"/>
        <pt x="751" y="196" on="1"/>
        <pt x="700" y="191" on="0"/>
        <pt x="649" y="176" on="1"/>
        <pt x="649" y="176" on="1"/>
        <pt x="631" y="177" on="0"/>
        <pt x="649" y="198" on="0"/>
        <pt x="655" y="206" on="1"/>
        <pt x="655" y="206" on="1"/>
        <pt x="673" y="221" on="0"/>
        <pt x="698" y="222" on="1"/>
        <pt x="698" y="222" on="1"/>
        <pt x="728" y="231" on="0"/>
        <pt x="720" y="256" on="1"/>
        <pt x="720" y="256" on="1"/>
        <pt x="693" y="281" on="0"/>
        <pt x="655" y="285" on="1"/>
        <pt x="655" y="285" on="1"/>
        <pt x="655" y="297" on="0"/>
        <pt x="675" y="301" on="1"/>
        <pt x="675" y="301" on="1"/>
        <pt x="700" y="300" on="0"/>
        <pt x="713" y="315" on="1"/>
      </contour>
      <contour>
        <pt x="348" y="320" on="1"/>
        <pt x="355" y="326" on="1"/>
        <pt x="364" y="330" on="0"/>
        <pt x="352" y="313" on="0"/>
        <pt x="348" y="320" on="1"/>
      </contour>
      <contour>
        <pt x="750" y="153" on="1"/>
        <pt x="750" y="153" on="1"/>
        <pt x="758" y="157" on="0"/>
        <pt x="756" y="137" on="0"/>
        <pt x="757" y="133" on="1"/>
        <pt x="757" y="133" on="1"/>
        <pt x="754" y="83" on="0"/>
        <pt x="747" y="36" on="1"/>
        <pt x="747" y="36" on="1"/>
        <pt x="726" y="20" on="0"/>
        <pt x="698" y="18" on="1"/>
        <pt x="698" y="18" on="1"/>
        <pt x="676" y="20" on="0"/>
        <pt x="667" y="38" on="1"/>
        <pt x="667" y="38" on="1"/>
        <pt x="645" y="82" on="0"/>
        <pt x="634" y="130" on="1"/>
        <pt x="634" y="130" on="1"/>
        <pt x="651" y="131" on="0"/>
        <pt x="664" y="127" on="1"/>
        <pt x="664" y="127" on="1"/>
        <pt x="707" y="117" on="0"/>
        <pt x="737" y="146" on="1"/>
        <pt x="737" y="146" on="1"/>
        <pt x="748" y="145" on="0"/>
      </contour>
    </TTGlyph>
    <TTGlyph name="uni88AB" xMin="0" yMin="-7" xMax="872" yMax="728">
      <contour>
        <pt x="572" y="727" on="1"/>
        <pt x="572" y="727" on="1"/>
        <pt x="556" y="726" on="0"/>
        <pt x="555" y="711" on="1"/>
        <pt x="555" y="711" on="1"/>
        <pt x="527" y="695" on="0"/>
        <pt x="520" y="676" on="1"/>
        <pt x="520" y="676" on="1"/>
        <pt x="544" y="700" on="0"/>
        <pt x="576" y="708" on="1"/>
        <pt x="576" y="708" on="1"/>
        <pt x="594" y="666" on="0"/>
        <pt x="589" y="613" on="1"/>
        <pt x="589" y="613" on="1"/>
        <pt x="587" y="581" on="0"/>
        <pt x="584" y="545" on="1"/>
        <pt x="584" y="545" on="1"/>
        <pt x="573" y="522" on="0"/>
        <pt x="547" y="515" on="1"/>
        <pt x="547" y="515" on="1"/>
        <pt x="502" y="483" on="0"/>
        <pt x="450" y="465" on="1"/>
        <pt x="450" y="465" on="1"/>
        <pt x="433" y="473" on="0"/>
        <pt x="422" y="474" on="1"/>
        <pt x="422" y="474" on="1"/>
        <pt x="438" y="464" on="0"/>
        <pt x="454" y="458" on="1"/>
        <pt x="454" y="458" on="1"/>
        <pt x="474" y="444" on="0"/>
        <pt x="496" y="436" on="1"/>
        <pt x="496" y="436" on="1"/>
        <pt x="509" y="461" on="0"/>
        <pt x="537" y="459" on="1"/>
        <pt x="537" y="459" on="1"/>
        <pt x="550" y="453" on="0"/>
        <pt x="577" y="478" on="0"/>
        <pt x="576" y="458" on="1"/>
        <pt x="576" y="458" on="1"/>
        <pt x="572" y="417" on="0"/>
        <pt x="562" y="394" on="1"/>
        <pt x="562" y="394" on="1"/>
        <pt x="555" y="362" on="0"/>
        <pt x="557" y="327" on="1"/>
        <pt x="557" y="327" on="1"/>
        <pt x="550" y="300" on="0"/>
        <pt x="569" y="278" on="1"/>
        <pt x="569" y="278" on="1"/>
        <pt x="573" y="262" on="0"/>
        <pt x="581" y="271" on="1"/>
        <pt x="581" y="271" on="1"/>
        <pt x="586" y="251" on="0"/>
        <pt x="606" y="256" on="1"/>
        <pt x="606" y="256" on="1"/>
        <pt x="625" y="246" on="0"/>
        <pt x="652" y="251" on="1"/>
        <pt x="652" y="251" on="1"/>
        <pt x="676" y="258" on="0"/>
        <pt x="698" y="256" on="1"/>
        <pt x="698" y="256" on="1"/>
        <pt x="692" y="205" on="0"/>
        <pt x="652" y="176" on="1"/>
        <pt x="652" y="176" on="1"/>
        <pt x="613" y="193" on="0"/>
        <pt x="569" y="199" on="1"/>
        <pt x="569" y="199" on="1"/>
        <pt x="533" y="217" on="0"/>
        <pt x="494" y="206" on="1"/>
        <pt x="494" y="206" on="1"/>
        <pt x="473" y="195" on="0"/>
        <pt x="457" y="179" on="1"/>
        <pt x="457" y="179" on="1"/>
        <pt x="460" y="157" on="0"/>
        <pt x="479" y="143" on="1"/>
        <pt x="479" y="143" on="1"/>
        <pt x="484" y="122" on="0"/>
        <pt x="479" y="101" on="1"/>
        <pt x="479" y="101" on="1"/>
        <pt x="481" y="78" on="0"/>
        <pt x="503" y="78" on="1"/>
        <pt x="503" y="78" on="1"/>
        <pt x="519" y="81" on="0"/>
        <pt x="540" y="82" on="1"/>
        <pt x="540" y="82" on="1"/>
        <pt x="578" y="79" on="0"/>
        <pt x="615" y="90" on="1"/>
        <pt x="615" y="90" on="1"/>
        <pt x="628" y="88" on="0"/>
        <pt x="657" y="100" on="0"/>
        <pt x="668" y="87" on="1"/>
        <pt x="668" y="87" on="1"/>
        <pt x="745" y="52" on="0"/>
        <pt x="822" y="21" on="1"/>
        <pt x="822" y="21" on="1"/>
        <pt x="819" y="8" on="0"/>
        <pt x="826" y="14" on="1"/>
        <pt x="826" y="14" on="1"/>
        <pt x="837" y="10" on="0"/>
        <pt x="859" y="-7" on="0"/>
        <pt x="862" y="6" on="1"/>
        <pt x="862" y="6" on="1"/>
        <pt x="872" y="20" on="0"/>
        <pt x="862" y="38" on="1"/>
        <pt x="862" y="38" on="1"/>
        <pt x="857" y="58" on="0"/>
        <pt x="842" y="77" on="1"/>
        <pt x="842" y="77" on="1"/>
        <pt x="783" y="130" on="0"/>
        <pt x="716" y="160" on="1"/>
        <pt x="716" y="160" on="1"/>
        <pt x="744" y="219" on="0"/>
        <pt x="759" y="285" on="1"/>
        <pt x="759" y="285" on="1"/>
        <pt x="746" y="304" on="0"/>
        <pt x="717" y="313" on="1"/>
        <pt x="717" y="313" on="1"/>
        <pt x="669" y="323" on="0"/>
        <pt x="632" y="301" on="1"/>
        <pt x="632" y="301" on="1"/>
        <pt x="615" y="297" on="0"/>
        <pt x="599" y="286" on="1"/>
        <pt x="599" y="286" on="1"/>
        <pt x="600" y="308" on="0"/>
        <pt x="614" y="327" on="1"/>
        <pt x="614" y="327" on="1"/>
        <pt x="625" y="341" on="0"/>
        <pt x="627" y="385" on="0"/>
        <pt x="638" y="402" on="1"/>
        <pt x="638" y="402" on="1"/>
        <pt x="696" y="440" on="0"/>
        <pt x="750" y="492" on="1"/>
        <pt x="750" y="492" on="1"/>
        <pt x="770" y="520" on="0"/>
        <pt x="750" y="552" on="1"/>
        <pt x="750" y="552" on="1"/>
        <pt x="717" y="576" on="0"/>
        <pt x="674" y="574" on="1"/>
        <pt x="674" y="574" on="1"/>
        <pt x="663" y="562" on="0"/>
        <pt x="648" y="557" on="1"/>
        <pt x="648" y="557" on="1"/>
        <pt x="635" y="554" on="0"/>
        <pt x="639" y="580" on="0"/>
        <pt x="638" y="591" on="1"/>
        <pt x="638" y="591" on="1"/>
        <pt x="644" y="647" on="0"/>
        <pt x="625" y="700" on="1"/>
        <pt x="625" y="700" on="1"/>
        <pt x="614" y="723" on="0"/>
        <pt x="592" y="718" on="1"/>
        <pt x="592" y="718" on="1"/>
        <pt x="582" y="728" on="0"/>
      </contour>
      <contour>
        <pt x="245" y="685" on="1"/>
        <pt x="245" y="685" on="1"/>
        <pt x="171" y="673" on="1"/>
        <pt x="159" y="679" on="0"/>
        <pt x="164" y="666" on="1"/>
        <pt x="164" y="666" on="1"/>
        <pt x="172" y="656" on="0"/>
        <pt x="186" y="650" on="1"/>
        <pt x="186" y="650" on="1"/>
        <pt x="224" y="628" on="0"/>
        <pt x="261" y="613" on="1"/>
        <pt x="261" y="613" on="1"/>
        <pt x="271" y="611" on="0"/>
        <pt x="293" y="602" on="0"/>
        <pt x="279" y="596" on="1"/>
        <pt x="279" y="596" on="1"/>
        <pt x="296" y="587" on="0"/>
        <pt x="318" y="594" on="1"/>
        <pt x="318" y="594" on="1"/>
        <pt x="328" y="598" on="0"/>
        <pt x="349" y="611" on="0"/>
        <pt x="337" y="623" on="1"/>
        <pt x="337" y="623" on="1"/>
        <pt x="336" y="642" on="0"/>
        <pt x="329" y="662" on="1"/>
        <pt x="329" y="662" on="1"/>
        <pt x="292" y="683" on="0"/>
      </contour>
      <contour>
        <pt x="303" y="567" on="1"/>
        <pt x="303" y="567" on="1"/>
        <pt x="283" y="549" on="0"/>
        <pt x="228" y="536" on="0"/>
        <pt x="205" y="520" on="1"/>
        <pt x="205" y="520" on="1"/>
        <pt x="172" y="505" on="0"/>
        <pt x="141" y="481" on="1"/>
        <pt x="141" y="481" on="1"/>
        <pt x="133" y="476" on="0"/>
        <pt x="109" y="474" on="0"/>
        <pt x="115" y="489" on="1"/>
        <pt x="138" y="520" on="1"/>
        <pt x="123" y="502" on="0"/>
        <pt x="103" y="485" on="1"/>
        <pt x="103" y="485" on="1"/>
        <pt x="94" y="468" on="0"/>
        <pt x="110" y="417" on="0"/>
        <pt x="136" y="413" on="1"/>
        <pt x="136" y="413" on="1"/>
        <pt x="154" y="418" on="0"/>
        <pt x="177" y="416" on="1"/>
        <pt x="177" y="416" on="1"/>
        <pt x="209" y="432" on="0"/>
        <pt x="243" y="436" on="1"/>
        <pt x="243" y="436" on="1"/>
        <pt x="237" y="419" on="0"/>
        <pt x="220" y="399" on="1"/>
        <pt x="171" y="333" on="1"/>
        <pt x="159" y="324" on="0"/>
        <pt x="152" y="308" on="1"/>
        <pt x="152" y="308" on="1"/>
        <pt x="128" y="260" on="0"/>
        <pt x="106" y="213" on="1"/>
        <pt x="106" y="213" on="1"/>
        <pt x="96" y="210" on="0"/>
        <pt x="101" y="179" on="0"/>
        <pt x="113" y="184" on="1"/>
        <pt x="113" y="184" on="1"/>
        <pt x="154" y="227" on="0"/>
        <pt x="189" y="271" on="1"/>
        <pt x="189" y="271" on="1"/>
        <pt x="203" y="284" on="0"/>
        <pt x="197" y="259" on="1"/>
        <pt x="197" y="259" on="1"/>
        <pt x="198" y="232" on="0"/>
        <pt x="192" y="206" on="1"/>
        <pt x="192" y="206" on="1"/>
        <pt x="197" y="170" on="0"/>
        <pt x="179" y="146" on="1"/>
        <pt x="179" y="146" on="1"/>
        <pt x="177" y="129" on="0"/>
        <pt x="189" y="116" on="1"/>
        <pt x="189" y="116" on="1"/>
        <pt x="176" y="99" on="0"/>
        <pt x="192" y="77" on="1"/>
        <pt x="192" y="77" on="1"/>
        <pt x="204" y="47" on="0"/>
        <pt x="227" y="57" on="1"/>
        <pt x="227" y="57" on="1"/>
        <pt x="241" y="63" on="0"/>
        <pt x="239" y="95" on="0"/>
        <pt x="245" y="106" on="1"/>
        <pt x="250" y="236" on="1"/>
        <pt x="254" y="261" on="0"/>
        <pt x="243" y="289" on="1"/>
        <pt x="243" y="289" on="1"/>
        <pt x="242" y="310" on="0"/>
        <pt x="234" y="327" on="1"/>
        <pt x="234" y="327" on="1"/>
        <pt x="259" y="364" on="0"/>
        <pt x="289" y="399" on="1"/>
        <pt x="310" y="384" on="1"/>
        <pt x="321" y="376" on="0"/>
        <pt x="310" y="364" on="1"/>
        <pt x="310" y="364" on="1"/>
        <pt x="299" y="332" on="0"/>
        <pt x="264" y="333" on="1"/>
        <pt x="264" y="333" on="1"/>
        <pt x="252" y="326" on="0"/>
        <pt x="261" y="304" on="0"/>
        <pt x="254" y="294" on="1"/>
        <pt x="254" y="294" on="1"/>
        <pt x="267" y="271" on="0"/>
        <pt x="314" y="252" on="0"/>
        <pt x="336" y="256" on="1"/>
        <pt x="336" y="256" on="1"/>
        <pt x="328" y="261" on="0"/>
        <pt x="337" y="273" on="0"/>
        <pt x="329" y="278" on="1"/>
        <pt x="329" y="278" on="1"/>
        <pt x="316" y="302" on="0"/>
        <pt x="287" y="305" on="1"/>
        <pt x="287" y="305" on="1"/>
        <pt x="260" y="309" on="0"/>
        <pt x="281" y="323" on="1"/>
        <pt x="281" y="323" on="1"/>
        <pt x="311" y="349" on="0"/>
        <pt x="348" y="364" on="1"/>
        <pt x="348" y="364" on="1"/>
        <pt x="368" y="355" on="0"/>
        <pt x="366" y="376" on="1"/>
        <pt x="366" y="376" on="1"/>
        <pt x="373" y="385" on="0"/>
        <pt x="356" y="397" on="0"/>
        <pt x="358" y="406" on="1"/>
        <pt x="358" y="406" on="1"/>
        <pt x="334" y="420" on="0"/>
        <pt x="303" y="420" on="1"/>
        <pt x="303" y="420" on="1"/>
        <pt x="313" y="448" on="0"/>
        <pt x="340" y="459" on="1"/>
        <pt x="340" y="459" on="1"/>
        <pt x="353" y="485" on="0"/>
        <pt x="362" y="512" on="1"/>
        <pt x="362" y="512" on="1"/>
        <pt x="365" y="551" on="0"/>
        <pt x="325" y="557" on="1"/>
        <pt x="325" y="557" on="1"/>
        <pt x="317" y="563" on="0"/>
      </contour>
      <contour>
        <pt x="675" y="527" on="1"/>
        <pt x="675" y="527" on="1"/>
        <pt x="690" y="533" on="0"/>
        <pt x="681" y="510" on="0"/>
        <pt x="674" y="504" on="1"/>
        <pt x="674" y="504" on="1"/>
        <pt x="659" y="472" on="0"/>
        <pt x="634" y="450" on="1"/>
        <pt x="634" y="450" on="1"/>
        <pt x="633" y="476" on="0"/>
        <pt x="634" y="504" on="1"/>
        <pt x="634" y="504" on="1"/>
        <pt x="637" y="520" on="0"/>
        <pt x="657" y="520" on="1"/>
        <pt x="657" y="520" on="1"/>
        <pt x="665" y="527" on="0"/>
      </contour>
      <contour>
        <pt x="445" y="391" on="1"/>
        <pt x="430" y="391" on="1"/>
        <pt x="417" y="375" on="0"/>
        <pt x="430" y="379" on="1"/>
        <pt x="430" y="379" on="1"/>
        <pt x="446" y="380" on="0"/>
        <pt x="447" y="369" on="1"/>
        <pt x="447" y="369" on="1"/>
        <pt x="444" y="317" on="0"/>
        <pt x="422" y="270" on="1"/>
        <pt x="422" y="270" on="1"/>
        <pt x="417" y="242" on="0"/>
        <pt x="396" y="252" on="1"/>
        <pt x="396" y="252" on="1"/>
        <pt x="387" y="263" on="0"/>
        <pt x="389" y="251" on="1"/>
        <pt x="399" y="218" on="1"/>
        <pt x="400" y="209" on="0"/>
        <pt x="404" y="195" on="1"/>
        <pt x="404" y="195" on="1"/>
        <pt x="413" y="171" on="0"/>
        <pt x="434" y="189" on="1"/>
        <pt x="434" y="189" on="1"/>
        <pt x="470" y="239" on="0"/>
        <pt x="476" y="304" on="1"/>
        <pt x="476" y="304" on="1"/>
        <pt x="483" y="340" on="0"/>
        <pt x="479" y="376" on="1"/>
        <pt x="479" y="376" on="1"/>
        <pt x="473" y="400" on="0"/>
        <pt x="445" y="391" on="1"/>
      </contour>
      <contour>
        <pt x="496" y="189" on="1"/>
        <pt x="496" y="189" on="1"/>
        <pt x="531" y="187" on="0"/>
        <pt x="566" y="169" on="1"/>
        <pt x="600" y="138" on="1"/>
        <pt x="569" y="121" on="0"/>
        <pt x="532" y="120" on="1"/>
        <pt x="532" y="120" on="1"/>
        <pt x="499" y="134" on="0"/>
        <pt x="474" y="162" on="1"/>
        <pt x="474" y="162" on="1"/>
        <pt x="475" y="182" on="0"/>
      </contour>
    </TTGlyph>
    <TTGlyph name="uni8986" xMin="0" yMin="-107" xMax="825" yMax="830">
      <contour>
        <pt x="474" y="830" on="1"/>
        <pt x="474" y="830" on="1"/>
        <pt x="451" y="811" on="0"/>
        <pt x="418" y="808" on="1"/>
        <pt x="418" y="808" on="1"/>
        <pt x="378" y="799" on="0"/>
        <pt x="340" y="783" on="1"/>
        <pt x="340" y="783" on="1"/>
        <pt x="322" y="793" on="0"/>
        <pt x="336" y="778" on="1"/>
        <pt x="336" y="778" on="1"/>
        <pt x="332" y="774" on="0"/>
        <pt x="321" y="786" on="0"/>
        <pt x="325" y="778" on="1"/>
        <pt x="325" y="778" on="1"/>
        <pt x="343" y="758" on="0"/>
        <pt x="395" y="748" on="0"/>
        <pt x="418" y="737" on="1"/>
        <pt x="418" y="737" on="1"/>
        <pt x="375" y="701" on="0"/>
        <pt x="325" y="669" on="1"/>
        <pt x="260" y="632" on="1"/>
        <pt x="204" y="596" on="1"/>
        <pt x="162" y="603" on="0"/>
        <pt x="167" y="567" on="1"/>
        <pt x="167" y="567" on="1"/>
        <pt x="179" y="543" on="0"/>
        <pt x="167" y="518" on="1"/>
        <pt x="167" y="518" on="1"/>
        <pt x="170" y="494" on="0"/>
        <pt x="194" y="485" on="1"/>
        <pt x="194" y="485" on="1"/>
        <pt x="231" y="479" on="0"/>
        <pt x="269" y="471" on="1"/>
        <pt x="269" y="471" on="1"/>
        <pt x="286" y="453" on="0"/>
        <pt x="306" y="452" on="1"/>
        <pt x="306" y="452" on="1"/>
        <pt x="314" y="483" on="0"/>
        <pt x="310" y="515" on="1"/>
        <pt x="310" y="515" on="1"/>
        <pt x="298" y="534" on="0"/>
        <pt x="274" y="545" on="1"/>
        <pt x="274" y="545" on="1"/>
        <pt x="248" y="556" on="0"/>
        <pt x="220" y="571" on="1"/>
        <pt x="220" y="571" on="1"/>
        <pt x="267" y="613" on="0"/>
        <pt x="322" y="636" on="1"/>
        <pt x="322" y="636" on="1"/>
        <pt x="342" y="646" on="0"/>
        <pt x="358" y="650" on="1"/>
        <pt x="358" y="650" on="1"/>
        <pt x="382" y="631" on="0"/>
        <pt x="359" y="616" on="1"/>
        <pt x="359" y="616" on="1"/>
        <pt x="352" y="609" on="0"/>
        <pt x="334" y="603" on="0"/>
        <pt x="350" y="603" on="1"/>
        <pt x="350" y="603" on="1"/>
        <pt x="376" y="606" on="0"/>
        <pt x="369" y="583" on="1"/>
        <pt x="369" y="583" on="1"/>
        <pt x="367" y="570" on="0"/>
        <pt x="369" y="564" on="1"/>
        <pt x="369" y="564" on="1"/>
        <pt x="380" y="535" on="0"/>
        <pt x="355" y="534" on="1"/>
        <pt x="355" y="534" on="1"/>
        <pt x="349" y="527" on="0"/>
        <pt x="331" y="533" on="0"/>
        <pt x="343" y="527" on="1"/>
        <pt x="343" y="527" on="1"/>
        <pt x="356" y="514" on="0"/>
        <pt x="378" y="520" on="1"/>
        <pt x="378" y="520" on="1"/>
        <pt x="386" y="504" on="0"/>
        <pt x="393" y="504" on="1"/>
        <pt x="393" y="504" on="1"/>
        <pt x="396" y="525" on="0"/>
        <pt x="425" y="520" on="1"/>
        <pt x="425" y="520" on="1"/>
        <pt x="451" y="528" on="0"/>
        <pt x="467" y="515" on="1"/>
        <pt x="467" y="515" on="1"/>
        <pt x="475" y="536" on="0"/>
        <pt x="487" y="525" on="1"/>
        <pt x="487" y="525" on="1"/>
        <pt x="507" y="507" on="0"/>
        <pt x="532" y="508" on="1"/>
        <pt x="566" y="515" on="1"/>
        <pt x="607" y="534" on="0"/>
        <pt x="682" y="587" on="0"/>
        <pt x="727" y="596" on="1"/>
        <pt x="727" y="596" on="1"/>
        <pt x="761" y="604" on="0"/>
        <pt x="743" y="636" on="1"/>
        <pt x="743" y="636" on="1"/>
        <pt x="744" y="649" on="0"/>
        <pt x="722" y="655" on="0"/>
        <pt x="717" y="665" on="1"/>
        <pt x="717" y="665" on="1"/>
        <pt x="697" y="666" on="0"/>
        <pt x="675" y="678" on="1"/>
        <pt x="675" y="678" on="1"/>
        <pt x="675" y="691" on="0"/>
        <pt x="656" y="683" on="0"/>
        <pt x="648" y="681" on="1"/>
        <pt x="648" y="681" on="1"/>
        <pt x="608" y="678" on="0"/>
        <pt x="572" y="676" on="1"/>
        <pt x="572" y="676" on="1"/>
        <pt x="541" y="672" on="0"/>
        <pt x="510" y="673" on="1"/>
        <pt x="510" y="673" on="1"/>
        <pt x="516" y="702" on="0"/>
        <pt x="491" y="714" on="1"/>
        <pt x="491" y="714" on="1"/>
        <pt x="480" y="721" on="0"/>
        <pt x="506" y="730" on="0"/>
        <pt x="516" y="732" on="1"/>
        <pt x="516" y="732" on="1"/>
        <pt x="545" y="738" on="0"/>
        <pt x="572" y="732" on="1"/>
        <pt x="572" y="732" on="1"/>
        <pt x="582" y="746" on="0"/>
        <pt x="592" y="767" on="1"/>
        <pt x="592" y="767" on="1"/>
        <pt x="591" y="798" on="0"/>
        <pt x="562" y="801" on="1"/>
        <pt x="562" y="801" on="1"/>
        <pt x="532" y="813" on="0"/>
        <pt x="501" y="820" on="1"/>
        <pt x="501" y="820" on="1"/>
        <pt x="490" y="827" on="0"/>
      </contour>
      <contour>
        <pt x="457" y="706" on="1"/>
        <pt x="457" y="706" on="1"/>
        <pt x="478" y="712" on="0"/>
        <pt x="481" y="662" on="0"/>
        <pt x="460" y="662" on="1"/>
        <pt x="460" y="662" on="1"/>
        <pt x="433" y="655" on="0"/>
        <pt x="408" y="643" on="1"/>
        <pt x="408" y="643" on="1"/>
        <pt x="398" y="658" on="0"/>
        <pt x="378" y="662" on="1"/>
        <pt x="378" y="662" on="1"/>
        <pt x="383" y="671" on="0"/>
        <pt x="401" y="676" on="1"/>
        <pt x="401" y="676" on="1"/>
        <pt x="429" y="692" on="0"/>
      </contour>
      <contour>
        <pt x="608" y="643" on="1"/>
        <pt x="608" y="643" on="1"/>
        <pt x="620" y="648" on="0"/>
        <pt x="649" y="639" on="0"/>
        <pt x="634" y="625" on="1"/>
        <pt x="634" y="625" on="1"/>
        <pt x="589" y="578" on="0"/>
        <pt x="536" y="542" on="1"/>
        <pt x="536" y="542" on="1"/>
        <pt x="510" y="526" on="0"/>
        <pt x="481" y="533" on="1"/>
        <pt x="481" y="533" on="1"/>
        <pt x="482" y="541" on="0"/>
        <pt x="500" y="551" on="0"/>
        <pt x="491" y="557" on="1"/>
        <pt x="491" y="557" on="1"/>
        <pt x="497" y="578" on="0"/>
        <pt x="510" y="594" on="1"/>
        <pt x="510" y="594" on="1"/>
        <pt x="524" y="593" on="0"/>
        <pt x="533" y="615" on="0"/>
        <pt x="547" y="620" on="1"/>
        <pt x="547" y="620" on="1"/>
        <pt x="572" y="640" on="0"/>
      </contour>
      <contour>
        <pt x="457" y="601" on="1"/>
        <pt x="457" y="601" on="1"/>
        <pt x="466" y="596" on="0"/>
        <pt x="457" y="579" on="1"/>
        <pt x="457" y="579" on="1"/>
        <pt x="461" y="554" on="0"/>
        <pt x="438" y="560" on="1"/>
        <pt x="438" y="560" on="1"/>
        <pt x="427" y="560" on="0"/>
        <pt x="403" y="558" on="0"/>
        <pt x="408" y="571" on="1"/>
        <pt x="408" y="571" on="1"/>
        <pt x="405" y="594" on="0"/>
        <pt x="441" y="600" on="0"/>
      </contour>
      <contour>
        <pt x="441" y="508" on="1"/>
        <pt x="438" y="508" on="1"/>
        <pt x="410" y="496" on="0"/>
        <pt x="427" y="477" on="1"/>
        <pt x="427" y="477" on="1"/>
        <pt x="429" y="431" on="0"/>
        <pt x="454" y="399" on="1"/>
        <pt x="454" y="399" on="1"/>
        <pt x="460" y="412" on="0"/>
        <pt x="489" y="420" on="0"/>
        <pt x="491" y="435" on="1"/>
        <pt x="491" y="435" on="1"/>
        <pt x="512" y="448" on="0"/>
        <pt x="537" y="445" on="1"/>
        <pt x="537" y="445" on="1"/>
        <pt x="550" y="442" on="0"/>
        <pt x="565" y="443" on="1"/>
        <pt x="565" y="443" on="1"/>
        <pt x="598" y="435" on="0"/>
        <pt x="622" y="455" on="1"/>
        <pt x="622" y="455" on="1"/>
        <pt x="639" y="458" on="0"/>
        <pt x="641" y="478" on="1"/>
        <pt x="641" y="478" on="1"/>
        <pt x="634" y="497" on="0"/>
        <pt x="611" y="496" on="1"/>
        <pt x="611" y="496" on="1"/>
        <pt x="573" y="490" on="0"/>
        <pt x="540" y="492" on="1"/>
        <pt x="540" y="492" on="1"/>
        <pt x="525" y="461" on="0"/>
        <pt x="494" y="459" on="1"/>
      </contour>
      <contour>
        <pt x="303" y="432" on="1"/>
        <pt x="299" y="432" on="1"/>
        <pt x="285" y="420" on="0"/>
        <pt x="294" y="418" on="1"/>
        <pt x="294" y="418" on="1"/>
        <pt x="295" y="402" on="0"/>
        <pt x="279" y="387" on="1"/>
        <pt x="279" y="387" on="1"/>
        <pt x="250" y="366" on="0"/>
        <pt x="227" y="334" on="1"/>
        <pt x="227" y="334" on="1"/>
        <pt x="220" y="303" on="0"/>
        <pt x="223" y="270" on="1"/>
        <pt x="223" y="270" on="1"/>
        <pt x="250" y="286" on="0"/>
        <pt x="276" y="274" on="1"/>
        <pt x="276" y="274" on="1"/>
        <pt x="308" y="277" on="0"/>
        <pt x="299" y="256" on="1"/>
        <pt x="299" y="256" on="1"/>
        <pt x="264" y="219" on="0"/>
        <pt x="235" y="181" on="1"/>
        <pt x="235" y="181" on="1"/>
        <pt x="196" y="134" on="0"/>
        <pt x="159" y="82" on="1"/>
        <pt x="159" y="82" on="1"/>
        <pt x="153" y="80" on="0"/>
        <pt x="144" y="96" on="0"/>
        <pt x="145" y="90" on="1"/>
        <pt x="145" y="90" on="1"/>
        <pt x="145" y="68" on="0"/>
        <pt x="141" y="48" on="1"/>
        <pt x="141" y="48" on="1"/>
        <pt x="134" y="16" on="0"/>
        <pt x="159" y="15" on="1"/>
        <pt x="159" y="15" on="1"/>
        <pt x="227" y="76" on="0"/>
        <pt x="284" y="147" on="1"/>
        <pt x="284" y="147" on="1"/>
        <pt x="291" y="156" on="0"/>
        <pt x="292" y="130" on="0"/>
        <pt x="291" y="123" on="1"/>
        <pt x="291" y="123" on="1"/>
        <pt x="297" y="96" on="0"/>
        <pt x="281" y="91" on="1"/>
        <pt x="281" y="91" on="1"/>
        <pt x="281" y="75" on="0"/>
        <pt x="279" y="55" on="1"/>
        <pt x="281" y="-4" on="1"/>
        <pt x="288" y="-13" on="0"/>
        <pt x="296" y="-48" on="0"/>
        <pt x="306" y="-31" on="1"/>
        <pt x="306" y="-31" on="1"/>
        <pt x="314" y="-18" on="0"/>
        <pt x="322" y="-11" on="1"/>
        <pt x="322" y="-11" on="1"/>
        <pt x="331" y="42" on="0"/>
        <pt x="322" y="98" on="1"/>
        <pt x="322" y="98" on="1"/>
        <pt x="321" y="136" on="0"/>
        <pt x="310" y="173" on="1"/>
        <pt x="310" y="173" on="1"/>
        <pt x="327" y="205" on="0"/>
        <pt x="345" y="232" on="1"/>
        <pt x="345" y="232" on="1"/>
        <pt x="361" y="256" on="0"/>
        <pt x="378" y="277" on="1"/>
        <pt x="378" y="277" on="1"/>
        <pt x="392" y="299" on="0"/>
        <pt x="363" y="301" on="1"/>
        <pt x="363" y="301" on="1"/>
        <pt x="341" y="308" on="0"/>
        <pt x="318" y="318" on="1"/>
        <pt x="318" y="318" on="1"/>
        <pt x="301" y="308" on="0"/>
        <pt x="279" y="305" on="1"/>
        <pt x="279" y="305" on="1"/>
        <pt x="286" y="323" on="0"/>
        <pt x="309" y="338" on="1"/>
        <pt x="309" y="338" on="1"/>
        <pt x="340" y="364" on="0"/>
        <pt x="363" y="391" on="1"/>
        <pt x="363" y="391" on="1"/>
        <pt x="360" y="406" on="0"/>
        <pt x="343" y="413" on="1"/>
        <pt x="343" y="413" on="1"/>
        <pt x="320" y="416" on="0"/>
        <pt x="303" y="432" on="1"/>
      </contour>
      <contour>
        <pt x="581" y="423" on="1"/>
        <pt x="581" y="423" on="1"/>
        <pt x="537" y="382" on="1"/>
        <pt x="548" y="374" on="0"/>
        <pt x="570" y="395" on="0"/>
        <pt x="581" y="399" on="1"/>
        <pt x="581" y="399" on="1"/>
        <pt x="594" y="402" on="0"/>
        <pt x="597" y="373" on="0"/>
        <pt x="596" y="361" on="1"/>
        <pt x="596" y="361" on="1"/>
        <pt x="598" y="339" on="0"/>
        <pt x="593" y="318" on="1"/>
        <pt x="593" y="318" on="1"/>
        <pt x="568" y="331" on="0"/>
        <pt x="537" y="334" on="1"/>
        <pt x="537" y="334" on="1"/>
        <pt x="519" y="333" on="0"/>
        <pt x="501" y="327" on="1"/>
        <pt x="501" y="327" on="1"/>
        <pt x="469" y="341" on="0"/>
        <pt x="491" y="374" on="1"/>
        <pt x="491" y="374" on="1"/>
        <pt x="504" y="391" on="0"/>
        <pt x="509" y="413" on="1"/>
        <pt x="509" y="413" on="1"/>
        <pt x="490" y="385" on="0"/>
        <pt x="464" y="374" on="1"/>
        <pt x="464" y="374" on="1"/>
        <pt x="461" y="351" on="0"/>
        <pt x="461" y="326" on="1"/>
        <pt x="461" y="326" on="1"/>
        <pt x="457" y="269" on="0"/>
        <pt x="488" y="228" on="1"/>
        <pt x="488" y="228" on="1"/>
        <pt x="497" y="263" on="0"/>
        <pt x="498" y="301" on="1"/>
        <pt x="498" y="301" on="1"/>
        <pt x="541" y="258" on="0"/>
        <pt x="593" y="285" on="1"/>
        <pt x="593" y="285" on="1"/>
        <pt x="599" y="266" on="0"/>
        <pt x="594" y="237" on="0"/>
        <pt x="569" y="241" on="1"/>
        <pt x="569" y="241" on="1"/>
        <pt x="526" y="234" on="0"/>
        <pt x="488" y="221" on="1"/>
        <pt x="488" y="221" on="1"/>
        <pt x="455" y="212" on="0"/>
        <pt x="418" y="213" on="1"/>
        <pt x="418" y="213" on="1"/>
        <pt x="416" y="219" on="0"/>
        <pt x="431" y="240" on="0"/>
        <pt x="420" y="232" on="1"/>
        <pt x="420" y="232" on="1"/>
        <pt x="402" y="231" on="0"/>
        <pt x="401" y="213" on="1"/>
        <pt x="401" y="213" on="1"/>
        <pt x="404" y="193" on="0"/>
        <pt x="412" y="173" on="1"/>
        <pt x="412" y="173" on="1"/>
        <pt x="450" y="134" on="0"/>
        <pt x="509" y="160" on="1"/>
        <pt x="509" y="160" on="1"/>
        <pt x="511" y="147" on="0"/>
        <pt x="488" y="136" on="1"/>
        <pt x="454" y="104" on="1"/>
        <pt x="454" y="92" on="0"/>
        <pt x="429" y="89" on="0"/>
        <pt x="434" y="74" on="1"/>
        <pt x="434" y="74" on="1"/>
        <pt x="436" y="56" on="0"/>
        <pt x="415" y="26" on="0"/>
        <pt x="427" y="11" on="1"/>
        <pt x="427" y="11" on="1"/>
        <pt x="451" y="-4" on="0"/>
        <pt x="479" y="6" on="1"/>
        <pt x="479" y="6" on="1"/>
        <pt x="498" y="5" on="0"/>
        <pt x="509" y="14" on="1"/>
        <pt x="509" y="14" on="1"/>
        <pt x="534" y="13" on="0"/>
        <pt x="559" y="25" on="1"/>
        <pt x="559" y="25" on="1"/>
        <pt x="587" y="44" on="0"/>
        <pt x="614" y="22" on="1"/>
        <pt x="614" y="22" on="1"/>
        <pt x="666" y="-8" on="0"/>
        <pt x="716" y="-50" on="1"/>
        <pt x="716" y="-50" on="1"/>
        <pt x="742" y="-71" on="0"/>
        <pt x="773" y="-91" on="1"/>
        <pt x="773" y="-91" on="1"/>
        <pt x="781" y="-100" on="0"/>
        <pt x="811" y="-107" on="0"/>
        <pt x="799" y="-94" on="1"/>
        <pt x="799" y="-94" on="1"/>
        <pt x="806" y="-94" on="0"/>
        <pt x="813" y="-87" on="1"/>
        <pt x="813" y="-87" on="1"/>
        <pt x="825" y="-82" on="0"/>
        <pt x="821" y="-60" on="1"/>
        <pt x="821" y="-60" on="1"/>
        <pt x="808" y="-32" on="0"/>
        <pt x="788" y="-20" on="1"/>
        <pt x="788" y="-20" on="1"/>
        <pt x="779" y="-14" on="0"/>
        <pt x="764" y="-1" on="1"/>
        <pt x="764" y="-1" on="1"/>
        <pt x="742" y="17" on="0"/>
        <pt x="717" y="21" on="1"/>
        <pt x="717" y="21" on="1"/>
        <pt x="705" y="32" on="0"/>
        <pt x="689" y="44" on="1"/>
        <pt x="689" y="44" on="1"/>
        <pt x="674" y="45" on="0"/>
        <pt x="661" y="57" on="1"/>
        <pt x="661" y="57" on="1"/>
        <pt x="656" y="61" on="0"/>
        <pt x="636" y="64" on="0"/>
        <pt x="648" y="70" on="1"/>
        <pt x="648" y="70" on="1"/>
        <pt x="694" y="98" on="0"/>
        <pt x="737" y="127" on="1"/>
        <pt x="737" y="127" on="1"/>
        <pt x="747" y="143" on="0"/>
        <pt x="716" y="155" on="0"/>
        <pt x="705" y="160" on="1"/>
        <pt x="705" y="160" on="1"/>
        <pt x="692" y="177" on="0"/>
        <pt x="678" y="157" on="1"/>
        <pt x="678" y="157" on="1"/>
        <pt x="619" y="158" on="0"/>
        <pt x="569" y="133" on="1"/>
        <pt x="569" y="133" on="1"/>
        <pt x="571" y="147" on="0"/>
        <pt x="589" y="157" on="1"/>
        <pt x="589" y="157" on="1"/>
        <pt x="598" y="163" on="0"/>
        <pt x="619" y="184" on="0"/>
        <pt x="625" y="169" on="1"/>
        <pt x="625" y="169" on="1"/>
        <pt x="636" y="179" on="0"/>
        <pt x="641" y="216" on="0"/>
        <pt x="659" y="218" on="1"/>
        <pt x="659" y="218" on="1"/>
        <pt x="688" y="231" on="0"/>
        <pt x="671" y="245" on="1"/>
        <pt x="671" y="245" on="1"/>
        <pt x="643" y="242" on="0"/>
        <pt x="648" y="270" on="1"/>
        <pt x="648" y="270" on="1"/>
        <pt x="642" y="316" on="0"/>
        <pt x="645" y="367" on="1"/>
        <pt x="645" y="367" on="1"/>
        <pt x="645" y="379" on="0"/>
        <pt x="638" y="394" on="1"/>
        <pt x="638" y="394" on="1"/>
        <pt x="631" y="423" on="0"/>
        <pt x="599" y="418" on="1"/>
        <pt x="599" y="418" on="1"/>
        <pt x="592" y="422" on="0"/>
      </contour>
      <contour>
        <pt x="498" y="323" on="1"/>
        <pt x="498" y="323" on="1"/>
        <pt x="506" y="326" on="0"/>
        <pt x="501" y="314" on="0"/>
      </contour>
      <contour>
        <pt x="642" y="140" on="1"/>
        <pt x="642" y="140" on="1"/>
        <pt x="652" y="144" on="0"/>
        <pt x="681" y="142" on="0"/>
        <pt x="668" y="130" on="1"/>
        <pt x="668" y="130" on="1"/>
        <pt x="626" y="100" on="0"/>
        <pt x="578" y="77" on="1"/>
        <pt x="578" y="77" on="1"/>
        <pt x="542" y="79" on="0"/>
        <pt x="506" y="85" on="1"/>
        <pt x="506" y="85" on="1"/>
        <pt x="537" y="105" on="0"/>
        <pt x="576" y="116" on="1"/>
        <pt x="576" y="116" on="1"/>
        <pt x="608" y="132" on="0"/>
      </contour>
      <contour>
        <pt x="438" y="70" on="1"/>
        <pt x="442" y="78" on="1"/>
        <pt x="449" y="82" on="0"/>
        <pt x="444" y="61" on="0"/>
        <pt x="438" y="70" on="1"/>
      </contour>
      <contour>
        <pt x="481" y="67" on="1"/>
        <pt x="481" y="67" on="1"/>
        <pt x="507" y="69" on="0"/>
        <pt x="536" y="57" on="1"/>
        <pt x="536" y="57" on="1"/>
        <pt x="512" y="44" on="0"/>
        <pt x="487" y="38" on="1"/>
        <pt x="487" y="38" on="1"/>
        <pt x="456" y="25" on="0"/>
        <pt x="441" y="49" on="1"/>
        <pt x="441" y="49" on="1"/>
        <pt x="461" y="57" on="0"/>
      </contour>
    </TTGlyph>
    <TTGlyph name="uni91CD" xMin="0" yMin="-42" xMax="855" yMax="764">
      <contour>
        <pt x="523" y="755" on="1"/>
        <pt x="513" y="764" on="1"/>
        <pt x="499" y="752" on="0"/>
        <pt x="483" y="745" on="1"/>
        <pt x="442" y="752" on="1"/>
        <pt x="459" y="740" on="0"/>
        <pt x="471" y="727" on="1"/>
        <pt x="471" y="727" on="1"/>
        <pt x="449" y="702" on="0"/>
        <pt x="422" y="688" on="1"/>
        <pt x="422" y="688" on="1"/>
        <pt x="399" y="667" on="0"/>
        <pt x="369" y="659" on="1"/>
        <pt x="369" y="659" on="1"/>
        <pt x="379" y="664" on="0"/>
        <pt x="385" y="655" on="1"/>
        <pt x="385" y="655" on="1"/>
        <pt x="404" y="643" on="0"/>
        <pt x="422" y="655" on="1"/>
        <pt x="422" y="655" on="1"/>
        <pt x="451" y="665" on="0"/>
        <pt x="471" y="655" on="1"/>
        <pt x="471" y="655" on="1"/>
        <pt x="499" y="661" on="0"/>
        <pt x="525" y="662" on="1"/>
        <pt x="525" y="662" on="1"/>
        <pt x="540" y="670" on="0"/>
        <pt x="574" y="664" on="0"/>
        <pt x="589" y="676" on="1"/>
        <pt x="589" y="676" on="1"/>
        <pt x="600" y="675" on="0"/>
        <pt x="600" y="696" on="1"/>
        <pt x="600" y="696" on="1"/>
        <pt x="577" y="725" on="0"/>
        <pt x="544" y="737" on="1"/>
        <pt x="544" y="737" on="1"/>
        <pt x="540" y="744" on="0"/>
        <pt x="523" y="743" on="0"/>
        <pt x="523" y="755" on="1"/>
      </contour>
      <contour>
        <pt x="754" y="630" on="1"/>
        <pt x="754" y="630" on="1"/>
        <pt x="742" y="611" on="0"/>
        <pt x="717" y="617" on="1"/>
        <pt x="717" y="617" on="1"/>
        <pt x="675" y="615" on="0"/>
        <pt x="632" y="610" on="1"/>
        <pt x="632" y="610" on="1"/>
        <pt x="580" y="604" on="0"/>
        <pt x="530" y="594" on="1"/>
        <pt x="530" y="594" on="1"/>
        <pt x="507" y="616" on="0"/>
        <pt x="468" y="613" on="1"/>
        <pt x="468" y="613" on="1"/>
        <pt x="462" y="616" on="0"/>
        <pt x="437" y="608" on="0"/>
        <pt x="447" y="603" on="1"/>
        <pt x="447" y="603" on="1"/>
        <pt x="444" y="597" on="0"/>
        <pt x="425" y="601" on="0"/>
        <pt x="422" y="591" on="1"/>
        <pt x="422" y="591" on="1"/>
        <pt x="408" y="588" on="0"/>
        <pt x="420" y="586" on="1"/>
        <pt x="420" y="586" on="1"/>
        <pt x="444" y="604" on="0"/>
        <pt x="464" y="579" on="1"/>
        <pt x="464" y="579" on="1"/>
        <pt x="322" y="537" on="0"/>
        <pt x="186" y="484" on="1"/>
        <pt x="186" y="484" on="1"/>
        <pt x="144" y="474" on="0"/>
        <pt x="113" y="507" on="1"/>
        <pt x="113" y="507" on="1"/>
        <pt x="116" y="476" on="0"/>
        <pt x="151" y="466" on="1"/>
        <pt x="151" y="466" on="1"/>
        <pt x="186" y="449" on="0"/>
        <pt x="227" y="459" on="1"/>
        <pt x="227" y="459" on="1"/>
        <pt x="257" y="458" on="0"/>
        <pt x="281" y="471" on="1"/>
        <pt x="281" y="471" on="1"/>
        <pt x="356" y="499" on="0"/>
        <pt x="427" y="522" on="1"/>
        <pt x="464" y="533" on="1"/>
        <pt x="473" y="508" on="0"/>
        <pt x="468" y="484" on="1"/>
        <pt x="468" y="484" on="1"/>
        <pt x="445" y="473" on="0"/>
        <pt x="461" y="477" on="1"/>
        <pt x="461" y="477" on="1"/>
        <pt x="479" y="481" on="0"/>
        <pt x="460" y="453" on="0"/>
        <pt x="447" y="462" on="1"/>
        <pt x="447" y="462" on="1"/>
        <pt x="437" y="451" on="0"/>
        <pt x="420" y="445" on="1"/>
        <pt x="420" y="445" on="1"/>
        <pt x="406" y="432" on="0"/>
        <pt x="392" y="432" on="1"/>
        <pt x="392" y="432" on="1"/>
        <pt x="422" y="422" on="0"/>
        <pt x="452" y="403" on="1"/>
        <pt x="452" y="403" on="1"/>
        <pt x="476" y="412" on="0"/>
        <pt x="474" y="391" on="1"/>
        <pt x="474" y="391" on="1"/>
        <pt x="461" y="373" on="0"/>
        <pt x="435" y="367" on="1"/>
        <pt x="435" y="367" on="1"/>
        <pt x="416" y="357" on="0"/>
        <pt x="399" y="360" on="1"/>
        <pt x="399" y="360" on="1"/>
        <pt x="410" y="350" on="0"/>
        <pt x="425" y="343" on="1"/>
        <pt x="425" y="343" on="1"/>
        <pt x="445" y="330" on="0"/>
        <pt x="464" y="326" on="1"/>
        <pt x="464" y="326" on="1"/>
        <pt x="445" y="299" on="0"/>
        <pt x="430" y="270" on="1"/>
        <pt x="430" y="270" on="1"/>
        <pt x="416" y="251" on="0"/>
        <pt x="435" y="236" on="1"/>
        <pt x="435" y="236" on="1"/>
        <pt x="438" y="215" on="0"/>
        <pt x="452" y="211" on="1"/>
        <pt x="452" y="211" on="1"/>
        <pt x="460" y="185" on="0"/>
        <pt x="460" y="154" on="1"/>
        <pt x="460" y="154" on="1"/>
        <pt x="458" y="138" on="0"/>
        <pt x="441" y="138" on="1"/>
        <pt x="441" y="138" on="1"/>
        <pt x="408" y="124" on="0"/>
        <pt x="374" y="127" on="1"/>
        <pt x="374" y="127" on="1"/>
        <pt x="394" y="110" on="0"/>
        <pt x="415" y="91" on="1"/>
        <pt x="415" y="91" on="1"/>
        <pt x="445" y="90" on="0"/>
        <pt x="471" y="94" on="1"/>
        <pt x="471" y="94" on="1"/>
        <pt x="483" y="79" on="0"/>
        <pt x="474" y="64" on="1"/>
        <pt x="474" y="64" on="1"/>
        <pt x="468" y="61" on="0"/>
        <pt x="457" y="60" on="1"/>
        <pt x="457" y="60" on="1"/>
        <pt x="437" y="38" on="0"/>
        <pt x="422" y="14" on="1"/>
        <pt x="422" y="14" on="1"/>
        <pt x="438" y="4" on="0"/>
        <pt x="434" y="-11" on="1"/>
        <pt x="434" y="-11" on="1"/>
        <pt x="443" y="-37" on="0"/>
        <pt x="498" y="-42" on="0"/>
        <pt x="525" y="-41" on="1"/>
        <pt x="525" y="-41" on="1"/>
        <pt x="579" y="-22" on="0"/>
        <pt x="634" y="-35" on="1"/>
        <pt x="634" y="-35" on="1"/>
        <pt x="660" y="-23" on="0"/>
        <pt x="652" y="-4" on="1"/>
        <pt x="652" y="-4" on="1"/>
        <pt x="658" y="7" on="0"/>
        <pt x="636" y="23" on="0"/>
        <pt x="632" y="34" on="1"/>
        <pt x="632" y="34" on="1"/>
        <pt x="616" y="45" on="0"/>
        <pt x="571" y="44" on="0"/>
        <pt x="559" y="60" on="1"/>
        <pt x="559" y="60" on="1"/>
        <pt x="586" y="74" on="0"/>
        <pt x="603" y="101" on="1"/>
        <pt x="603" y="101" on="1"/>
        <pt x="622" y="100" on="0"/>
        <pt x="619" y="116" on="1"/>
        <pt x="619" y="116" on="1"/>
        <pt x="621" y="134" on="0"/>
        <pt x="619" y="160" on="1"/>
        <pt x="619" y="160" on="1"/>
        <pt x="608" y="173" on="0"/>
        <pt x="572" y="173" on="0"/>
        <pt x="562" y="187" on="1"/>
        <pt x="562" y="187" on="1"/>
        <pt x="557" y="170" on="0"/>
        <pt x="543" y="169" on="1"/>
        <pt x="543" y="169" on="1"/>
        <pt x="519" y="157" on="0"/>
        <pt x="517" y="179" on="1"/>
        <pt x="517" y="179" on="1"/>
        <pt x="509" y="214" on="0"/>
        <pt x="536" y="225" on="1"/>
        <pt x="536" y="225" on="1"/>
        <pt x="559" y="235" on="0"/>
        <pt x="578" y="255" on="1"/>
        <pt x="578" y="255" on="1"/>
        <pt x="579" y="276" on="0"/>
        <pt x="603" y="289" on="1"/>
        <pt x="603" y="289" on="1"/>
        <pt x="632" y="317" on="0"/>
        <pt x="661" y="340" on="1"/>
        <pt x="661" y="340" on="1"/>
        <pt x="683" y="364" on="0"/>
        <pt x="708" y="389" on="1"/>
        <pt x="708" y="389" on="1"/>
        <pt x="729" y="396" on="0"/>
        <pt x="734" y="423" on="1"/>
        <pt x="734" y="423" on="1"/>
        <pt x="736" y="442" on="0"/>
        <pt x="730" y="462" on="1"/>
        <pt x="730" y="462" on="1"/>
        <pt x="716" y="482" on="0"/>
        <pt x="679" y="515" on="0"/>
        <pt x="657" y="512" on="1"/>
        <pt x="657" y="512" on="1"/>
        <pt x="592" y="509" on="0"/>
        <pt x="532" y="492" on="1"/>
        <pt x="532" y="492" on="1"/>
        <pt x="525" y="501" on="0"/>
        <pt x="552" y="506" on="0"/>
        <pt x="559" y="511" on="1"/>
        <pt x="559" y="511" on="1"/>
        <pt x="582" y="520" on="0"/>
        <pt x="606" y="527" on="1"/>
        <pt x="606" y="527" on="1"/>
        <pt x="627" y="538" on="0"/>
        <pt x="652" y="541" on="1"/>
        <pt x="652" y="541" on="1"/>
        <pt x="668" y="541" on="0"/>
        <pt x="681" y="548" on="1"/>
        <pt x="681" y="548" on="1"/>
        <pt x="695" y="540" on="0"/>
        <pt x="710" y="542" on="1"/>
        <pt x="710" y="542" on="1"/>
        <pt x="730" y="546" on="0"/>
        <pt x="751" y="554" on="1"/>
        <pt x="751" y="554" on="1"/>
        <pt x="767" y="557" on="0"/>
        <pt x="779" y="552" on="1"/>
        <pt x="779" y="552" on="1"/>
        <pt x="792" y="550" on="0"/>
        <pt x="807" y="552" on="1"/>
        <pt x="807" y="552" on="1"/>
        <pt x="828" y="553" on="0"/>
        <pt x="848" y="541" on="1"/>
        <pt x="848" y="541" on="1"/>
        <pt x="855" y="555" on="0"/>
        <pt x="852" y="579" on="1"/>
        <pt x="852" y="579" on="1"/>
        <pt x="829" y="598" on="0"/>
        <pt x="803" y="613" on="1"/>
        <pt x="803" y="613" on="1"/>
        <pt x="789" y="610" on="0"/>
        <pt x="773" y="617" on="1"/>
        <pt x="773" y="617" on="1"/>
        <pt x="764" y="629" on="0"/>
      </contour>
      <contour>
        <pt x="611" y="557" on="1"/>
        <pt x="615" y="557" on="1"/>
        <pt x="634" y="563" on="0"/>
        <pt x="655" y="557" on="1"/>
        <pt x="655" y="557" on="1"/>
        <pt x="612" y="530" on="0"/>
        <pt x="565" y="515" on="1"/>
        <pt x="565" y="515" on="1"/>
        <pt x="546" y="506" on="0"/>
        <pt x="527" y="507" on="1"/>
        <pt x="527" y="507" on="1"/>
        <pt x="532" y="522" on="0"/>
        <pt x="530" y="541" on="1"/>
        <pt x="530" y="541" on="1"/>
        <pt x="566" y="554" on="0"/>
        <pt x="611" y="557" on="1"/>
      </contour>
      <contour>
        <pt x="619" y="452" on="1"/>
        <pt x="619" y="452" on="1"/>
        <pt x="637" y="450" on="0"/>
        <pt x="619" y="432" on="1"/>
        <pt x="585" y="369" on="1"/>
        <pt x="576" y="381" on="0"/>
        <pt x="559" y="382" on="1"/>
        <pt x="559" y="382" on="1"/>
        <pt x="546" y="387" on="0"/>
        <pt x="536" y="394" on="1"/>
        <pt x="536" y="394" on="1"/>
        <pt x="523" y="401" on="0"/>
        <pt x="530" y="420" on="1"/>
        <pt x="530" y="420" on="1"/>
        <pt x="573" y="443" on="0"/>
      </contour>
      <contour>
        <pt x="310" y="369" on="1"/>
        <pt x="306" y="394" on="1"/>
        <pt x="295" y="369" on="0"/>
        <pt x="287" y="345" on="1"/>
        <pt x="287" y="345" on="1"/>
        <pt x="279" y="337" on="0"/>
        <pt x="300" y="316" on="0"/>
        <pt x="302" y="305" on="1"/>
        <pt x="302" y="305" on="1"/>
        <pt x="309" y="279" on="0"/>
        <pt x="336" y="274" on="1"/>
        <pt x="336" y="274" on="1"/>
        <pt x="352" y="249" on="0"/>
        <pt x="378" y="238" on="1"/>
        <pt x="378" y="238" on="1"/>
        <pt x="389" y="230" on="0"/>
        <pt x="400" y="256" on="0"/>
        <pt x="401" y="267" on="1"/>
        <pt x="401" y="267" on="1"/>
        <pt x="404" y="316" on="0"/>
        <pt x="355" y="330" on="1"/>
        <pt x="355" y="330" on="1"/>
        <pt x="318" y="336" on="0"/>
        <pt x="310" y="369" on="1"/>
      </contour>
      <contour>
        <pt x="530" y="326" on="1"/>
        <pt x="557" y="334" on="1"/>
        <pt x="569" y="339" on="0"/>
        <pt x="554" y="314" on="0"/>
        <pt x="550" y="305" on="1"/>
        <pt x="550" y="305" on="1"/>
        <pt x="541" y="291" on="0"/>
        <pt x="527" y="278" on="1"/>
        <pt x="527" y="278" on="1"/>
        <pt x="519" y="301" on="0"/>
        <pt x="530" y="326" on="1"/>
      </contour>
      <contour>
        <pt x="454" y="278" on="1"/>
        <pt x="457" y="285" on="1"/>
        <pt x="465" y="288" on="0"/>
        <pt x="461" y="271" on="0"/>
        <pt x="454" y="278" on="1"/>
      </contour>
    </TTGlyph>
    <TTGlyph name="uniFF0C" xMin="0" yMin="0" xMax="212" yMax="177">
      <contour>
        <pt x="125" y="81" on="1"/>
        <pt x="125" y="81" on="1"/>
        <pt x="125" y="92" on="0"/>
        <pt x="117" y="101" on="0"/>
        <pt x="113" y="103" on="1"/>
        <pt x="104" y="108" on="1"/>
        <pt x="100" y="109" on="0"/>
        <pt x="99" y="114" on="1"/>
        <pt x="100" y="142" on="1"/>
        <pt x="100" y="166" on="0"/>
        <pt x="123" y="177" on="0"/>
        <pt x="145" y="177" on="1"/>
        <pt x="145" y="177" on="1"/>
        <pt x="154" y="177" on="0"/>
        <pt x="166" y="175" on="1"/>
        <pt x="166" y="175" on="1"/>
        <pt x="177" y="171" on="0"/>
        <pt x="198" y="159" on="0"/>
        <pt x="212" y="142" on="0"/>
        <pt x="212" y="130" on="1"/>
        <pt x="212" y="130" on="1"/>
        <pt x="212" y="116" on="0"/>
        <pt x="192" y="79" on="0"/>
        <pt x="161" y="47" on="0"/>
        <pt x="126" y="26" on="0"/>
        <pt x="110" y="26" on="1"/>
        <pt x="110" y="26" on="1"/>
        <pt x="109" y="26" on="0"/>
        <pt x="109" y="27" on="1"/>
        <pt x="109" y="28" on="1"/>
        <pt x="109" y="41" on="0"/>
        <pt x="125" y="67" on="0"/>
      </contour>
    </TTGlyph>
</ttFont>
